%TF.GenerationSoftware,KiCad,Pcbnew,9.0.4*%
%TF.CreationDate,2026-02-17T14:13:00+01:00*%
%TF.ProjectId,TEST_PCB,54455354-5f50-4434-922e-6b696361645f,rev?*%
%TF.SameCoordinates,Original*%
%TF.FileFunction,Copper,L4,Bot*%
%TF.FilePolarity,Positive*%
%FSLAX46Y46*%
G04 Gerber Fmt 4.6, Leading zero omitted, Abs format (unit mm)*
G04 Created by KiCad (PCBNEW 9.0.4) date 2026-02-17 14:13:00*
%MOMM*%
%LPD*%
G01*
G04 APERTURE LIST*
%TA.AperFunction,ComponentPad*%
%ADD10C,1.700000*%
%TD*%
%TA.AperFunction,ComponentPad*%
%ADD11R,1.700000X1.700000*%
%TD*%
%TA.AperFunction,HeatsinkPad*%
%ADD12R,1.600000X1.600000*%
%TD*%
%TA.AperFunction,HeatsinkPad*%
%ADD13R,4.500000X4.500000*%
%TD*%
%TA.AperFunction,HeatsinkPad*%
%ADD14C,0.600000*%
%TD*%
%TA.AperFunction,ViaPad*%
%ADD15C,0.650000*%
%TD*%
%TA.AperFunction,Conductor*%
%ADD16C,0.200000*%
%TD*%
%TA.AperFunction,Conductor*%
%ADD17C,0.400000*%
%TD*%
G04 APERTURE END LIST*
D10*
%TO.P,J119,2,Pin_2*%
%TO.N,Net-(J119-Pin_2)*%
X95700000Y-71365000D03*
D11*
%TO.P,J119,1,Pin_1*%
%TO.N,GND*%
X95700000Y-68825000D03*
%TD*%
%TO.P,J118,1,Pin_1*%
%TO.N,+3V3*%
X192200000Y-95300000D03*
D10*
%TO.P,J118,2,Pin_2*%
%TO.N,Net-(J118-Pin_2)*%
X192200000Y-92760000D03*
%TD*%
D12*
%TO.P,U401,17,PAD*%
%TO.N,GND*%
X195250000Y-125950000D03*
%TD*%
D13*
%TO.P,U1304,49,EXP*%
%TO.N,GND*%
X171900000Y-137250000D03*
%TD*%
%TO.P,U1305,49,EXP*%
%TO.N,GND*%
X147862500Y-137300000D03*
%TD*%
D11*
%TO.P,J132,1,Pin_1*%
%TO.N,/MCU/RS422_Tx_P*%
X204775000Y-129875002D03*
D10*
%TO.P,J132,2,Pin_2*%
%TO.N,/MCU/RS422_Tx_N*%
X204775000Y-127335002D03*
%TO.P,J132,3,Pin_3*%
%TO.N,/MCU/RS422_Rx_P*%
X204775000Y-124795003D03*
%TO.P,J132,4,Pin_4*%
%TO.N,/MCU/RS422_Rx_N*%
X204775000Y-122255002D03*
%TD*%
D11*
%TO.P,J124,1,Pin_1*%
%TO.N,/SWITCH_ALERT*%
X119918501Y-79305500D03*
D10*
%TO.P,J124,2,Pin_2*%
%TO.N,GND*%
X119918501Y-81845500D03*
%TD*%
D11*
%TO.P,J112,1,Pin_1*%
%TO.N,/solar/VOUT*%
X81000000Y-85350000D03*
D10*
%TO.P,J112,2,Pin_2*%
%TO.N,GND*%
X81000000Y-87890000D03*
%TD*%
D11*
%TO.P,BT903,1,+*%
%TO.N,/battery/BATT_2*%
X69750000Y-124575000D03*
D10*
%TO.P,BT903,2,-*%
%TO.N,/battery/BATT_1*%
X67210000Y-124575000D03*
%TD*%
D11*
%TO.P,J105,1,Pin_1*%
%TO.N,/HEAT_BATT_1*%
X113550000Y-151050000D03*
D10*
%TO.P,J105,2,Pin_2*%
%TO.N,GND*%
X116090000Y-151050000D03*
%TD*%
D11*
%TO.P,J135,1,Pin_1*%
%TO.N,/UniversalSwitch/VOUT*%
X200750000Y-73725000D03*
D10*
%TO.P,J135,2,Pin_2*%
%TO.N,GND*%
X203290000Y-73725000D03*
%TD*%
D11*
%TO.P,J137,1,Pin_1*%
%TO.N,/ameas/VIN*%
X203284752Y-66671000D03*
D10*
%TO.P,J137,2,Pin_2*%
%TO.N,/UniversalSwitch/VOUT*%
X200744752Y-66671000D03*
%TD*%
D11*
%TO.P,J122,1,Pin_1*%
%TO.N,/switch/VOUT*%
X119975000Y-72600000D03*
D10*
%TO.P,J122,2,Pin_2*%
%TO.N,GND*%
X119975000Y-75140000D03*
%TD*%
D11*
%TO.P,J125,1,Pin_1*%
%TO.N,/dcdc/VIN*%
X122925000Y-65050000D03*
D10*
%TO.P,J125,2,Pin_2*%
%TO.N,/switch/VOUT*%
X120385000Y-65050000D03*
%TD*%
D11*
%TO.P,J131,1,Pin_1*%
%TO.N,/MCU/SCK*%
X189725000Y-137720001D03*
D10*
%TO.P,J131,2,Pin_2*%
%TO.N,/MCU/MOSI*%
X189725000Y-140260001D03*
%TO.P,J131,3,Pin_3*%
%TO.N,/MCU/MISO*%
X189725000Y-142800000D03*
%TO.P,J131,4,Pin_4*%
%TO.N,/MCU/CS_1*%
X189725000Y-145340001D03*
%TD*%
D11*
%TO.P,J1302,1,Pin_1*%
%TO.N,MCU_3V3*%
X180562500Y-134900000D03*
D10*
%TO.P,J1302,2,Pin_2*%
%TO.N,Net-(J1302-Pin_2)*%
X180562500Y-137440000D03*
%TO.P,J1302,3,Pin_3*%
%TO.N,Net-(J1302-Pin_3)*%
X180562500Y-139980000D03*
%TO.P,J1302,4,Pin_4*%
%TO.N,GND*%
X180562500Y-142520000D03*
%TD*%
D11*
%TO.P,J140,1,Pin_1*%
%TO.N,/MCU/TX*%
X145750000Y-146125000D03*
D10*
%TO.P,J140,2,Pin_2*%
%TO.N,/MCU/RX*%
X143210000Y-146125000D03*
%TD*%
D11*
%TO.P,J901,1,Pin_1*%
%TO.N,GND*%
X84650000Y-132750000D03*
D10*
%TO.P,J901,2,Pin_2*%
%TO.N,/AMEAS_9*%
X87190000Y-132750000D03*
%TD*%
D11*
%TO.P,J1301,1,Pin_1*%
%TO.N,MCU_3V3*%
X181400000Y-112300000D03*
D10*
%TO.P,J1301,2,Pin_2*%
%TO.N,Net-(J1301-Pin_2)*%
X183940000Y-112300000D03*
%TD*%
D11*
%TO.P,J114,1,Pin_1*%
%TO.N,GND*%
X72977500Y-40800000D03*
D10*
%TO.P,J114,2,Pin_2*%
X72977500Y-43340000D03*
%TD*%
D11*
%TO.P,J120,1,Pin_1*%
%TO.N,/SW_BATT_11*%
X107050000Y-121050000D03*
D10*
%TO.P,J120,2,Pin_2*%
%TO.N,+3V3*%
X109590000Y-121050000D03*
%TO.P,J120,3,Pin_3*%
%TO.N,/SW_BATT_12*%
X112129999Y-121050000D03*
%TD*%
D11*
%TO.P,J111,1,Pin_1*%
%TO.N,/AMEAS_9*%
X87150000Y-129000000D03*
D10*
%TO.P,J111,2,Pin_2*%
%TO.N,GND*%
X84610000Y-129000000D03*
%TD*%
D11*
%TO.P,J148,1,Pin_1*%
%TO.N,/UniversalSwitch/VOUT*%
X200725000Y-69850000D03*
D10*
%TO.P,J148,2,Pin_2*%
%TO.N,/ameas/VIN*%
X203265000Y-69850000D03*
%TD*%
D11*
%TO.P,J141,1,Pin_1*%
%TO.N,/MCU/CAN_H*%
X197000000Y-148800000D03*
D10*
%TO.P,J141,2,Pin_2*%
%TO.N,/MCU/CAN_L*%
X194460000Y-148800000D03*
%TD*%
D11*
%TO.P,J136,1,Pin_1*%
%TO.N,/UniversalSwitch/AMEAS*%
X175100000Y-70200000D03*
D10*
%TO.P,J136,2,Pin_2*%
%TO.N,GND*%
X175100000Y-67660000D03*
%TD*%
D11*
%TO.P,J123,1,Pin_1*%
%TO.N,/ameas1/AMEAS*%
X94750000Y-100750000D03*
D10*
%TO.P,J123,2,Pin_2*%
%TO.N,GND*%
X94750000Y-98210000D03*
%TD*%
D11*
%TO.P,J130,1,Pin_1*%
%TO.N,/Ch_EN_11*%
X175234752Y-52000000D03*
D10*
%TO.P,J130,2,Pin_2*%
%TO.N,+3V3*%
X175234752Y-54540000D03*
%TO.P,J130,3,Pin_3*%
%TO.N,/Ch_EN_12*%
X175234752Y-57080000D03*
%TD*%
D11*
%TO.P,BT904,1,+*%
%TO.N,/battery/BATT_1*%
X64360000Y-124575000D03*
D10*
%TO.P,BT904,2,-*%
%TO.N,/battery/BATT_0*%
X61820000Y-124575000D03*
%TD*%
D11*
%TO.P,J103,1,Pin_1*%
%TO.N,GND*%
X53193001Y-56001002D03*
D10*
%TO.P,J103,2,Pin_2*%
X53193001Y-53461002D03*
%TO.P,J103,3,Pin_3*%
X53193001Y-50921003D03*
%TO.P,J103,4,Pin_4*%
X53193001Y-48381002D03*
%TO.P,J103,5,Pin_5*%
X53193001Y-45841002D03*
%TD*%
D11*
%TO.P,J145,1,Pin_1*%
%TO.N,/solar/VOUT*%
X94150000Y-82675000D03*
D10*
%TO.P,J145,2,Pin_2*%
%TO.N,/switch/VIN1*%
X94150000Y-80135000D03*
%TD*%
D11*
%TO.P,J1303,1,Pin_1*%
%TO.N,MCU_3V3*%
X159627500Y-137105000D03*
D10*
%TO.P,J1303,2,Pin_2*%
%TO.N,Net-(J1303-Pin_2)*%
X159627500Y-139645000D03*
%TO.P,J1303,3,Pin_3*%
%TO.N,Net-(J1303-Pin_3)*%
X159627500Y-142185000D03*
%TO.P,J1303,4,Pin_4*%
%TO.N,GND*%
X159627500Y-144725000D03*
%TD*%
D11*
%TO.P,BT902,1,+*%
%TO.N,/battery/BATT_3*%
X75150000Y-124550000D03*
D10*
%TO.P,BT902,2,-*%
%TO.N,/battery/BATT_2*%
X72610000Y-124550000D03*
%TD*%
D11*
%TO.P,J146,1,Pin_1*%
%TO.N,/switch/VOUT*%
X120375000Y-68300000D03*
D10*
%TO.P,J146,2,Pin_2*%
%TO.N,/dcdc/VIN*%
X122915000Y-68300000D03*
%TD*%
D11*
%TO.P,J113,1,Pin_1*%
%TO.N,/AMEAS_SOL_1*%
X70277500Y-40800000D03*
D10*
%TO.P,J113,2,Pin_2*%
%TO.N,/AMEAS_2*%
X70277500Y-43340000D03*
%TD*%
D11*
%TO.P,J121,1,Pin_1*%
%TO.N,/switch/VIN1*%
X91225000Y-65350000D03*
D10*
%TO.P,J121,2,Pin_2*%
%TO.N,GND*%
X91225000Y-62810000D03*
%TD*%
D11*
%TO.P,J102,1,Pin_1*%
%TO.N,/SOL_EN_1*%
X55893001Y-56001002D03*
D10*
%TO.P,J102,2,Pin_2*%
%TO.N,/SOL_STAT_2*%
X55893001Y-53461002D03*
%TO.P,J102,3,Pin_3*%
%TO.N,/SOL_STAT_1*%
X55893001Y-50921003D03*
%TO.P,J102,4,Pin_4*%
%TO.N,/MPPT_~{EN}*%
X55893001Y-48381002D03*
%TO.P,J102,5,Pin_5*%
%TO.N,/PV*%
X55893001Y-45841002D03*
%TD*%
D11*
%TO.P,J109,1,Pin_1*%
%TO.N,GND*%
X70500000Y-55300000D03*
D10*
%TO.P,J109,2,Pin_2*%
%TO.N,/MPPT_~{EN}*%
X70500000Y-52760000D03*
%TO.P,J109,3,Pin_3*%
%TO.N,+3V3*%
X70500000Y-50220001D03*
%TD*%
D11*
%TO.P,J138,1,Pin_1*%
%TO.N,/Ch_AL_1*%
X192900000Y-73800000D03*
D10*
%TO.P,J138,2,Pin_2*%
%TO.N,GND*%
X195440000Y-73800000D03*
%TD*%
D11*
%TO.P,J116,1,Pin_1*%
%TO.N,/switch_c1/PG*%
X108800000Y-100800000D03*
D10*
%TO.P,J116,2,Pin_2*%
%TO.N,GND*%
X108800000Y-98260000D03*
%TD*%
D11*
%TO.P,J104,1,Pin_1*%
%TO.N,GND*%
X85400000Y-100500000D03*
D10*
%TO.P,J104,2,Pin_2*%
%TO.N,/Battery*%
X85400000Y-97960000D03*
%TD*%
D11*
%TO.P,J115,1,Pin_1*%
%TO.N,/solar/VOUT*%
X77300000Y-85325000D03*
D10*
%TO.P,J115,2,Pin_2*%
%TO.N,/Battery*%
X77300000Y-87865000D03*
%TD*%
D11*
%TO.P,J133,1,Pin_1*%
%TO.N,/UniversalSwitch/VIN*%
X170734752Y-56221000D03*
D10*
%TO.P,J133,2,Pin_2*%
%TO.N,/dcdc/VOUT*%
X168194752Y-56221000D03*
%TD*%
D11*
%TO.P,J129,1,Pin_1*%
%TO.N,/dcdc/VOUT*%
X162600000Y-45625000D03*
D10*
%TO.P,J129,2,Pin_2*%
%TO.N,GND*%
X160060000Y-45625000D03*
%TD*%
D11*
%TO.P,J101,1,Pin_1*%
%TO.N,SDA*%
X81350000Y-149675000D03*
D10*
%TO.P,J101,2,Pin_2*%
%TO.N,SCL*%
X83890000Y-149675000D03*
%TD*%
D11*
%TO.P,J142,1,Pin_1*%
%TO.N,/ameas/VOUT*%
X207084752Y-66671000D03*
D10*
%TO.P,J142,2,Pin_2*%
%TO.N,GND*%
X209624752Y-66671000D03*
%TD*%
D11*
%TO.P,J134,1,Pin_1*%
%TO.N,/UniversalSwitch/VIN*%
X175000000Y-61421000D03*
D10*
%TO.P,J134,2,Pin_2*%
%TO.N,GND*%
X175000000Y-63961000D03*
%TD*%
D14*
%TO.P,U201,17,GND*%
%TO.N,GND*%
X88400000Y-51212498D03*
X88400000Y-52212498D03*
D12*
X88900000Y-51712498D03*
D14*
X89400000Y-51212498D03*
X89400000Y-52212498D03*
%TD*%
D11*
%TO.P,BT901,1,+*%
%TO.N,/battery/BATTERY_PACK*%
X80550000Y-124550000D03*
D10*
%TO.P,BT901,2,-*%
%TO.N,/battery/BATT_3*%
X78010000Y-124550000D03*
%TD*%
D11*
%TO.P,J147,1,Pin_1*%
%TO.N,/dcdc/VOUT*%
X168175000Y-59250000D03*
D10*
%TO.P,J147,2,Pin_2*%
%TO.N,/UniversalSwitch/VIN*%
X170715000Y-59250000D03*
%TD*%
D11*
%TO.P,J126,1,Pin_1*%
%TO.N,/dcdc/EN*%
X128450000Y-49550000D03*
D10*
%TO.P,J126,2,Pin_2*%
%TO.N,/dcdc/VIN*%
X125910000Y-49550000D03*
%TD*%
D11*
%TO.P,J106,1,Pin_1*%
%TO.N,/battery/HEATER*%
X97700000Y-127925000D03*
D10*
%TO.P,J106,2,Pin_2*%
%TO.N,GND*%
X95160000Y-127925000D03*
%TD*%
D11*
%TO.P,J110,1,Pin_1*%
%TO.N,/BATT_ALERT_1*%
X87150000Y-125200000D03*
D10*
%TO.P,J110,2,Pin_2*%
%TO.N,GND*%
X84610000Y-125200000D03*
%TD*%
D11*
%TO.P,J139,1,Pin_1*%
%TO.N,/ameas/VIN*%
X207050000Y-70525000D03*
D10*
%TO.P,J139,2,Pin_2*%
%TO.N,GND*%
X209590000Y-70525000D03*
%TD*%
D11*
%TO.P,J117,1,Pin_1*%
%TO.N,/switch/VIN1*%
X91050000Y-80125000D03*
D10*
%TO.P,J117,2,Pin_2*%
%TO.N,/solar/VOUT*%
X91050000Y-82665000D03*
%TD*%
D11*
%TO.P,J143,1,Pin_1*%
%TO.N,/AMEAS_1*%
X203650000Y-52000000D03*
D10*
%TO.P,J143,2,Pin_2*%
%TO.N,GND*%
X206190000Y-52000000D03*
%TD*%
D11*
%TO.P,J127,1,Pin_1*%
%TO.N,/dcdc/VOUT*%
X168250000Y-63600000D03*
D10*
%TO.P,J127,2,Pin_2*%
%TO.N,+5V*%
X170790000Y-63600000D03*
%TD*%
D11*
%TO.P,J107,1,Pin_1*%
%TO.N,+5V*%
X180400000Y-87900000D03*
D10*
%TO.P,J107,2,Pin_2*%
%TO.N,GND*%
X182940000Y-87900000D03*
%TD*%
D11*
%TO.P,J108,1,Pin_1*%
%TO.N,+5V*%
X186600000Y-87900000D03*
D10*
%TO.P,J108,2,Pin_2*%
%TO.N,GND*%
X189140000Y-87900000D03*
%TD*%
D11*
%TO.P,J128,1,Pin_1*%
%TO.N,VBUS*%
X126450000Y-95750000D03*
D10*
%TO.P,J128,2,Pin_2*%
%TO.N,GND*%
X128990000Y-95750000D03*
%TD*%
D11*
%TO.P,J144,1,Pin_1*%
%TO.N,/Battery*%
X73700000Y-87900000D03*
D10*
%TO.P,J144,2,Pin_2*%
%TO.N,/solar/VOUT*%
X73700000Y-85360000D03*
%TD*%
D15*
%TO.N,GND*%
X144800000Y-143400000D03*
%TO.N,/MCU/TX*%
X145700000Y-143500000D03*
%TO.N,GND*%
X101362500Y-74800000D03*
X167100000Y-135700000D03*
X194950000Y-125650000D03*
X195600000Y-126300000D03*
X171950000Y-137250000D03*
X173700000Y-137200000D03*
X173650000Y-139000000D03*
X171900000Y-139000000D03*
X170050000Y-137050000D03*
X170000000Y-139050000D03*
X170150000Y-135400000D03*
X171900000Y-135400000D03*
X173650000Y-135450000D03*
X147950000Y-137200000D03*
X147950000Y-135450000D03*
X147900000Y-139050000D03*
X146100000Y-137100000D03*
X149650000Y-137100000D03*
X146150000Y-138950000D03*
X149650000Y-139100000D03*
X149750000Y-135450000D03*
X146050000Y-135500000D03*
%TO.N,MCU_3V3*%
X181462500Y-117350000D03*
%TO.N,GND*%
X170550000Y-123450000D03*
X169250000Y-117850000D03*
X167500000Y-121200000D03*
X169900000Y-119900000D03*
X156400000Y-124350000D03*
%TO.N,MCU_3V3*%
X157500000Y-124500000D03*
X190550000Y-134800000D03*
%TO.N,GND*%
X181500000Y-110700000D03*
X179500000Y-112800000D03*
X182750000Y-117350000D03*
X180350000Y-126100000D03*
X182700000Y-126100000D03*
X181900000Y-130200000D03*
%TO.N,MCU_3V3*%
X180450000Y-130100000D03*
X181450000Y-126100000D03*
%TO.N,GND*%
X154600000Y-134250000D03*
X152750000Y-131550000D03*
X156150000Y-132850000D03*
%TO.N,MCU_3V3*%
X152700000Y-132648527D03*
X155225000Y-133325000D03*
%TO.N,GND*%
X124600000Y-121240000D03*
X127140000Y-116160000D03*
X129680000Y-118700000D03*
X127140000Y-118700000D03*
X124600000Y-118700000D03*
X127140000Y-121240000D03*
X124600000Y-116160000D03*
X129680000Y-121240000D03*
X67496051Y-90446051D03*
X65700000Y-85057898D03*
X69292102Y-85057898D03*
X67496051Y-86853949D03*
X65700000Y-88650000D03*
X69292102Y-88650000D03*
X67496051Y-83261846D03*
X63903949Y-86853949D03*
X71088154Y-86853949D03*
X131496051Y-134996051D03*
X129700000Y-129607898D03*
X133292102Y-129607898D03*
X131496051Y-131403949D03*
X129700000Y-133200000D03*
X133292102Y-133200000D03*
X131496051Y-127811846D03*
X127903949Y-131403949D03*
X135088154Y-131403949D03*
X125500000Y-46990000D03*
X128040000Y-41910000D03*
X130580000Y-44450000D03*
X128040000Y-44450000D03*
X125500000Y-44450000D03*
X128040000Y-46990000D03*
X130580000Y-41910000D03*
X125500000Y-41910000D03*
X130580000Y-46990000D03*
X120346051Y-94346051D03*
X118550000Y-88957898D03*
X122142102Y-88957898D03*
X120346051Y-90753949D03*
X118550000Y-92550000D03*
X122142102Y-92550000D03*
X120346051Y-87161846D03*
X116753949Y-90753949D03*
X123938154Y-90753949D03*
X55950000Y-76940000D03*
X58490000Y-71860000D03*
X61030000Y-74400000D03*
X58490000Y-74400000D03*
X55950000Y-74400000D03*
X58490000Y-76940000D03*
X61030000Y-71860000D03*
X55950000Y-71860000D03*
X61030000Y-76940000D03*
X75696051Y-102496051D03*
X73900000Y-97107898D03*
X77492102Y-97107898D03*
X75696051Y-98903949D03*
X73900000Y-100700000D03*
X77492102Y-100700000D03*
X75696051Y-95311846D03*
X72103949Y-98903949D03*
X79288154Y-98903949D03*
X171596051Y-45496051D03*
X169800000Y-40107898D03*
X173392102Y-40107898D03*
X171596051Y-41903949D03*
X169800000Y-43700000D03*
X173392102Y-43700000D03*
X171596051Y-38311846D03*
X168003949Y-41903949D03*
X175188154Y-41903949D03*
X162346051Y-82346051D03*
X160550000Y-76957898D03*
X164142102Y-76957898D03*
X162346051Y-78753949D03*
X160550000Y-80550000D03*
X164142102Y-80550000D03*
X162346051Y-75161846D03*
X158753949Y-78753949D03*
X165938154Y-78753949D03*
X123340000Y-78260000D03*
X125880000Y-73180000D03*
X125880000Y-80800000D03*
X130960000Y-73180000D03*
X130960000Y-83340000D03*
X133500000Y-80800000D03*
X133500000Y-73180000D03*
X130960000Y-75720000D03*
X128420000Y-80800000D03*
X133500000Y-75720000D03*
X130960000Y-78260000D03*
X128420000Y-78260000D03*
X130960000Y-80800000D03*
X128420000Y-83340000D03*
X123340000Y-80800000D03*
X123340000Y-75720000D03*
X125880000Y-83340000D03*
X123340000Y-83340000D03*
X133500000Y-78260000D03*
X125880000Y-75720000D03*
X128420000Y-75720000D03*
X125880000Y-78260000D03*
X128420000Y-73180000D03*
X133500000Y-83340000D03*
X123340000Y-73180000D03*
X197890000Y-82760000D03*
X200430000Y-77680000D03*
X200430000Y-85300000D03*
X205510000Y-77680000D03*
X205510000Y-87840000D03*
X208050000Y-85300000D03*
X208050000Y-77680000D03*
X205510000Y-80220000D03*
X202970000Y-85300000D03*
X208050000Y-80220000D03*
X205510000Y-82760000D03*
X202970000Y-82760000D03*
X205510000Y-85300000D03*
X202970000Y-87840000D03*
X197890000Y-85300000D03*
X197890000Y-80220000D03*
X200430000Y-87840000D03*
X197890000Y-87840000D03*
X208050000Y-82760000D03*
X200430000Y-80220000D03*
X202970000Y-80220000D03*
X200430000Y-82760000D03*
X202970000Y-77680000D03*
X208050000Y-87840000D03*
X197890000Y-77680000D03*
X199340000Y-112310000D03*
X201880000Y-107230000D03*
X201880000Y-114850000D03*
X206960000Y-107230000D03*
X206960000Y-117390000D03*
X209500000Y-114850000D03*
X209500000Y-107230000D03*
X206960000Y-109770000D03*
X204420000Y-114850000D03*
X209500000Y-109770000D03*
X206960000Y-112310000D03*
X204420000Y-112310000D03*
X206960000Y-114850000D03*
X204420000Y-117390000D03*
X199340000Y-114850000D03*
X199340000Y-109770000D03*
X201880000Y-117390000D03*
X199340000Y-117390000D03*
X209500000Y-112310000D03*
X201880000Y-109770000D03*
X204420000Y-109770000D03*
X201880000Y-112310000D03*
X204420000Y-107230000D03*
X209500000Y-117390000D03*
X199340000Y-107230000D03*
X120340000Y-145660000D03*
X122880000Y-140580000D03*
X122880000Y-148200000D03*
X127960000Y-140580000D03*
X127960000Y-150740000D03*
X130500000Y-148200000D03*
X130500000Y-140580000D03*
X127960000Y-143120000D03*
X125420000Y-148200000D03*
X130500000Y-143120000D03*
X127960000Y-145660000D03*
X125420000Y-145660000D03*
X127960000Y-148200000D03*
X125420000Y-150740000D03*
X120340000Y-148200000D03*
X120340000Y-143120000D03*
X122880000Y-150740000D03*
X120340000Y-150740000D03*
X130500000Y-145660000D03*
X122880000Y-143120000D03*
X125420000Y-143120000D03*
X122880000Y-145660000D03*
X125420000Y-140580000D03*
X130500000Y-150740000D03*
X120340000Y-140580000D03*
X61840000Y-115680000D03*
X59300000Y-115680000D03*
X56760000Y-115680000D03*
X54220000Y-115680000D03*
X64380000Y-113140000D03*
X61840000Y-113140000D03*
X59300000Y-113140000D03*
X56760000Y-113140000D03*
X54220000Y-113140000D03*
X64380000Y-110600000D03*
X61840000Y-110600000D03*
X59300000Y-110600000D03*
X56760000Y-110600000D03*
X54220000Y-110600000D03*
X64380000Y-108060000D03*
X61840000Y-108060000D03*
X59300000Y-108060000D03*
X56760000Y-108060000D03*
X54220000Y-108060000D03*
X64380000Y-105520000D03*
X61840000Y-105520000D03*
X59300000Y-105520000D03*
X56760000Y-105520000D03*
X54220000Y-105520000D03*
X64380000Y-115680000D03*
X150050000Y-121600000D03*
X157350000Y-118500000D03*
%TO.N,/Ch_AL_1*%
X157000000Y-119400000D03*
%TO.N,GND*%
X137950000Y-120850000D03*
X69850000Y-147550000D03*
X121000000Y-103450000D03*
X168050000Y-50550000D03*
X137601249Y-52437499D03*
X63030500Y-66075000D03*
X198012501Y-121450000D03*
X96250000Y-56350000D03*
X70850000Y-150050000D03*
X101912500Y-113862501D03*
X154800000Y-106750000D03*
X93350000Y-51212501D03*
X175750000Y-76450000D03*
X187450000Y-138850000D03*
X154600000Y-140100000D03*
X171950000Y-124400000D03*
X144400000Y-121600000D03*
X185234752Y-60933500D03*
X192087251Y-69846000D03*
X103900000Y-145288001D03*
X196300000Y-120250000D03*
X156200000Y-73150000D03*
X153650000Y-73200000D03*
X70405501Y-64375000D03*
X200684752Y-58116001D03*
X173000000Y-124500000D03*
X139125000Y-132350000D03*
X100637500Y-96100251D03*
X149200000Y-131650000D03*
X155200000Y-64300000D03*
X153200000Y-107250000D03*
X97900000Y-57025502D03*
X63030500Y-69675000D03*
X96950000Y-57000000D03*
X175675001Y-133400304D03*
X198900000Y-129800000D03*
X171700000Y-65300000D03*
X114942002Y-130625001D03*
X205100000Y-140100000D03*
X170350000Y-61400000D03*
X140850000Y-152250000D03*
X142950000Y-127350000D03*
X139600000Y-137500000D03*
X172675000Y-128200000D03*
X79212501Y-135000000D03*
X76405500Y-77612499D03*
X105550000Y-81350000D03*
X155850000Y-143750000D03*
X152700000Y-55500000D03*
X161300000Y-138650000D03*
X150100000Y-145262500D03*
X78737499Y-81600000D03*
X165283503Y-71546000D03*
X111100000Y-142700000D03*
X126600000Y-103762501D03*
X102637500Y-103700251D03*
X78468001Y-78475000D03*
X70900000Y-139050000D03*
X197175000Y-139400000D03*
X200684752Y-60091000D03*
X116600001Y-147075001D03*
X153650000Y-47700000D03*
X93450000Y-141587499D03*
X191500000Y-137650000D03*
X167950000Y-147600000D03*
X81450000Y-73850000D03*
X67647501Y-45624999D03*
X169700000Y-65300000D03*
X156200000Y-64850000D03*
X185250000Y-139600000D03*
X108500000Y-69000000D03*
X88600000Y-47800000D03*
X165500000Y-120600000D03*
X146034752Y-61121000D03*
X147262501Y-128250000D03*
X186500000Y-57000000D03*
X106000000Y-141487499D03*
X176400000Y-124300000D03*
X159968750Y-94137500D03*
X65042999Y-81275000D03*
X130818750Y-103762501D03*
X90400000Y-50200000D03*
X206650000Y-56646000D03*
X106750000Y-72912500D03*
X178350000Y-69650000D03*
X108000000Y-83200000D03*
X162900000Y-117250000D03*
X112318000Y-74293499D03*
X116650000Y-145375001D03*
X191972251Y-57121000D03*
X188210000Y-91887499D03*
X76493001Y-69775000D03*
X101350000Y-72912500D03*
X129250000Y-91850000D03*
X126750000Y-69112501D03*
X104099000Y-110274998D03*
X107450000Y-115762501D03*
X158600000Y-145700000D03*
X155750000Y-107300000D03*
X83500000Y-59000000D03*
X112385500Y-88073499D03*
X180088679Y-73858500D03*
X185503679Y-73858500D03*
X113248002Y-85910999D03*
X96237000Y-110712501D03*
X176300000Y-74100000D03*
X65674999Y-139050001D03*
X188784752Y-60908500D03*
X99530501Y-87518501D03*
X177752500Y-108057502D03*
X129450000Y-70950000D03*
X189165001Y-109782500D03*
X71450000Y-147850000D03*
X165700000Y-134150000D03*
X99550000Y-72862501D03*
X91462500Y-56312498D03*
X153700000Y-135200000D03*
X178500000Y-56950000D03*
X130769999Y-55331250D03*
X98187000Y-146988001D03*
X153000000Y-138200000D03*
X150900000Y-132700000D03*
X149137499Y-128250000D03*
X132516497Y-69929000D03*
X70350000Y-149300000D03*
X171500000Y-105300000D03*
X98600000Y-142750000D03*
X170100000Y-145200000D03*
X132756249Y-105700000D03*
X152250000Y-106750000D03*
X156200000Y-56050000D03*
X181634752Y-60933500D03*
X175550000Y-128500000D03*
X104950000Y-72912500D03*
X62705501Y-77612500D03*
X173600000Y-115200000D03*
X190197253Y-69821000D03*
X137561250Y-65700001D03*
X191500000Y-139950000D03*
X65674999Y-132250001D03*
X137900000Y-124650000D03*
X170930000Y-117330000D03*
X70900000Y-142450000D03*
X178250000Y-138250000D03*
X152800000Y-81350000D03*
X192595235Y-129645235D03*
X170100000Y-146050000D03*
X183434752Y-60933500D03*
X100250000Y-122000000D03*
X84805501Y-64475000D03*
X179450000Y-120100000D03*
X181903679Y-73858500D03*
X176750000Y-141400000D03*
X101050000Y-56675502D03*
X161250000Y-141600000D03*
X141900000Y-128000000D03*
X184650000Y-67050000D03*
X179249752Y-63483499D03*
X162668750Y-107262501D03*
X153250000Y-99000000D03*
X191350000Y-143650000D03*
X156300000Y-81950000D03*
X117012500Y-56112498D03*
X162287500Y-130200000D03*
X182800000Y-54750000D03*
X140250000Y-120100000D03*
X115217000Y-133425001D03*
X126250000Y-55262501D03*
X132166497Y-56329000D03*
X85300000Y-48537499D03*
X128000000Y-56450000D03*
X72150000Y-150050000D03*
X124700000Y-113950000D03*
X152600000Y-64300000D03*
X206500000Y-128300000D03*
X78750000Y-136550000D03*
X105762501Y-62050000D03*
X166000000Y-137650000D03*
X76493001Y-66175000D03*
X179300000Y-118850000D03*
X102592001Y-130688001D03*
X162668750Y-93862501D03*
X177900000Y-115550000D03*
X204650000Y-139150000D03*
X202477501Y-141662501D03*
X202477501Y-143462501D03*
X103900000Y-148888001D03*
X65610002Y-42460000D03*
X116650000Y-138375001D03*
X173730000Y-120600000D03*
X149137500Y-130150000D03*
X96250000Y-111600000D03*
X132301249Y-49775000D03*
X184355000Y-142197501D03*
X166050000Y-121650000D03*
X98612500Y-141888001D03*
X177800000Y-135550000D03*
X205100000Y-137500000D03*
X172675000Y-126400000D03*
X189165001Y-107272500D03*
X135450000Y-121600000D03*
X175850000Y-116000000D03*
X155400000Y-81450000D03*
X129000000Y-57000000D03*
X204650000Y-136550000D03*
X131000000Y-84837499D03*
X120550000Y-121450000D03*
X109400000Y-109850000D03*
X139125000Y-130400000D03*
X183100000Y-132700000D03*
X133038748Y-57600000D03*
X109124999Y-115762501D03*
X163750000Y-128050000D03*
X120550000Y-123300000D03*
X109375000Y-110675501D03*
X182750000Y-130800000D03*
X82600000Y-69150000D03*
X79000000Y-49224998D03*
X108550000Y-72912500D03*
X152250000Y-98450000D03*
X177600000Y-121550000D03*
X66787500Y-62650000D03*
X114462501Y-115762502D03*
X193550000Y-137850000D03*
X120750000Y-125450000D03*
X96250000Y-109850000D03*
X116148001Y-85636000D03*
X96287500Y-115762501D03*
X117000000Y-54174999D03*
X83037499Y-52312498D03*
X184810000Y-92200000D03*
X166550000Y-142450000D03*
X185510000Y-93150000D03*
X96462001Y-146988001D03*
X101330501Y-87568500D03*
X76542999Y-64475000D03*
X167324998Y-119050000D03*
X101912500Y-110262501D03*
X163350000Y-72312501D03*
X153700000Y-81900000D03*
X172900000Y-121450000D03*
X198152500Y-135530000D03*
X153650000Y-64850000D03*
X187687500Y-125850000D03*
X152550000Y-134150000D03*
X156200000Y-47700000D03*
X163534752Y-57975502D03*
X116080501Y-71656000D03*
X172800000Y-129300000D03*
X105550000Y-67450000D03*
X109400000Y-111500000D03*
X178934752Y-50595998D03*
X113650000Y-57700000D03*
X87100000Y-55450000D03*
X89250000Y-140737499D03*
X100700000Y-49300000D03*
X152750000Y-89700000D03*
X68643000Y-74475000D03*
X153400000Y-113350000D03*
X161200000Y-152150000D03*
X148500000Y-144900000D03*
X63080499Y-64375000D03*
X184450000Y-54750000D03*
X58350000Y-42200000D03*
X100900000Y-103700250D03*
X76493001Y-73175000D03*
X189165001Y-104762500D03*
X110625000Y-147075001D03*
X59700000Y-44050000D03*
X109320798Y-81214416D03*
X79262500Y-133200000D03*
X101912500Y-106862501D03*
X108800001Y-147075001D03*
X98650000Y-141050000D03*
X195350000Y-143050000D03*
X94462501Y-115762501D03*
X114512500Y-108762501D03*
X137250000Y-100274998D03*
X128350000Y-91350000D03*
X189103679Y-73858500D03*
X103900000Y-139988001D03*
X156300000Y-90200000D03*
X174650000Y-146150000D03*
X155800000Y-99000000D03*
X101862501Y-115562501D03*
X103850000Y-81350000D03*
X183000000Y-137450000D03*
X104743501Y-67431000D03*
X96850000Y-87550000D03*
X136450000Y-124300000D03*
X164800000Y-144800000D03*
X104743001Y-81368500D03*
X102847999Y-133473001D03*
X183500000Y-141350000D03*
X177500000Y-140550000D03*
X77000000Y-45649997D03*
X59700000Y-45837499D03*
X136231250Y-84800000D03*
X179100000Y-79100000D03*
X154800000Y-98500000D03*
X108530501Y-87568500D03*
X74250000Y-63350000D03*
X152650000Y-72650000D03*
X98900000Y-57025502D03*
X170950000Y-115300000D03*
X180750000Y-69500000D03*
X100000000Y-138300000D03*
X111112500Y-141888001D03*
X85250000Y-91200000D03*
X177800584Y-132450000D03*
X139500000Y-127500000D03*
X178100000Y-60921000D03*
X181000000Y-72900000D03*
X178100000Y-122900000D03*
X121350000Y-113900000D03*
X63030500Y-71375000D03*
X116650000Y-141775001D03*
X95050000Y-51300000D03*
X135631250Y-97800000D03*
X146356250Y-95900000D03*
X114512500Y-114062501D03*
X161800000Y-123300000D03*
X131218750Y-90262501D03*
X171960936Y-132223442D03*
X183850000Y-107200000D03*
X183703679Y-73871000D03*
X155400000Y-89700000D03*
X174600000Y-119700000D03*
X155200000Y-55500000D03*
X178400000Y-73808501D03*
X128700000Y-105312500D03*
X112650000Y-138500000D03*
X113180501Y-71930999D03*
X103900000Y-141688001D03*
X155200000Y-47200000D03*
X204315000Y-143500000D03*
X98362001Y-137438000D03*
X141150000Y-140450000D03*
X114512500Y-110462501D03*
X132718750Y-84787500D03*
X68650000Y-70700000D03*
X63030500Y-73075000D03*
X133256249Y-92300000D03*
X130961250Y-69125003D03*
X147262501Y-126250000D03*
X140300000Y-135500000D03*
X79750000Y-137100000D03*
X179834752Y-60933500D03*
X97950000Y-103650000D03*
X96200000Y-55525502D03*
X189997253Y-57121000D03*
X67050000Y-73200000D03*
X90998000Y-110374998D03*
X89812500Y-58112498D03*
X174650000Y-131300000D03*
X82650000Y-152350000D03*
X175550000Y-126400000D03*
X76493001Y-71475000D03*
X68663000Y-69750000D03*
X166850000Y-146150000D03*
X184347499Y-97450000D03*
X109230501Y-67256000D03*
X193550000Y-128600000D03*
X114512500Y-117462501D03*
X85362500Y-46650000D03*
X182950000Y-67050000D03*
X153750000Y-56050000D03*
X105662501Y-75850000D03*
X135873750Y-65062502D03*
X160734752Y-58250500D03*
X162287500Y-132150000D03*
X71550000Y-149350000D03*
X186900000Y-67300000D03*
X103900000Y-138288001D03*
X135913749Y-51487500D03*
X101912500Y-117262501D03*
X117279500Y-134287502D03*
X88250000Y-70912501D03*
X166300000Y-128050000D03*
X132261250Y-63250002D03*
X132118750Y-97787500D03*
X82555501Y-69975000D03*
X159968750Y-107537500D03*
X152700000Y-47200000D03*
X208684752Y-58291000D03*
X190550000Y-124250000D03*
X155200000Y-72650000D03*
X203200000Y-123600000D03*
X103900000Y-67450000D03*
X104930501Y-87568500D03*
X175600000Y-145512500D03*
X183634752Y-54771000D03*
X183784752Y-66996000D03*
X160550000Y-72587500D03*
X74300000Y-70712501D03*
X186100000Y-61800000D03*
X99530501Y-79762501D03*
X103850001Y-146988001D03*
X111100000Y-141000000D03*
X163550000Y-104650000D03*
X139850000Y-143300000D03*
X147262501Y-130150000D03*
X83018002Y-64475000D03*
X79200001Y-141950001D03*
X99025000Y-97995251D03*
X106730501Y-87568500D03*
X98500000Y-122950000D03*
X86000000Y-53750000D03*
X137818750Y-87037499D03*
X128400000Y-70400000D03*
X163950000Y-141100000D03*
X153800000Y-90200000D03*
X110800001Y-137375001D03*
X114512500Y-107062501D03*
X133298749Y-71262502D03*
X68650000Y-68900000D03*
X166500000Y-69650000D03*
X82550000Y-70800000D03*
X64768001Y-78475000D03*
X116650000Y-140075001D03*
X101912500Y-108562501D03*
X99530501Y-65418501D03*
X163400000Y-149800000D03*
X109081250Y-106181251D03*
X182600000Y-60050000D03*
X159750000Y-118600000D03*
X139850000Y-124450000D03*
X114200000Y-58750000D03*
X96062501Y-106462501D03*
X184347499Y-95750000D03*
%TO.N,Net-(U201-SRP)*%
X107012500Y-46250000D03*
X95300000Y-52112498D03*
%TO.N,+5V*%
X196287499Y-121450000D03*
X168550000Y-51350000D03*
X121400000Y-102600000D03*
X82622500Y-58124998D03*
X197762500Y-129750000D03*
X171450000Y-106432500D03*
X191350000Y-123287500D03*
X162668750Y-105537500D03*
X99137499Y-103700250D03*
X59700000Y-42324998D03*
X180262500Y-106332500D03*
%TO.N,/MPPT_~{EN}*%
X160550000Y-118050000D03*
%TO.N,/SOL_STAT_1*%
X150600000Y-120800000D03*
X96575000Y-88375000D03*
X139750000Y-120800000D03*
X82600000Y-56250000D03*
%TO.N,/SWITCH_ALERT*%
X107493501Y-68655500D03*
X107193501Y-82655500D03*
%TO.N,/Ch_EN_12*%
X167100000Y-140200000D03*
X180600000Y-68300000D03*
X177650000Y-68250000D03*
X187303679Y-73858500D03*
X165200000Y-138100000D03*
%TO.N,/Ch_EN_11*%
X141150000Y-127500000D03*
X186984752Y-60933500D03*
X179200000Y-79950000D03*
X178934752Y-55921000D03*
X141150000Y-136050000D03*
%TO.N,/Ch_AL_1*%
X141912500Y-141000000D03*
X187000000Y-68321000D03*
X186334752Y-55921000D03*
X163750000Y-117800000D03*
X143600000Y-126350000D03*
%TO.N,Net-(Q202-G)*%
X88650527Y-48708426D03*
X100700000Y-50275502D03*
%TO.N,Net-(Q203-G)*%
X91400000Y-49212498D03*
X100700000Y-55788000D03*
%TO.N,MCU_3V3*%
X201900000Y-137450000D03*
X200752499Y-141732501D03*
X168750000Y-120650000D03*
X169050000Y-119050000D03*
X201500000Y-136600000D03*
X170612500Y-124600000D03*
X169200000Y-121550000D03*
%TO.N,Net-(J1303-Pin_3)*%
X150300000Y-143437500D03*
%TO.N,Net-(U1304-AVCC)*%
X167750000Y-133700000D03*
X168837499Y-130000000D03*
%TO.N,Net-(U1305-AVCC)*%
X143100000Y-134250000D03*
X145537499Y-130150000D03*
%TO.N,/battery/DSG*%
X62137499Y-146862501D03*
X68800000Y-142000000D03*
%TO.N,/battery/CHG*%
X69750000Y-142500000D03*
X75850000Y-149850001D03*
%TO.N,+3V3*%
X175600000Y-75050000D03*
X154250000Y-113750000D03*
X99700000Y-122950000D03*
X121550000Y-114850000D03*
X124960999Y-114860999D03*
%TO.N,SDA*%
X153350000Y-137400000D03*
X156500000Y-144700000D03*
X177606336Y-137356336D03*
X72050000Y-142200000D03*
%TO.N,SCL*%
X153350000Y-136200000D03*
X157600000Y-145000000D03*
X83300000Y-153000000D03*
X177600000Y-136500000D03*
X73300000Y-142050001D03*
%TO.N,/SOL_STAT_2*%
X138600000Y-127500000D03*
X85050000Y-92050000D03*
X85512500Y-54500000D03*
X140650000Y-137500000D03*
X87912500Y-54900000D03*
%TO.N,/switch_c1/PG*%
X97400000Y-107950251D03*
X110500000Y-107950251D03*
%TO.N,/UniversalSwitch/AMEAS*%
X181634752Y-59108500D03*
X181903679Y-72033500D03*
%TO.N,/battery/Switch_Batt_Heater/PG*%
X112437500Y-139375001D03*
X99887500Y-139188001D03*
%TO.N,/SOL_EN_1*%
X73800000Y-62550000D03*
X81193001Y-64475000D03*
X70380999Y-62575000D03*
X139850000Y-142400000D03*
%TO.N,/solar/Switch_SOL_1/PG*%
X67543000Y-72475000D03*
X81405501Y-72875000D03*
%TO.N,/SW_BATT_11*%
X121250000Y-122250000D03*
X171400000Y-116050000D03*
X136100000Y-122250000D03*
X100087500Y-117262501D03*
X182400000Y-136700000D03*
X173450000Y-116050000D03*
%TO.N,/switch/EN*%
X99537500Y-74800000D03*
X97800000Y-79812500D03*
%TO.N,/HEAT_BATT_1*%
X112450000Y-147075001D03*
X170200000Y-144100000D03*
X141300000Y-153000000D03*
X100012500Y-146988001D03*
%TO.N,/BATT_ALERT_1*%
X137050000Y-123450000D03*
X160750000Y-123450000D03*
X68737500Y-134450001D03*
X121350000Y-124000000D03*
%TO.N,/MCU/CS_1*%
X164600000Y-141750000D03*
X162000000Y-151600000D03*
%TO.N,/MCU/SCK*%
X162700000Y-150500000D03*
X165600000Y-142350000D03*
%TO.N,/MCU/MOSI*%
X175590000Y-142150000D03*
X165800000Y-145100000D03*
%TO.N,/MCU/MISO*%
X176400000Y-142800000D03*
X166700000Y-145200000D03*
%TO.N,/MCU/TX*%
X173600000Y-146800000D03*
X185996252Y-140300468D03*
X191350000Y-125112500D03*
X171700000Y-143700000D03*
%TO.N,/MCU/RX*%
X192900000Y-127800000D03*
X186800000Y-139500000D03*
%TO.N,Net-(J1302-Pin_2)*%
X182850000Y-142150000D03*
%TO.N,Net-(J1303-Pin_2)*%
X148701042Y-143998958D03*
%TO.N,/MCU/RS_DIR*%
X150200000Y-131300000D03*
X175700000Y-127400000D03*
%TO.N,/AMEAS_9*%
X175450000Y-125350000D03*
X121350000Y-126100000D03*
X137250000Y-125500000D03*
%TO.N,/MCU/ADC_1*%
X167350000Y-128550000D03*
X166850000Y-134050000D03*
%TO.N,/MCU/ADC_2*%
X164950000Y-128450000D03*
X166000000Y-135500000D03*
%TO.N,/MCU/CAN_~{INT}*%
X168600000Y-146950000D03*
X194100000Y-143400000D03*
%TO.N,/MCU/CAN_~{WKRQ}*%
X193200000Y-136800000D03*
X169400000Y-146550000D03*
%TO.N,/MCU/CAN_~{RST}*%
X177000000Y-139800000D03*
X182250000Y-132200000D03*
%TO.N,/MCU/CAN_CLK*%
X183700000Y-132000000D03*
X172350000Y-131300000D03*
%TO.N,/MCU/AMUX_1*%
X177000000Y-132750000D03*
X177500000Y-120400000D03*
%TO.N,/MCU/AMUX_0*%
X177750000Y-133450000D03*
X178600000Y-120400000D03*
%TO.N,/MCU/AMUX_EN*%
X178450000Y-118850000D03*
X173650000Y-129800000D03*
%TO.N,/MCU/AMUX_2*%
X178000000Y-124000000D03*
X176300000Y-131850000D03*
%TO.N,/AMEAS_2*%
X175000000Y-116800000D03*
X77000000Y-52800000D03*
%TO.N,/Ch_V_1*%
X165300000Y-69700000D03*
X174400000Y-124400000D03*
%TD*%
D16*
%TO.N,SCL*%
X135100000Y-154100000D02*
X84200000Y-154100000D01*
X84200000Y-154100000D02*
X83300000Y-153200000D01*
X83300000Y-153200000D02*
X83300000Y-153000000D01*
X139800000Y-149400000D02*
X135100000Y-154100000D01*
X153200000Y-149400000D02*
X139800000Y-149400000D01*
X157600000Y-145000000D02*
X153200000Y-149400000D01*
%TO.N,SDA*%
X84875000Y-153200000D02*
X81350000Y-149675000D01*
X134400000Y-153200000D02*
X84875000Y-153200000D01*
X152600000Y-148600000D02*
X139000000Y-148600000D01*
X139000000Y-148600000D02*
X134400000Y-153200000D01*
X156500000Y-144700000D02*
X152600000Y-148600000D01*
%TO.N,/switch/EN*%
X97830501Y-79681999D02*
X97830501Y-76656999D01*
X97800000Y-79712500D02*
X97830501Y-79681999D01*
X97830501Y-76656999D02*
X99537500Y-74950000D01*
X97800000Y-79812500D02*
X97800000Y-79712500D01*
X99537500Y-74950000D02*
X99537500Y-74800000D01*
%TO.N,/MCU/TX*%
X145850000Y-143850000D02*
X145850000Y-145425000D01*
X145700000Y-143700000D02*
X145850000Y-143850000D01*
X145700000Y-143500000D02*
X145700000Y-143700000D01*
%TO.N,Net-(J1303-Pin_2)*%
X148701042Y-143098958D02*
X152650000Y-139150000D01*
X152650000Y-139150000D02*
X159132500Y-139150000D01*
X148701042Y-143998958D02*
X148701042Y-143098958D01*
%TO.N,Net-(J1303-Pin_3)*%
X150300000Y-143437500D02*
X150300000Y-143300000D01*
X151415000Y-142185000D02*
X159627500Y-142185000D01*
X150300000Y-143300000D02*
X151415000Y-142185000D01*
D17*
%TO.N,+3V3*%
X194400000Y-87900000D02*
X194400000Y-93900000D01*
X191000000Y-84500000D02*
X194400000Y-87900000D01*
X180300000Y-84500000D02*
X191000000Y-84500000D01*
X177150000Y-81350000D02*
X180300000Y-84500000D01*
X177150000Y-76600000D02*
X177150000Y-81350000D01*
X175234752Y-54781000D02*
X173300000Y-56715752D01*
X173300000Y-72750000D02*
X177150000Y-76600000D01*
X194400000Y-93900000D02*
X192875000Y-95425000D01*
X192875000Y-95425000D02*
X192325000Y-95425000D01*
X173300000Y-56715752D02*
X173300000Y-72750000D01*
%TO.N,+5V*%
X181400000Y-86300000D02*
X180400000Y-87300000D01*
X185500000Y-86300000D02*
X181400000Y-86300000D01*
X186570000Y-87370000D02*
X185500000Y-86300000D01*
X180370000Y-87930000D02*
X180370000Y-106225000D01*
X180370000Y-106225000D02*
X180262500Y-106332500D01*
%TO.N,+3V3*%
X70500000Y-50020001D02*
X60679999Y-40200000D01*
%TO.N,+5V*%
X69750000Y-58550000D02*
X79400000Y-58550000D01*
X63800000Y-52600000D02*
X69750000Y-58550000D01*
X59700000Y-42477497D02*
X63800000Y-46577497D01*
X63800000Y-46577497D02*
X63800000Y-52600000D01*
%TO.N,+3V3*%
X67175500Y-40200000D02*
X60679999Y-40200000D01*
X74400000Y-38550000D02*
X68825500Y-38550000D01*
X76550000Y-40700000D02*
X74400000Y-38550000D01*
X164250000Y-40700000D02*
X76550000Y-40700000D01*
X173500000Y-53046248D02*
X173500000Y-49950000D01*
X174993752Y-54540000D02*
X173500000Y-53046248D01*
X173500000Y-49950000D02*
X164250000Y-40700000D01*
X68825500Y-38550000D02*
X67175500Y-40200000D01*
D16*
%TO.N,/UniversalSwitch/AMEAS*%
X175621000Y-70721000D02*
X179650000Y-70721000D01*
%TO.N,/AMEAS_2*%
X163875000Y-42975000D02*
X82237500Y-42975000D01*
X82237500Y-42975000D02*
X77000000Y-48212500D01*
X172500000Y-51600000D02*
X163875000Y-42975000D01*
X172500000Y-73600000D02*
X172500000Y-51600000D01*
X175000000Y-76100000D02*
X172500000Y-73600000D01*
X175000000Y-116800000D02*
X175000000Y-76100000D01*
%TO.N,/MCU/CS_1*%
X162000000Y-144350000D02*
X162000000Y-151600000D01*
X164600000Y-141750000D02*
X162000000Y-144350000D01*
%TO.N,/MCU/SCK*%
X162700000Y-145250000D02*
X162700000Y-150500000D01*
X165600000Y-142350000D02*
X162700000Y-145250000D01*
%TO.N,/Ch_AL_1*%
X191713752Y-73800000D02*
X192900000Y-73800000D01*
X187000000Y-69086248D02*
X191713752Y-73800000D01*
X187000000Y-68321000D02*
X187000000Y-69086248D01*
%TO.N,/SW_BATT_11*%
X108350000Y-122650000D02*
X107060000Y-121360000D01*
X114850000Y-122250000D02*
X114450000Y-122650000D01*
X114450000Y-122650000D02*
X108350000Y-122650000D01*
X121250000Y-122250000D02*
X114850000Y-122250000D01*
D17*
%TO.N,+3V3*%
X111600251Y-118650000D02*
X109590000Y-120660251D01*
X115900000Y-118650000D02*
X111600251Y-118650000D01*
X119700000Y-114850000D02*
X115900000Y-118650000D01*
X121550000Y-114850000D02*
X119700000Y-114850000D01*
D16*
%TO.N,/SW_BATT_11*%
X103475250Y-120650251D02*
X100087500Y-117262501D01*
X106650251Y-120650251D02*
X103475250Y-120650251D01*
%TO.N,/SOL_STAT_1*%
X89150000Y-60450000D02*
X84950000Y-56250000D01*
X92650000Y-84450000D02*
X92650000Y-78050000D01*
X92650000Y-78050000D02*
X89150000Y-74550000D01*
X96575000Y-88375000D02*
X92650000Y-84450000D01*
X89150000Y-74550000D02*
X89150000Y-60450000D01*
X84950000Y-56250000D02*
X82600000Y-56250000D01*
D17*
%TO.N,+5V*%
X197775000Y-129737500D02*
X197775000Y-122937501D01*
X197775000Y-122937501D02*
X196287499Y-121450000D01*
X197762500Y-129750000D02*
X197775000Y-129737500D01*
D16*
%TO.N,/MCU/TX*%
X186000000Y-140300000D02*
X185996720Y-140300000D01*
X191350000Y-125112500D02*
X191350000Y-128300000D01*
X185996720Y-140300000D02*
X185996252Y-140300468D01*
X186000000Y-133650000D02*
X186000000Y-140300000D01*
X191350000Y-128300000D02*
X186000000Y-133650000D01*
D17*
%TO.N,+5V*%
X193325000Y-121450000D02*
X191487500Y-123287500D01*
X191487500Y-123287500D02*
X191350000Y-123287500D01*
%TO.N,MCU_3V3*%
X168750000Y-119350000D02*
X168750000Y-120650000D01*
X169050000Y-119050000D02*
X168750000Y-119350000D01*
%TO.N,+5V*%
X169100000Y-61450000D02*
X170740000Y-63090000D01*
X167400000Y-61450000D02*
X169100000Y-61450000D01*
X166350000Y-60400000D02*
X167400000Y-61450000D01*
X166350000Y-53550000D02*
X166350000Y-60400000D01*
X168550000Y-51350000D02*
X166350000Y-53550000D01*
D16*
%TO.N,/SOL_EN_1*%
X69405999Y-61600000D02*
X70380999Y-62575000D01*
X61574501Y-61600000D02*
X69405999Y-61600000D01*
X55975503Y-56001002D02*
X61574501Y-61600000D01*
%TO.N,/BATT_ALERT_1*%
X71650000Y-131650000D02*
X68849999Y-134450001D01*
X78700000Y-131650000D02*
X71650000Y-131650000D01*
X85225000Y-127400000D02*
X82950000Y-127400000D01*
X82950000Y-127400000D02*
X78700000Y-131650000D01*
X88625000Y-124000000D02*
X85225000Y-127400000D01*
X68849999Y-134450001D02*
X68737500Y-134450001D01*
X121350000Y-124000000D02*
X88625000Y-124000000D01*
%TO.N,/AMEAS_9*%
X90574515Y-126100000D02*
X121350000Y-126100000D01*
X87324515Y-129350000D02*
X90574515Y-126100000D01*
%TO.N,Net-(U1304-AVCC)*%
X167750000Y-133700000D02*
X168837499Y-132612501D01*
X168837499Y-132612501D02*
X168837499Y-130000000D01*
%TO.N,/MCU/ADC_1*%
X166850000Y-129000000D02*
X166850000Y-134050000D01*
X167300000Y-128550000D02*
X166850000Y-129000000D01*
X167350000Y-128550000D02*
X167300000Y-128550000D01*
%TO.N,/MCU/ADC_2*%
X164950000Y-134600000D02*
X164950000Y-128450000D01*
X165850000Y-135500000D02*
X164950000Y-134600000D01*
X166000000Y-135500000D02*
X165850000Y-135500000D01*
%TO.N,/MCU/CAN_CLK*%
X183150000Y-131450000D02*
X183700000Y-132000000D01*
X178100000Y-134750000D02*
X181400000Y-131450000D01*
X181400000Y-131450000D02*
X183150000Y-131450000D01*
X174700000Y-134000000D02*
X175450000Y-134750000D01*
X172750000Y-132650000D02*
X174100000Y-134000000D01*
X174100000Y-134000000D02*
X174700000Y-134000000D01*
X172750000Y-131700000D02*
X172750000Y-132650000D01*
X172350000Y-131300000D02*
X172750000Y-131700000D01*
X175450000Y-134750000D02*
X178100000Y-134750000D01*
%TO.N,/MCU/MOSI*%
X185885001Y-144100000D02*
X189725000Y-140260001D01*
X178900000Y-144100000D02*
X185885001Y-144100000D01*
X176950000Y-142150000D02*
X178900000Y-144100000D01*
X175590000Y-142150000D02*
X176950000Y-142150000D01*
X166600000Y-144300000D02*
X165800000Y-145100000D01*
X167437328Y-144300000D02*
X166600000Y-144300000D01*
X169537328Y-142200000D02*
X167437328Y-144300000D01*
X175300000Y-142200000D02*
X169537328Y-142200000D01*
X175550000Y-142190000D02*
X175310000Y-142190000D01*
X175310000Y-142190000D02*
X175300000Y-142200000D01*
%TO.N,/Ch_EN_12*%
X167100000Y-140200000D02*
X167100000Y-140000000D01*
X167100000Y-140000000D02*
X165200000Y-138100000D01*
%TO.N,SCL*%
X153800000Y-136200000D02*
X153350000Y-136200000D01*
X154900000Y-135100000D02*
X153800000Y-136200000D01*
X161100000Y-135100000D02*
X154900000Y-135100000D01*
X162925000Y-136925000D02*
X161100000Y-135100000D01*
X162925000Y-138575000D02*
X162925000Y-136925000D01*
X163800000Y-139450000D02*
X162925000Y-138575000D01*
X164900000Y-139450000D02*
X163800000Y-139450000D01*
X166550000Y-141100000D02*
X164900000Y-139450000D01*
X174450000Y-140300000D02*
X168400000Y-140300000D01*
X167600000Y-141100000D02*
X166550000Y-141100000D01*
X176650000Y-137250000D02*
X176650000Y-138100000D01*
X176650000Y-138100000D02*
X174450000Y-140300000D01*
X177400000Y-136500000D02*
X176650000Y-137250000D01*
X168400000Y-140300000D02*
X167600000Y-141100000D01*
X177600000Y-136500000D02*
X177400000Y-136500000D01*
%TO.N,SDA*%
X153550000Y-137400000D02*
X153350000Y-137400000D01*
X155350000Y-135600000D02*
X153550000Y-137400000D01*
X160700000Y-135600000D02*
X155350000Y-135600000D01*
X162150000Y-137050000D02*
X160700000Y-135600000D01*
X163200000Y-140100000D02*
X162150000Y-139050000D01*
X167750000Y-141650000D02*
X166300000Y-141650000D01*
X168600000Y-140800000D02*
X167750000Y-141650000D01*
X174800000Y-140800000D02*
X168600000Y-140800000D01*
X164750000Y-140100000D02*
X163200000Y-140100000D01*
X177606336Y-137993664D02*
X174800000Y-140800000D01*
X162150000Y-139050000D02*
X162150000Y-137050000D01*
X166300000Y-141650000D02*
X164750000Y-140100000D01*
X177606336Y-137356336D02*
X177606336Y-137993664D01*
%TO.N,/AMEAS_9*%
X175300000Y-125500000D02*
X137250000Y-125500000D01*
X175450000Y-125350000D02*
X175300000Y-125500000D01*
%TO.N,/MCU/RS_DIR*%
X150000000Y-129800000D02*
X150000000Y-131100000D01*
X150600000Y-129200000D02*
X150000000Y-129800000D01*
X150000000Y-131100000D02*
X150200000Y-131300000D01*
X154550000Y-126750000D02*
X152100000Y-129200000D01*
X169500000Y-126750000D02*
X154550000Y-126750000D01*
X170150000Y-127400000D02*
X169500000Y-126750000D01*
X175700000Y-127400000D02*
X170150000Y-127400000D01*
X152100000Y-129200000D02*
X150600000Y-129200000D01*
%TO.N,Net-(Q203-G)*%
X94300000Y-53912498D02*
X91400000Y-51012498D01*
X98812498Y-53912498D02*
X94300000Y-53912498D01*
X100688000Y-55788000D02*
X98812498Y-53912498D01*
X91400000Y-51012498D02*
X91400000Y-49212498D01*
X100700000Y-55788000D02*
X100688000Y-55788000D01*
D17*
%TO.N,MCU_3V3*%
X181462500Y-117350000D02*
X181462500Y-111687500D01*
X169200000Y-123200000D02*
X169200000Y-123187500D01*
X167900000Y-124500000D02*
X169200000Y-123200000D01*
X157500000Y-124500000D02*
X167900000Y-124500000D01*
X201900000Y-140585000D02*
X200752499Y-141732501D01*
X201900000Y-137450000D02*
X201900000Y-140585000D01*
X201900000Y-137000000D02*
X201500000Y-136600000D01*
X201900000Y-137450000D02*
X201900000Y-137000000D01*
X199700000Y-134800000D02*
X201500000Y-136600000D01*
X190550000Y-134800000D02*
X199700000Y-134800000D01*
X181450000Y-129100000D02*
X180450000Y-130100000D01*
X181450000Y-126100000D02*
X181450000Y-129100000D01*
X169200000Y-123187500D02*
X170612500Y-124600000D01*
X169200000Y-121550000D02*
X169200000Y-123187500D01*
X168750000Y-121100000D02*
X169200000Y-121550000D01*
X168750000Y-120650000D02*
X168750000Y-121100000D01*
X154548527Y-132648527D02*
X152700000Y-132648527D01*
X155225000Y-133325000D02*
X154548527Y-132648527D01*
D16*
%TO.N,Net-(U1305-AVCC)*%
X145537499Y-131812501D02*
X145537499Y-130150000D01*
X143100000Y-134250000D02*
X145537499Y-131812501D01*
%TO.N,/Ch_AL_1*%
X143800000Y-126550000D02*
X143600000Y-126350000D01*
X142200000Y-129550000D02*
X143800000Y-127950000D01*
X143800000Y-127950000D02*
X143800000Y-126550000D01*
X142200000Y-135650000D02*
X142200000Y-129550000D01*
X144050000Y-139500000D02*
X144050000Y-137500000D01*
X142550000Y-141000000D02*
X144050000Y-139500000D01*
X141912500Y-141000000D02*
X142550000Y-141000000D01*
X144050000Y-137500000D02*
X142200000Y-135650000D01*
%TO.N,/Ch_EN_11*%
X141150000Y-136050000D02*
X141150000Y-127500000D01*
%TO.N,/SOL_STAT_2*%
X138050000Y-128050000D02*
X138600000Y-127500000D01*
X138050000Y-134900000D02*
X138050000Y-128050000D01*
X140650000Y-137500000D02*
X138050000Y-134900000D01*
D17*
%TO.N,+3V3*%
X153139001Y-114860999D02*
X154250000Y-113750000D01*
X124960999Y-114860999D02*
X153139001Y-114860999D01*
D16*
%TO.N,/Ch_AL_1*%
X162150000Y-119400000D02*
X157000000Y-119400000D01*
X163750000Y-117800000D02*
X162150000Y-119400000D01*
%TO.N,/SOL_STAT_1*%
X139750000Y-120800000D02*
X150600000Y-120800000D01*
%TO.N,Net-(U201-SRP)*%
X107012500Y-46250000D02*
X103050000Y-46250000D01*
X103050000Y-46250000D02*
X102000000Y-47300000D01*
X100837502Y-52112498D02*
X95300000Y-52112498D01*
X102000000Y-47300000D02*
X102000000Y-50950000D01*
X102000000Y-50950000D02*
X100837502Y-52112498D01*
D17*
%TO.N,+5V*%
X79400000Y-64300000D02*
X79400000Y-58550000D01*
X181382500Y-106332500D02*
X193325000Y-118275000D01*
X196287499Y-121450000D02*
X193325000Y-121450000D01*
X180262500Y-106332500D02*
X181382500Y-106332500D01*
X84300000Y-82250000D02*
X84300000Y-69200000D01*
X100237749Y-102600000D02*
X97850000Y-100212251D01*
X97850000Y-95800000D02*
X84300000Y-82250000D01*
X97850000Y-100212251D02*
X97850000Y-95800000D01*
X193325000Y-118275000D02*
X193325000Y-121450000D01*
X170555000Y-105537500D02*
X162668750Y-105537500D01*
X79400000Y-58550000D02*
X82197498Y-58550000D01*
X82197498Y-58550000D02*
X82622500Y-58124998D01*
X99137499Y-103700250D02*
X100237749Y-102600000D01*
X100237749Y-102600000D02*
X121400000Y-102600000D01*
X171450000Y-106432500D02*
X170555000Y-105537500D01*
X84300000Y-69200000D02*
X79400000Y-64300000D01*
D16*
%TO.N,/MPPT_~{EN}*%
X160500000Y-118050000D02*
X154550000Y-112100000D01*
X87350000Y-60750000D02*
X83800000Y-57200000D01*
X125450000Y-102400000D02*
X115450000Y-92400000D01*
X87350000Y-81200000D02*
X87350000Y-60750000D01*
X74950000Y-52600000D02*
X70540000Y-52600000D01*
X79550000Y-57200000D02*
X74950000Y-52600000D01*
X83800000Y-57200000D02*
X79550000Y-57200000D01*
X125450000Y-105800000D02*
X125450000Y-102400000D01*
X98550000Y-92400000D02*
X87350000Y-81200000D01*
X160550000Y-118050000D02*
X160500000Y-118050000D01*
X154550000Y-112100000D02*
X131750000Y-112100000D01*
X115450000Y-92400000D02*
X98550000Y-92400000D01*
X131750000Y-112100000D02*
X125450000Y-105800000D01*
%TO.N,/SWITCH_ALERT*%
X107543501Y-79305500D02*
X107493501Y-79355500D01*
X107493501Y-68655500D02*
X107493501Y-79355500D01*
X119918501Y-79305500D02*
X107543501Y-79305500D01*
X107493501Y-79355500D02*
X107493501Y-82355500D01*
X107493501Y-82355500D02*
X107193501Y-82655500D01*
%TO.N,/Ch_EN_12*%
X176850000Y-59336248D02*
X175234752Y-57721000D01*
X180600000Y-68300000D02*
X181688752Y-68300000D01*
X176850000Y-61636248D02*
X176850000Y-59336248D01*
X177650000Y-68250000D02*
X177634752Y-68234752D01*
X177634752Y-68234752D02*
X177634752Y-62421000D01*
X187247252Y-73858500D02*
X187303679Y-73858500D01*
X181688752Y-68300000D02*
X187247252Y-73858500D01*
X177634752Y-62421000D02*
X176850000Y-61636248D01*
%TO.N,/Ch_EN_11*%
X181972252Y-55921000D02*
X178934752Y-55921000D01*
X186984752Y-65465248D02*
X186984752Y-60933500D01*
X183064679Y-79950000D02*
X188150000Y-74864679D01*
X185650000Y-70050000D02*
X185650000Y-66800000D01*
X179200000Y-79950000D02*
X183064679Y-79950000D01*
X186984752Y-60933500D02*
X181972252Y-55921000D01*
X188150000Y-74864679D02*
X188150000Y-72550000D01*
X188150000Y-72550000D02*
X185650000Y-70050000D01*
X175254752Y-52241000D02*
X178934752Y-55921000D01*
X185650000Y-66800000D02*
X186984752Y-65465248D01*
%TO.N,/Ch_AL_1*%
X187000000Y-68321000D02*
X187029000Y-68321000D01*
X187029000Y-68321000D02*
X187884752Y-67465248D01*
X187884752Y-57471000D02*
X186334752Y-55921000D01*
X187884752Y-67465248D02*
X187884752Y-57471000D01*
%TO.N,Net-(Q202-G)*%
X90400000Y-48112498D02*
X93500000Y-48112498D01*
X95900000Y-50512498D02*
X100463004Y-50512498D01*
X100463004Y-50512498D02*
X100775502Y-50200000D01*
X93500000Y-48112498D02*
X95900000Y-50512498D01*
X89804072Y-48708426D02*
X90400000Y-48112498D01*
X88650527Y-48708426D02*
X89804072Y-48708426D01*
%TO.N,/battery/DSG*%
X62137499Y-145612501D02*
X62137499Y-146862501D01*
X68800000Y-142000000D02*
X65750000Y-142000000D01*
X65750000Y-142000000D02*
X62137499Y-145612501D01*
%TO.N,/battery/CHG*%
X69750000Y-143700000D02*
X75850000Y-149800000D01*
X75850000Y-149800000D02*
X75850000Y-149850001D01*
X69750000Y-142500000D02*
X69750000Y-143700000D01*
D17*
%TO.N,+3V3*%
X60679999Y-40200000D02*
X53450000Y-40200000D01*
X50450000Y-43200000D02*
X50450000Y-84700000D01*
X87400000Y-121650000D02*
X98400000Y-121650000D01*
X98400000Y-121650000D02*
X99700000Y-122950000D01*
X50450000Y-84700000D02*
X87400000Y-121650000D01*
X53450000Y-40200000D02*
X50450000Y-43200000D01*
D16*
%TO.N,SDA*%
X75450000Y-142950000D02*
X81350000Y-148850000D01*
X81350000Y-148850000D02*
X81350000Y-149675000D01*
X72050000Y-142200000D02*
X72800000Y-142950000D01*
X72800000Y-142950000D02*
X75450000Y-142950000D01*
%TO.N,SCL*%
X76265001Y-142050001D02*
X83890000Y-149675000D01*
X73300000Y-142050001D02*
X76265001Y-142050001D01*
%TO.N,/SOL_STAT_2*%
X87512500Y-54500000D02*
X87912500Y-54900000D01*
X66450000Y-92050000D02*
X54550000Y-80150000D01*
X54550000Y-80150000D02*
X54550000Y-54804003D01*
X85512500Y-54500000D02*
X87512500Y-54500000D01*
X85050000Y-92050000D02*
X66450000Y-92050000D01*
X54550000Y-54804003D02*
X55893001Y-53461002D01*
%TO.N,/switch_c1/PG*%
X110500000Y-107950251D02*
X110300000Y-107750251D01*
X110300000Y-107750251D02*
X97600000Y-107750251D01*
X97600000Y-107750251D02*
X97400000Y-107950251D01*
%TO.N,/UniversalSwitch/AMEAS*%
X179600000Y-70671000D02*
X179650000Y-70721000D01*
X179650000Y-70721000D02*
X180591179Y-70721000D01*
X180684752Y-65350000D02*
X179600000Y-66434752D01*
X179600000Y-66434752D02*
X179600000Y-70671000D01*
X181634752Y-59108500D02*
X180684752Y-60058500D01*
X180684752Y-60058500D02*
X180684752Y-65350000D01*
X180591179Y-70721000D02*
X181903679Y-72033500D01*
%TO.N,/battery/Switch_Batt_Heater/PG*%
X112437500Y-139375001D02*
X112250500Y-139188001D01*
X112250500Y-139188001D02*
X99887500Y-139188001D01*
%TO.N,/SOL_EN_1*%
X70405999Y-62550000D02*
X70380999Y-62575000D01*
X73800000Y-62550000D02*
X70405999Y-62550000D01*
X115050000Y-94100000D02*
X98150000Y-94100000D01*
X123200000Y-130600000D02*
X123200000Y-102250000D01*
X135000000Y-142400000D02*
X123200000Y-130600000D01*
X98150000Y-94100000D02*
X86000000Y-81950000D01*
X123200000Y-102250000D02*
X115050000Y-94100000D01*
X139850000Y-142400000D02*
X135000000Y-142400000D01*
X81425000Y-64475000D02*
X81193001Y-64475000D01*
X86000000Y-81950000D02*
X86000000Y-69050000D01*
X86000000Y-69050000D02*
X81425000Y-64475000D01*
%TO.N,/solar/Switch_SOL_1/PG*%
X67543000Y-72475000D02*
X68775000Y-72475000D01*
X79980501Y-74300000D02*
X81405501Y-72875000D01*
X70600000Y-74300000D02*
X79980501Y-74300000D01*
X68775000Y-72475000D02*
X70600000Y-74300000D01*
%TO.N,/SW_BATT_11*%
X136100000Y-122250000D02*
X161950000Y-122250000D01*
X184700000Y-132750000D02*
X185589000Y-131861000D01*
X173450000Y-116850000D02*
X173450000Y-116050000D01*
X161950000Y-122250000D02*
X168150000Y-116050000D01*
X185589000Y-122239000D02*
X181550000Y-118200000D01*
X182400000Y-136700000D02*
X184700000Y-134400000D01*
X184700000Y-134400000D02*
X184700000Y-132750000D01*
X185589000Y-131861000D02*
X185589000Y-122239000D01*
X174800000Y-118200000D02*
X173450000Y-116850000D01*
X168150000Y-116050000D02*
X171400000Y-116050000D01*
X181550000Y-118200000D02*
X174800000Y-118200000D01*
%TO.N,/HEAT_BATT_1*%
X170200000Y-144100000D02*
X165900000Y-148400000D01*
X165900000Y-148400000D02*
X165900000Y-150900000D01*
X100812500Y-146188001D02*
X100012500Y-146988001D01*
X165900000Y-150900000D02*
X163800000Y-153000000D01*
X111563000Y-146188001D02*
X100812500Y-146188001D01*
X112450000Y-147075001D02*
X111563000Y-146188001D01*
X163800000Y-153000000D02*
X141300000Y-153000000D01*
%TO.N,/BATT_ALERT_1*%
X160750000Y-123450000D02*
X137050000Y-123450000D01*
%TO.N,/MCU/MISO*%
X187625000Y-144900000D02*
X189725000Y-142800000D01*
X166700000Y-145200000D02*
X167400000Y-145200000D01*
X176400000Y-142800000D02*
X178500000Y-144900000D01*
X169800000Y-142800000D02*
X176400000Y-142800000D01*
X178500000Y-144900000D02*
X187625000Y-144900000D01*
X167400000Y-145200000D02*
X169800000Y-142800000D01*
%TO.N,/MCU/TX*%
X173600000Y-146800000D02*
X171700000Y-144900000D01*
X171700000Y-144900000D02*
X171700000Y-143700000D01*
%TO.N,/MCU/RX*%
X186800000Y-139500000D02*
X186800000Y-133900000D01*
X186800000Y-133900000D02*
X192900000Y-127800000D01*
%TO.N,Net-(J1302-Pin_2)*%
X182850000Y-142150000D02*
X182850000Y-139727500D01*
X182850000Y-139727500D02*
X180562500Y-137440000D01*
%TO.N,/MCU/CAN_~{INT}*%
X170550000Y-148900000D02*
X190400000Y-148900000D01*
X168600000Y-146950000D02*
X170550000Y-148900000D01*
X194100000Y-145200000D02*
X194100000Y-143400000D01*
X190400000Y-148900000D02*
X194100000Y-145200000D01*
%TO.N,/MCU/CAN_~{WKRQ}*%
X170800000Y-148000000D02*
X189700000Y-148000000D01*
X189700000Y-148000000D02*
X192700000Y-145000000D01*
X192700000Y-137300000D02*
X193200000Y-136800000D01*
X169400000Y-146600000D02*
X170800000Y-148000000D01*
X192700000Y-145000000D02*
X192700000Y-137300000D01*
X169400000Y-146550000D02*
X169400000Y-146600000D01*
%TO.N,/MCU/CAN_~{RST}*%
X178900000Y-137100000D02*
X178900000Y-138550000D01*
X182250000Y-135534500D02*
X181584500Y-136200000D01*
X182250000Y-132200000D02*
X182250000Y-135534500D01*
X178900000Y-138550000D02*
X177650000Y-139800000D01*
X177650000Y-139800000D02*
X177000000Y-139800000D01*
X181584500Y-136200000D02*
X179800000Y-136200000D01*
X179800000Y-136200000D02*
X178900000Y-137100000D01*
%TO.N,/MCU/AMUX_1*%
X177000000Y-132200000D02*
X178750000Y-130450000D01*
X177000000Y-132750000D02*
X177000000Y-132200000D01*
X178750000Y-121650000D02*
X177500000Y-120400000D01*
X178750000Y-130450000D02*
X178750000Y-121650000D01*
%TO.N,/MCU/AMUX_0*%
X179700000Y-132250000D02*
X179700000Y-121500000D01*
X177750000Y-133450000D02*
X178500000Y-133450000D01*
X178500000Y-133450000D02*
X179700000Y-132250000D01*
X179700000Y-121500000D02*
X178600000Y-120400000D01*
%TO.N,/MCU/AMUX_EN*%
X176600000Y-120000000D02*
X177750000Y-118850000D01*
X175800000Y-129800000D02*
X177100000Y-128500000D01*
X177100000Y-123700000D02*
X176600000Y-123200000D01*
X177750000Y-118850000D02*
X178450000Y-118850000D01*
X176600000Y-123200000D02*
X176600000Y-120000000D01*
X177100000Y-128500000D02*
X177100000Y-123700000D01*
X173650000Y-129800000D02*
X175800000Y-129800000D01*
%TO.N,/MCU/AMUX_2*%
X178000000Y-129400000D02*
X176300000Y-131100000D01*
X176300000Y-131100000D02*
X176300000Y-131850000D01*
X178000000Y-124000000D02*
X178000000Y-129400000D01*
%TO.N,/AMEAS_2*%
X72847500Y-48212500D02*
X77000000Y-48212500D01*
X70277500Y-45642500D02*
X72847500Y-48212500D01*
X77000000Y-48212500D02*
X77000000Y-52800000D01*
X70277500Y-43340000D02*
X70277500Y-45642500D01*
%TO.N,/Ch_V_1*%
X173900000Y-124400000D02*
X171550000Y-122050000D01*
X171550000Y-122050000D02*
X171550000Y-119300000D01*
X171550000Y-119300000D02*
X172300000Y-118550000D01*
X172300000Y-118550000D02*
X172300000Y-76700000D01*
X174400000Y-124400000D02*
X173900000Y-124400000D01*
X172300000Y-76700000D02*
X165300000Y-69700000D01*
%TD*%
%TA.AperFunction,Conductor*%
%TO.N,SCL*%
G36*
X83615648Y-152940697D02*
G01*
X83620604Y-152948156D01*
X83620675Y-152948554D01*
X83702115Y-153455740D01*
X83700043Y-153464452D01*
X83698836Y-153465868D01*
X83568829Y-153595875D01*
X83560556Y-153599302D01*
X83553520Y-153596950D01*
X83377484Y-153464452D01*
X83128250Y-153276859D01*
X83123701Y-153269146D01*
X83125537Y-153261042D01*
X83296592Y-153003360D01*
X83304022Y-152998365D01*
X83304037Y-152998361D01*
X83606871Y-152938928D01*
X83615648Y-152940697D01*
G37*
%TD.AperFunction*%
%TD*%
%TA.AperFunction,Conductor*%
%TO.N,SCL*%
G36*
X157339583Y-144826135D02*
G01*
X157341224Y-144827042D01*
X157598737Y-144997985D01*
X157602014Y-145001262D01*
X157772953Y-145258768D01*
X157774673Y-145267556D01*
X157769676Y-145274987D01*
X157768028Y-145275898D01*
X157222880Y-145522577D01*
X157213930Y-145522866D01*
X157209784Y-145520191D01*
X157079808Y-145390215D01*
X157076381Y-145381942D01*
X157077421Y-145377122D01*
X157324102Y-144831969D01*
X157330633Y-144825846D01*
X157339583Y-144826135D01*
G37*
%TD.AperFunction*%
%TD*%
%TA.AperFunction,Conductor*%
%TO.N,SDA*%
G36*
X82193036Y-149802692D02*
G01*
X82200700Y-149807325D01*
X82202322Y-149810402D01*
X82508704Y-150687769D01*
X82508196Y-150696709D01*
X82505931Y-150699899D01*
X82374899Y-150830931D01*
X82366626Y-150834358D01*
X82362769Y-150833704D01*
X81485402Y-150527322D01*
X81478721Y-150521359D01*
X81477692Y-150518036D01*
X81369537Y-149807325D01*
X81351685Y-149690011D01*
X81353828Y-149681318D01*
X81361492Y-149676685D01*
X81365011Y-149676685D01*
X82193036Y-149802692D01*
G37*
%TD.AperFunction*%
%TD*%
%TA.AperFunction,Conductor*%
%TO.N,SDA*%
G36*
X156239583Y-144526135D02*
G01*
X156241224Y-144527042D01*
X156498737Y-144697985D01*
X156502014Y-144701262D01*
X156672953Y-144958768D01*
X156674673Y-144967556D01*
X156669676Y-144974987D01*
X156668028Y-144975898D01*
X156122880Y-145222577D01*
X156113930Y-145222866D01*
X156109784Y-145220191D01*
X155979808Y-145090215D01*
X155976381Y-145081942D01*
X155977421Y-145077122D01*
X156224102Y-144531969D01*
X156230633Y-144525846D01*
X156239583Y-144526135D01*
G37*
%TD.AperFunction*%
%TD*%
%TA.AperFunction,Conductor*%
%TO.N,/switch/EN*%
G36*
X97930269Y-79172172D02*
G01*
X97933125Y-79176835D01*
X98114706Y-79736616D01*
X98113999Y-79745543D01*
X98107187Y-79751355D01*
X98105894Y-79751694D01*
X97804788Y-79812532D01*
X97796000Y-79810812D01*
X97795946Y-79810776D01*
X97537853Y-79637369D01*
X97532897Y-79629910D01*
X97533642Y-79623008D01*
X97727447Y-79175793D01*
X97733881Y-79169564D01*
X97738182Y-79168745D01*
X97921996Y-79168745D01*
X97930269Y-79172172D01*
G37*
%TD.AperFunction*%
%TD*%
%TA.AperFunction,Conductor*%
%TO.N,/switch/EN*%
G36*
X99533413Y-74798352D02*
G01*
X99540872Y-74803308D01*
X99540908Y-74803362D01*
X99711600Y-75060496D01*
X99713320Y-75069284D01*
X99708339Y-75076704D01*
X99248481Y-75383102D01*
X99239696Y-75384837D01*
X99233721Y-75381638D01*
X99103685Y-75251602D01*
X99100258Y-75243329D01*
X99100567Y-75240658D01*
X99139007Y-75076704D01*
X99216170Y-74747577D01*
X99221395Y-74740306D01*
X99229812Y-74738768D01*
X99533413Y-74798352D01*
G37*
%TD.AperFunction*%
%TD*%
%TA.AperFunction,Conductor*%
%TO.N,/MCU/TX*%
G36*
X145953323Y-144937948D02*
G01*
X146325524Y-145268149D01*
X146329438Y-145276203D01*
X146327410Y-145283515D01*
X145761055Y-146109869D01*
X145753551Y-146114756D01*
X145744790Y-146112906D01*
X145741013Y-146108632D01*
X145314143Y-145283669D01*
X145313385Y-145274748D01*
X145317383Y-145269034D01*
X145746841Y-144937438D01*
X145753991Y-144935000D01*
X145945558Y-144935000D01*
X145953323Y-144937948D01*
G37*
%TD.AperFunction*%
%TD*%
%TA.AperFunction,Conductor*%
%TO.N,Net-(J1303-Pin_2)*%
G36*
X159459167Y-138815248D02*
G01*
X159463912Y-138822524D01*
X159626963Y-139637319D01*
X159625226Y-139646104D01*
X159621984Y-139649347D01*
X158928927Y-140111779D01*
X158920143Y-140113521D01*
X158913967Y-140110123D01*
X158096750Y-139253390D01*
X158093516Y-139245314D01*
X158093516Y-139059835D01*
X158096943Y-139051562D01*
X158103202Y-139048310D01*
X159450429Y-138813294D01*
X159459167Y-138815248D01*
G37*
%TD.AperFunction*%
%TD*%
%TA.AperFunction,Conductor*%
%TO.N,Net-(J1303-Pin_2)*%
G36*
X148801222Y-143358630D02*
G01*
X148803897Y-143362776D01*
X149014945Y-143922683D01*
X149014656Y-143931633D01*
X149008124Y-143937758D01*
X149006314Y-143938278D01*
X148703359Y-143999489D01*
X148698725Y-143999489D01*
X148395769Y-143938278D01*
X148388338Y-143933281D01*
X148386618Y-143924493D01*
X148387136Y-143922689D01*
X148598187Y-143362775D01*
X148604312Y-143356244D01*
X148609135Y-143355203D01*
X148792949Y-143355203D01*
X148801222Y-143358630D01*
G37*
%TD.AperFunction*%
%TD*%
%TA.AperFunction,Conductor*%
%TO.N,Net-(J1303-Pin_3)*%
G36*
X159161003Y-141486821D02*
G01*
X159624140Y-142178490D01*
X159625895Y-142187271D01*
X159624140Y-142191510D01*
X159161003Y-142883178D01*
X159153552Y-142888145D01*
X159146041Y-142887129D01*
X157950293Y-142288235D01*
X157944431Y-142281466D01*
X157943833Y-142277774D01*
X157943833Y-142092225D01*
X157947260Y-142083952D01*
X157950290Y-142081765D01*
X159146043Y-141482869D01*
X159154973Y-141482229D01*
X159161003Y-141486821D01*
G37*
%TD.AperFunction*%
%TD*%
%TA.AperFunction,Conductor*%
%TO.N,Net-(J1303-Pin_3)*%
G36*
X150612523Y-142859428D02*
G01*
X150742555Y-142989460D01*
X150745982Y-142997733D01*
X150745623Y-143000609D01*
X150621478Y-143490165D01*
X150616123Y-143497342D01*
X150607884Y-143498770D01*
X150304086Y-143439147D01*
X150296627Y-143434191D01*
X150296591Y-143434137D01*
X150125989Y-143177137D01*
X150124269Y-143168349D01*
X150129266Y-143160918D01*
X150129267Y-143160916D01*
X150597897Y-142857875D01*
X150606705Y-142856261D01*
X150612523Y-142859428D01*
G37*
%TD.AperFunction*%
%TD*%
%TA.AperFunction,Conductor*%
%TO.N,+3V3*%
G36*
X175230689Y-54538349D02*
G01*
X175238140Y-54543316D01*
X175238154Y-54543337D01*
X175699821Y-55235997D01*
X175701558Y-55244782D01*
X175696574Y-55252222D01*
X175695579Y-55252816D01*
X174315128Y-55987045D01*
X174306215Y-55987904D01*
X174301361Y-55984988D01*
X174029490Y-55713117D01*
X174026063Y-55704844D01*
X174026502Y-55701671D01*
X174398151Y-54384569D01*
X174403695Y-54377538D01*
X174411681Y-54376270D01*
X175230689Y-54538349D01*
G37*
%TD.AperFunction*%
%TD*%
%TA.AperFunction,Conductor*%
%TO.N,+3V3*%
G36*
X175693246Y-74937126D02*
G01*
X175693583Y-74946075D01*
X175690886Y-74950281D01*
X175587960Y-75053208D01*
X175587959Y-75053208D01*
X175543998Y-75097168D01*
X175459748Y-75181419D01*
X175451475Y-75184846D01*
X175446893Y-75183911D01*
X175305586Y-75123764D01*
X175299316Y-75117371D01*
X175299403Y-75108417D01*
X175305284Y-75102367D01*
X175677734Y-74931374D01*
X175686680Y-74931038D01*
X175693246Y-74937126D01*
G37*
%TD.AperFunction*%
%TD*%
%TA.AperFunction,Conductor*%
%TO.N,+3V3*%
G36*
X193052909Y-94558949D02*
G01*
X193055341Y-94563279D01*
X193148991Y-94868158D01*
X193148995Y-94868164D01*
X193424218Y-95143387D01*
X193427645Y-95151660D01*
X193424871Y-95159224D01*
X193055217Y-95595412D01*
X193047254Y-95599508D01*
X193042390Y-95598878D01*
X192217996Y-95307321D01*
X192211339Y-95301332D01*
X192210867Y-95292390D01*
X192214129Y-95287542D01*
X193036394Y-94557961D01*
X193044855Y-94555035D01*
X193052909Y-94558949D01*
G37*
%TD.AperFunction*%
%TD*%
%TA.AperFunction,Conductor*%
%TO.N,+5V*%
G36*
X180756056Y-86675225D02*
G01*
X181031834Y-86951004D01*
X181031838Y-86951007D01*
X181234615Y-87043019D01*
X181240732Y-87049558D01*
X181240434Y-87058508D01*
X181238053Y-87061946D01*
X180414621Y-87885378D01*
X180406348Y-87888805D01*
X180398075Y-87885378D01*
X180394892Y-87879480D01*
X180224456Y-87057400D01*
X180226132Y-87048607D01*
X180229035Y-87045562D01*
X180740913Y-86674028D01*
X180749619Y-86671943D01*
X180756056Y-86675225D01*
G37*
%TD.AperFunction*%
%TD*%
%TA.AperFunction,Conductor*%
%TO.N,+5V*%
G36*
X186158995Y-86673526D02*
G01*
X186713782Y-87045917D01*
X186718741Y-87053373D01*
X186718848Y-87057254D01*
X186603964Y-87877454D01*
X186599423Y-87885172D01*
X186590754Y-87887418D01*
X186584104Y-87884104D01*
X185759035Y-87059035D01*
X185755608Y-87050762D01*
X185759035Y-87042489D01*
X185759770Y-87041814D01*
X185868163Y-86951006D01*
X186144202Y-86674966D01*
X186152474Y-86671540D01*
X186158995Y-86673526D01*
G37*
%TD.AperFunction*%
%TD*%
%TA.AperFunction,Conductor*%
%TO.N,+5V*%
G36*
X180405777Y-87911836D02*
G01*
X180409724Y-87915932D01*
X180884412Y-88742489D01*
X180885560Y-88751370D01*
X180882802Y-88756318D01*
X180573467Y-89086302D01*
X180565309Y-89089994D01*
X180564931Y-89090000D01*
X180175262Y-89090000D01*
X180166989Y-89086573D01*
X180166509Y-89086064D01*
X179874207Y-88756543D01*
X179871281Y-88748080D01*
X179873035Y-88742583D01*
X180389655Y-87915559D01*
X180396944Y-87910359D01*
X180405777Y-87911836D01*
G37*
%TD.AperFunction*%
%TD*%
%TA.AperFunction,Conductor*%
%TO.N,+5V*%
G36*
X180566805Y-105710437D02*
G01*
X180570230Y-105718476D01*
X180581059Y-106259328D01*
X180577798Y-106267668D01*
X180571678Y-106271030D01*
X180264817Y-106333031D01*
X180260183Y-106333031D01*
X179957535Y-106271882D01*
X179950104Y-106266885D01*
X179948384Y-106258097D01*
X179948998Y-106256045D01*
X180167049Y-105714341D01*
X180173318Y-105707946D01*
X180177903Y-105707010D01*
X180558532Y-105707010D01*
X180566805Y-105710437D01*
G37*
%TD.AperFunction*%
%TD*%
%TA.AperFunction,Conductor*%
%TO.N,+3V3*%
G36*
X69558464Y-48791912D02*
G01*
X70960527Y-49507278D01*
X70966338Y-49514090D01*
X70965631Y-49523016D01*
X70964945Y-49524188D01*
X70503402Y-50216663D01*
X70495962Y-50221647D01*
X70495937Y-50221651D01*
X69676729Y-50383770D01*
X69667948Y-50382015D01*
X69663261Y-50375686D01*
X69270077Y-49077595D01*
X69270959Y-49068686D01*
X69272999Y-49065936D01*
X69544875Y-48794060D01*
X69553147Y-48790634D01*
X69558464Y-48791912D01*
G37*
%TD.AperFunction*%
%TD*%
%TA.AperFunction,Conductor*%
%TO.N,+5V*%
G36*
X59974718Y-42155500D02*
G01*
X59975737Y-42157392D01*
X60204272Y-42694749D01*
X60204356Y-42703703D01*
X60201778Y-42707601D01*
X59932633Y-42976746D01*
X59924360Y-42980173D01*
X59916250Y-42976905D01*
X59526475Y-42601993D01*
X59522889Y-42593789D01*
X59524838Y-42587094D01*
X59697987Y-42326257D01*
X59701259Y-42322985D01*
X59958501Y-42152222D01*
X59967287Y-42150503D01*
X59974718Y-42155500D01*
G37*
%TD.AperFunction*%
%TD*%
%TA.AperFunction,Conductor*%
%TO.N,+3V3*%
G36*
X174073081Y-53331750D02*
G01*
X175068863Y-53612732D01*
X175390181Y-53703399D01*
X175397213Y-53708943D01*
X175398481Y-53716930D01*
X175236402Y-54535937D01*
X175231435Y-54543388D01*
X175231414Y-54543402D01*
X174538754Y-55005069D01*
X174529969Y-55006806D01*
X174522529Y-55001822D01*
X174521935Y-55000827D01*
X174278642Y-54543402D01*
X173787705Y-53620374D01*
X173786847Y-53611463D01*
X173789761Y-53606611D01*
X174061635Y-53334737D01*
X174069907Y-53331311D01*
X174073081Y-53331750D01*
G37*
%TD.AperFunction*%
%TD*%
%TA.AperFunction,Conductor*%
%TO.N,/UniversalSwitch/AMEAS*%
G36*
X175950365Y-70019033D02*
G01*
X175954232Y-70023141D01*
X176288501Y-70618331D01*
X176290000Y-70624059D01*
X176290000Y-70814774D01*
X176286573Y-70823047D01*
X176284836Y-70824478D01*
X175957989Y-71044619D01*
X175949213Y-71046399D01*
X175943185Y-71043193D01*
X175114185Y-70215167D01*
X175110753Y-70206896D01*
X175114175Y-70198621D01*
X175119971Y-70195455D01*
X175941553Y-70017435D01*
X175950365Y-70019033D01*
G37*
%TD.AperFunction*%
%TD*%
%TA.AperFunction,Conductor*%
%TO.N,/AMEAS_2*%
G36*
X175100180Y-116159672D02*
G01*
X175102855Y-116163818D01*
X175313903Y-116723725D01*
X175313614Y-116732675D01*
X175307082Y-116738800D01*
X175305272Y-116739320D01*
X175002317Y-116800531D01*
X174997683Y-116800531D01*
X174694727Y-116739320D01*
X174687296Y-116734323D01*
X174685576Y-116725535D01*
X174686094Y-116723731D01*
X174897145Y-116163817D01*
X174903270Y-116157286D01*
X174908093Y-116156245D01*
X175091907Y-116156245D01*
X175100180Y-116159672D01*
G37*
%TD.AperFunction*%
%TD*%
%TA.AperFunction,Conductor*%
%TO.N,/MCU/CS_1*%
G36*
X162100180Y-150959672D02*
G01*
X162102855Y-150963818D01*
X162313903Y-151523725D01*
X162313614Y-151532675D01*
X162307082Y-151538800D01*
X162305272Y-151539320D01*
X162002317Y-151600531D01*
X161997683Y-151600531D01*
X161694727Y-151539320D01*
X161687296Y-151534323D01*
X161685576Y-151525535D01*
X161686094Y-151523731D01*
X161897145Y-150963817D01*
X161903270Y-150957286D01*
X161908093Y-150956245D01*
X162091907Y-150956245D01*
X162100180Y-150959672D01*
G37*
%TD.AperFunction*%
%TD*%
%TA.AperFunction,Conductor*%
%TO.N,/MCU/CS_1*%
G36*
X164339583Y-141576135D02*
G01*
X164341224Y-141577042D01*
X164598737Y-141747985D01*
X164602014Y-141751262D01*
X164772953Y-142008768D01*
X164774673Y-142017556D01*
X164769676Y-142024987D01*
X164768028Y-142025898D01*
X164222880Y-142272577D01*
X164213930Y-142272866D01*
X164209784Y-142270191D01*
X164079808Y-142140215D01*
X164076381Y-142131942D01*
X164077421Y-142127122D01*
X164324102Y-141581969D01*
X164330633Y-141575846D01*
X164339583Y-141576135D01*
G37*
%TD.AperFunction*%
%TD*%
%TA.AperFunction,Conductor*%
%TO.N,/MCU/SCK*%
G36*
X162800180Y-149859672D02*
G01*
X162802855Y-149863818D01*
X163013903Y-150423725D01*
X163013614Y-150432675D01*
X163007082Y-150438800D01*
X163005272Y-150439320D01*
X162702317Y-150500531D01*
X162697683Y-150500531D01*
X162394727Y-150439320D01*
X162387296Y-150434323D01*
X162385576Y-150425535D01*
X162386094Y-150423731D01*
X162597145Y-149863817D01*
X162603270Y-149857286D01*
X162608093Y-149856245D01*
X162791907Y-149856245D01*
X162800180Y-149859672D01*
G37*
%TD.AperFunction*%
%TD*%
%TA.AperFunction,Conductor*%
%TO.N,/MCU/SCK*%
G36*
X165339583Y-142176135D02*
G01*
X165341224Y-142177042D01*
X165598737Y-142347985D01*
X165602014Y-142351262D01*
X165772953Y-142608768D01*
X165774673Y-142617556D01*
X165769676Y-142624987D01*
X165768028Y-142625898D01*
X165222880Y-142872577D01*
X165213930Y-142872866D01*
X165209784Y-142870191D01*
X165079808Y-142740215D01*
X165076381Y-142731942D01*
X165077421Y-142727122D01*
X165324102Y-142181969D01*
X165330633Y-142175846D01*
X165339583Y-142176135D01*
G37*
%TD.AperFunction*%
%TD*%
%TA.AperFunction,Conductor*%
%TO.N,/Ch_AL_1*%
G36*
X192059953Y-73294297D02*
G01*
X192777734Y-73726637D01*
X192883989Y-73790637D01*
X192889308Y-73797841D01*
X192887974Y-73806696D01*
X192883947Y-73810706D01*
X192058120Y-74303460D01*
X192049260Y-74304757D01*
X192043559Y-74301383D01*
X191648076Y-73876319D01*
X191644950Y-73867927D01*
X191648368Y-73860077D01*
X191781809Y-73726637D01*
X192043936Y-73298212D01*
X192051177Y-73292944D01*
X192059953Y-73294297D01*
G37*
%TD.AperFunction*%
%TD*%
%TA.AperFunction,Conductor*%
%TO.N,/Ch_AL_1*%
G36*
X187305273Y-68381680D02*
G01*
X187312703Y-68386676D01*
X187314423Y-68395464D01*
X187313903Y-68397274D01*
X187102855Y-68957182D01*
X187096730Y-68963714D01*
X187091907Y-68964755D01*
X186908093Y-68964755D01*
X186899820Y-68961328D01*
X186897145Y-68957182D01*
X186686096Y-68397274D01*
X186686385Y-68388324D01*
X186692917Y-68382199D01*
X186694715Y-68381682D01*
X186997684Y-68320468D01*
X187002316Y-68320468D01*
X187305273Y-68381680D01*
G37*
%TD.AperFunction*%
%TD*%
%TA.AperFunction,Conductor*%
%TO.N,/SW_BATT_11*%
G36*
X107064677Y-121054799D02*
G01*
X107749901Y-121300043D01*
X107892369Y-121351033D01*
X107899003Y-121357048D01*
X107900125Y-121361867D01*
X107911049Y-122064752D01*
X107907751Y-122073078D01*
X107907623Y-122073207D01*
X107775283Y-122205547D01*
X107767010Y-122208974D01*
X107762442Y-122208045D01*
X107043404Y-121903076D01*
X107037125Y-121896691D01*
X107036273Y-121892127D01*
X107049040Y-121065633D01*
X107052595Y-121057416D01*
X107060920Y-121054117D01*
X107064677Y-121054799D01*
G37*
%TD.AperFunction*%
%TD*%
%TA.AperFunction,Conductor*%
%TO.N,/SW_BATT_11*%
G36*
X121182675Y-121936385D02*
G01*
X121188800Y-121942917D01*
X121189320Y-121944727D01*
X121250531Y-122247683D01*
X121250531Y-122252317D01*
X121189320Y-122555272D01*
X121184323Y-122562703D01*
X121175535Y-122564423D01*
X121173725Y-122563903D01*
X120613818Y-122352854D01*
X120607286Y-122346729D01*
X120606245Y-122341906D01*
X120606245Y-122158093D01*
X120609672Y-122149820D01*
X120613816Y-122147146D01*
X121173726Y-121936096D01*
X121182675Y-121936385D01*
G37*
%TD.AperFunction*%
%TD*%
%TA.AperFunction,Conductor*%
%TO.N,+3V3*%
G36*
X110418588Y-119561824D02*
G01*
X110690516Y-119833752D01*
X110693943Y-119842025D01*
X110693723Y-119844285D01*
X110425929Y-121204336D01*
X110420968Y-121211792D01*
X110412190Y-121213555D01*
X110412182Y-121213554D01*
X110412178Y-121213553D01*
X109594062Y-121051650D01*
X109586611Y-121046683D01*
X109586597Y-121046662D01*
X109124526Y-120353394D01*
X109122789Y-120344609D01*
X109127773Y-120337169D01*
X109128142Y-120336933D01*
X110404232Y-119560102D01*
X110413080Y-119558728D01*
X110418588Y-119561824D01*
G37*
%TD.AperFunction*%
%TD*%
%TA.AperFunction,Conductor*%
%TO.N,+3V3*%
G36*
X121483897Y-114535294D02*
G01*
X121488912Y-114542712D01*
X121488918Y-114542741D01*
X121550531Y-114847683D01*
X121550531Y-114852317D01*
X121488918Y-115157258D01*
X121483921Y-115164689D01*
X121475133Y-115166409D01*
X121475104Y-115166403D01*
X120915599Y-115051914D01*
X120908181Y-115046899D01*
X120906245Y-115040452D01*
X120906245Y-114659547D01*
X120909672Y-114651274D01*
X120915596Y-114648086D01*
X121475105Y-114533596D01*
X121483897Y-114535294D01*
G37*
%TD.AperFunction*%
%TD*%
%TA.AperFunction,Conductor*%
%TO.N,/SW_BATT_11*%
G36*
X100362487Y-117092824D02*
G01*
X100363398Y-117094472D01*
X100610077Y-117639620D01*
X100610366Y-117648570D01*
X100607691Y-117652716D01*
X100477715Y-117782692D01*
X100469442Y-117786119D01*
X100464619Y-117785078D01*
X99919471Y-117538399D01*
X99913346Y-117531867D01*
X99913635Y-117522917D01*
X99914538Y-117521281D01*
X100085487Y-117263760D01*
X100088759Y-117260488D01*
X100346271Y-117089546D01*
X100355056Y-117087827D01*
X100362487Y-117092824D01*
G37*
%TD.AperFunction*%
%TD*%
%TA.AperFunction,Conductor*%
%TO.N,/SW_BATT_11*%
G36*
X106208072Y-120234220D02*
G01*
X107036606Y-121036070D01*
X107040167Y-121044286D01*
X107036876Y-121052614D01*
X107031795Y-121055694D01*
X106208589Y-121299783D01*
X106199683Y-121298850D01*
X106195302Y-121294702D01*
X105861738Y-120753073D01*
X105860000Y-120746938D01*
X105860000Y-120555264D01*
X105863427Y-120546991D01*
X105863607Y-120546815D01*
X106191866Y-120234154D01*
X106200220Y-120230930D01*
X106208072Y-120234220D01*
G37*
%TD.AperFunction*%
%TD*%
%TA.AperFunction,Conductor*%
%TO.N,/SOL_STAT_1*%
G36*
X96197878Y-87852421D02*
G01*
X96743028Y-88099101D01*
X96749153Y-88105633D01*
X96748864Y-88114583D01*
X96747953Y-88116231D01*
X96577014Y-88373737D01*
X96573737Y-88377014D01*
X96316231Y-88547953D01*
X96307443Y-88549673D01*
X96300012Y-88544676D01*
X96299101Y-88543028D01*
X96223388Y-88375707D01*
X96052421Y-87997879D01*
X96052133Y-87988930D01*
X96054806Y-87984786D01*
X96184785Y-87854807D01*
X96193057Y-87851381D01*
X96197878Y-87852421D01*
G37*
%TD.AperFunction*%
%TD*%
%TA.AperFunction,Conductor*%
%TO.N,/SOL_STAT_1*%
G36*
X82676272Y-55936095D02*
G01*
X83236182Y-56147145D01*
X83242714Y-56153270D01*
X83243755Y-56158093D01*
X83243755Y-56341906D01*
X83240328Y-56350179D01*
X83236182Y-56352854D01*
X82676274Y-56563903D01*
X82667324Y-56563614D01*
X82661199Y-56557082D01*
X82660681Y-56555281D01*
X82599468Y-56252316D01*
X82599468Y-56247683D01*
X82660680Y-55944724D01*
X82665676Y-55937296D01*
X82674464Y-55935576D01*
X82676272Y-55936095D01*
G37*
%TD.AperFunction*%
%TD*%
%TA.AperFunction,Conductor*%
%TO.N,+5V*%
G36*
X197973520Y-129109672D02*
G01*
X197976756Y-129115838D01*
X198079186Y-129675296D01*
X198077305Y-129684051D01*
X198069994Y-129688871D01*
X197764817Y-129750531D01*
X197760183Y-129750531D01*
X197455481Y-129688967D01*
X197448050Y-129683970D01*
X197446330Y-129675182D01*
X197446386Y-129674918D01*
X197572938Y-129115364D01*
X197578106Y-129108051D01*
X197584350Y-129106245D01*
X197965247Y-129106245D01*
X197973520Y-129109672D01*
G37*
%TD.AperFunction*%
%TD*%
%TA.AperFunction,Conductor*%
%TO.N,+5V*%
G36*
X196564173Y-121279204D02*
G01*
X196564189Y-121279228D01*
X196675614Y-121447985D01*
X196878863Y-121755814D01*
X196880561Y-121764606D01*
X196877372Y-121770533D01*
X196608032Y-122039873D01*
X196599759Y-122043300D01*
X196593313Y-122041364D01*
X196359134Y-121886743D01*
X196116727Y-121726690D01*
X196111712Y-121719272D01*
X196113409Y-121710480D01*
X196285486Y-121451259D01*
X196288758Y-121447987D01*
X196547955Y-121275926D01*
X196556742Y-121274207D01*
X196564173Y-121279204D01*
G37*
%TD.AperFunction*%
%TD*%
%TA.AperFunction,Conductor*%
%TO.N,/MCU/TX*%
G36*
X191655273Y-125173180D02*
G01*
X191662703Y-125178176D01*
X191664423Y-125186964D01*
X191663903Y-125188774D01*
X191452855Y-125748682D01*
X191446730Y-125755214D01*
X191441907Y-125756255D01*
X191258093Y-125756255D01*
X191249820Y-125752828D01*
X191247145Y-125748682D01*
X191036096Y-125188774D01*
X191036385Y-125179824D01*
X191042917Y-125173699D01*
X191044715Y-125173182D01*
X191347684Y-125111968D01*
X191352316Y-125111968D01*
X191655273Y-125173180D01*
G37*
%TD.AperFunction*%
%TD*%
%TA.AperFunction,Conductor*%
%TO.N,/MCU/TX*%
G36*
X186100131Y-139660140D02*
G01*
X186102829Y-139664348D01*
X186310255Y-140224239D01*
X186309916Y-140233188D01*
X186303349Y-140239275D01*
X186301601Y-140239772D01*
X185998569Y-140300999D01*
X185993935Y-140300999D01*
X185691056Y-140239803D01*
X185683625Y-140234806D01*
X185681905Y-140226018D01*
X185682443Y-140224160D01*
X185897120Y-139664225D01*
X185903282Y-139657726D01*
X185908045Y-139656713D01*
X186091858Y-139656713D01*
X186100131Y-139660140D01*
G37*
%TD.AperFunction*%
%TD*%
%TA.AperFunction,Conductor*%
%TO.N,+5V*%
G36*
X191728325Y-122775230D02*
G01*
X191997504Y-123044409D01*
X192000931Y-123052682D01*
X191997812Y-123060635D01*
X191626990Y-123460762D01*
X191618853Y-123464501D01*
X191611938Y-123462557D01*
X191351262Y-123289514D01*
X191347985Y-123286237D01*
X191177077Y-123028776D01*
X191175357Y-123019988D01*
X191180354Y-123012557D01*
X191182034Y-123011631D01*
X191715270Y-122772824D01*
X191724221Y-122772571D01*
X191728325Y-122775230D01*
G37*
%TD.AperFunction*%
%TD*%
%TA.AperFunction,Conductor*%
%TO.N,MCU_3V3*%
G36*
X168948725Y-120009672D02*
G01*
X168951914Y-120015599D01*
X169066403Y-120575104D01*
X169064705Y-120583897D01*
X169057287Y-120588912D01*
X169057258Y-120588918D01*
X168752317Y-120650531D01*
X168747683Y-120650531D01*
X168442741Y-120588918D01*
X168435310Y-120583921D01*
X168433590Y-120575134D01*
X168548086Y-120015599D01*
X168553101Y-120008181D01*
X168559548Y-120006245D01*
X168940452Y-120006245D01*
X168948725Y-120009672D01*
G37*
%TD.AperFunction*%
%TD*%
%TA.AperFunction,Conductor*%
%TO.N,MCU_3V3*%
G36*
X168747299Y-118989739D02*
G01*
X169045213Y-119048062D01*
X169052671Y-119053013D01*
X169052703Y-119053060D01*
X169224920Y-119311756D01*
X169226652Y-119320542D01*
X169222951Y-119326987D01*
X168953858Y-119566064D01*
X168953324Y-119566538D01*
X168945553Y-119569491D01*
X168565890Y-119569491D01*
X168557617Y-119566064D01*
X168554190Y-119557791D01*
X168554718Y-119554317D01*
X168627408Y-119320542D01*
X168728128Y-118996619D01*
X168733855Y-118989739D01*
X168741547Y-118988613D01*
X168747299Y-118989739D01*
G37*
%TD.AperFunction*%
%TD*%
%TA.AperFunction,Conductor*%
%TO.N,+5V*%
G36*
X170025533Y-62089906D02*
G01*
X171252306Y-62886801D01*
X171257377Y-62894182D01*
X171255744Y-62902987D01*
X171255668Y-62903102D01*
X170793402Y-63596662D01*
X170785962Y-63601646D01*
X170785937Y-63601650D01*
X169968257Y-63763467D01*
X169959476Y-63761712D01*
X169954509Y-63754261D01*
X169954430Y-63753821D01*
X169817028Y-62886801D01*
X169735679Y-62373476D01*
X169737769Y-62364769D01*
X169738956Y-62363378D01*
X170010889Y-62091445D01*
X170019161Y-62088019D01*
X170025533Y-62089906D01*
G37*
%TD.AperFunction*%
%TD*%
%TA.AperFunction,Conductor*%
%TO.N,+5V*%
G36*
X168289520Y-51175911D02*
G01*
X168289544Y-51175927D01*
X168548737Y-51347985D01*
X168552014Y-51351262D01*
X168724072Y-51610455D01*
X168725792Y-51619243D01*
X168720795Y-51626674D01*
X168720771Y-51626690D01*
X168244186Y-51941364D01*
X168235393Y-51943062D01*
X168229466Y-51939873D01*
X167960126Y-51670533D01*
X167956699Y-51662260D01*
X167958633Y-51655817D01*
X168273309Y-51179227D01*
X168280727Y-51174213D01*
X168289520Y-51175911D01*
G37*
%TD.AperFunction*%
%TD*%
%TA.AperFunction,Conductor*%
%TO.N,/SOL_EN_1*%
G36*
X70003877Y-62052421D02*
G01*
X70549027Y-62299101D01*
X70555152Y-62305633D01*
X70554863Y-62314583D01*
X70553952Y-62316231D01*
X70383013Y-62573737D01*
X70379736Y-62577014D01*
X70122230Y-62747953D01*
X70113442Y-62749673D01*
X70106011Y-62744676D01*
X70105100Y-62743028D01*
X70029387Y-62575707D01*
X69858420Y-62197879D01*
X69858132Y-62188930D01*
X69860805Y-62184786D01*
X69990784Y-62054807D01*
X69999056Y-62051381D01*
X70003877Y-62052421D01*
G37*
%TD.AperFunction*%
%TD*%
%TA.AperFunction,Conductor*%
%TO.N,/SOL_EN_1*%
G36*
X56735781Y-56091381D02*
G01*
X56743639Y-56095676D01*
X56745506Y-56098975D01*
X56970751Y-56711482D01*
X57022752Y-56852888D01*
X57051545Y-56931183D01*
X57051184Y-56940130D01*
X57048837Y-56943494D01*
X56917485Y-57074846D01*
X56909212Y-57078273D01*
X56906178Y-57077873D01*
X56068284Y-56852888D01*
X56061182Y-56847433D01*
X56059843Y-56843871D01*
X55895396Y-56015913D01*
X55897146Y-56007133D01*
X55904593Y-56002160D01*
X55908122Y-56002004D01*
X56735781Y-56091381D01*
G37*
%TD.AperFunction*%
%TD*%
%TA.AperFunction,Conductor*%
%TO.N,/BATT_ALERT_1*%
G36*
X69175761Y-133987978D02*
G01*
X69178418Y-133989969D01*
X69308429Y-134119980D01*
X69311856Y-134128253D01*
X69310147Y-134134342D01*
X69014057Y-134620175D01*
X69006825Y-134625456D01*
X68997977Y-134624077D01*
X68997595Y-134623834D01*
X68740862Y-134453409D01*
X68735865Y-134445978D01*
X68735852Y-134445914D01*
X68676153Y-134141727D01*
X68677922Y-134132949D01*
X68684345Y-134128245D01*
X69166858Y-133987013D01*
X69175761Y-133987978D01*
G37*
%TD.AperFunction*%
%TD*%
%TA.AperFunction,Conductor*%
%TO.N,/BATT_ALERT_1*%
G36*
X121282675Y-123686385D02*
G01*
X121288800Y-123692917D01*
X121289320Y-123694727D01*
X121350531Y-123997683D01*
X121350531Y-124002317D01*
X121289320Y-124305272D01*
X121284323Y-124312703D01*
X121275535Y-124314423D01*
X121273725Y-124313903D01*
X120713818Y-124102854D01*
X120707286Y-124096729D01*
X120706245Y-124091906D01*
X120706245Y-123908093D01*
X120709672Y-123899820D01*
X120713816Y-123897146D01*
X121273726Y-123686096D01*
X121282675Y-123686385D01*
G37*
%TD.AperFunction*%
%TD*%
%TA.AperFunction,Conductor*%
%TO.N,/AMEAS_9*%
G36*
X121282675Y-125786385D02*
G01*
X121288800Y-125792917D01*
X121289320Y-125794727D01*
X121350531Y-126097683D01*
X121350531Y-126102317D01*
X121289320Y-126405272D01*
X121284323Y-126412703D01*
X121275535Y-126414423D01*
X121273725Y-126413903D01*
X120713818Y-126202854D01*
X120707286Y-126196729D01*
X120706245Y-126191906D01*
X120706245Y-126008093D01*
X120709672Y-125999820D01*
X120713816Y-125997146D01*
X120769248Y-125976252D01*
X120773375Y-125975500D01*
X120819184Y-125975500D01*
X120819184Y-125975499D01*
X120886009Y-125957594D01*
X120952834Y-125939689D01*
X120952838Y-125939687D01*
X120992779Y-125916627D01*
X121072665Y-125870505D01*
X121084719Y-125858450D01*
X121088860Y-125855778D01*
X121273726Y-125786096D01*
X121282675Y-125786385D01*
G37*
%TD.AperFunction*%
%TD*%
%TA.AperFunction,Conductor*%
%TO.N,/AMEAS_9*%
G36*
X88007275Y-128159270D02*
G01*
X88008159Y-128160260D01*
X88078972Y-128249301D01*
X88169705Y-128363389D01*
X88169707Y-128363391D01*
X88305188Y-128498872D01*
X88308615Y-128507145D01*
X88307402Y-128512334D01*
X88003808Y-129125911D01*
X87997067Y-129131806D01*
X87991515Y-129132282D01*
X87172039Y-129004260D01*
X87164394Y-128999597D01*
X87162285Y-128990894D01*
X87165570Y-128984429D01*
X87990730Y-128159269D01*
X87999002Y-128155843D01*
X88007275Y-128159270D01*
G37*
%TD.AperFunction*%
%TD*%
%TA.AperFunction,Conductor*%
%TO.N,Net-(U1304-AVCC)*%
G36*
X168140215Y-133179808D02*
G01*
X168270191Y-133309784D01*
X168273618Y-133318057D01*
X168272577Y-133322880D01*
X168025898Y-133868028D01*
X168019366Y-133874153D01*
X168010416Y-133873864D01*
X168008771Y-133872955D01*
X167751262Y-133702014D01*
X167747985Y-133698737D01*
X167577045Y-133441229D01*
X167575326Y-133432443D01*
X167580323Y-133425012D01*
X167581963Y-133424105D01*
X168127120Y-133177421D01*
X168136069Y-133177133D01*
X168140215Y-133179808D01*
G37*
%TD.AperFunction*%
%TD*%
%TA.AperFunction,Conductor*%
%TO.N,Net-(U1304-AVCC)*%
G36*
X169142772Y-130060680D02*
G01*
X169150202Y-130065676D01*
X169151922Y-130074464D01*
X169151402Y-130076274D01*
X168940354Y-130636182D01*
X168934229Y-130642714D01*
X168929406Y-130643755D01*
X168745592Y-130643755D01*
X168737319Y-130640328D01*
X168734644Y-130636182D01*
X168523595Y-130076274D01*
X168523884Y-130067324D01*
X168530416Y-130061199D01*
X168532214Y-130060682D01*
X168835183Y-129999468D01*
X168839815Y-129999468D01*
X169142772Y-130060680D01*
G37*
%TD.AperFunction*%
%TD*%
%TA.AperFunction,Conductor*%
%TO.N,/MCU/ADC_1*%
G36*
X166950180Y-133409672D02*
G01*
X166952855Y-133413818D01*
X167163903Y-133973725D01*
X167163614Y-133982675D01*
X167157082Y-133988800D01*
X167155272Y-133989320D01*
X166852317Y-134050531D01*
X166847683Y-134050531D01*
X166544727Y-133989320D01*
X166537296Y-133984323D01*
X166535576Y-133975535D01*
X166536094Y-133973731D01*
X166747145Y-133413817D01*
X166753270Y-133407286D01*
X166758093Y-133406245D01*
X166941907Y-133406245D01*
X166950180Y-133409672D01*
G37*
%TD.AperFunction*%
%TD*%
%TA.AperFunction,Conductor*%
%TO.N,/MCU/ADC_1*%
G36*
X167089545Y-128376007D02*
G01*
X167090620Y-128376641D01*
X167346637Y-128546591D01*
X167351634Y-128554022D01*
X167351647Y-128554086D01*
X167411512Y-128859115D01*
X167409743Y-128867893D01*
X167404237Y-128872286D01*
X166947606Y-129048179D01*
X166938654Y-129047955D01*
X166935127Y-129045534D01*
X166805148Y-128915555D01*
X166801721Y-128907282D01*
X166803038Y-128901888D01*
X167073767Y-128380992D01*
X167080623Y-128375233D01*
X167089545Y-128376007D01*
G37*
%TD.AperFunction*%
%TD*%
%TA.AperFunction,Conductor*%
%TO.N,/MCU/ADC_2*%
G36*
X165255273Y-128510680D02*
G01*
X165262703Y-128515676D01*
X165264423Y-128524464D01*
X165263903Y-128526274D01*
X165052855Y-129086182D01*
X165046730Y-129092714D01*
X165041907Y-129093755D01*
X164858093Y-129093755D01*
X164849820Y-129090328D01*
X164847145Y-129086182D01*
X164636096Y-128526274D01*
X164636385Y-128517324D01*
X164642917Y-128511199D01*
X164644715Y-128510682D01*
X164947684Y-128449468D01*
X164952316Y-128449468D01*
X165255273Y-128510680D01*
G37*
%TD.AperFunction*%
%TD*%
%TA.AperFunction,Conductor*%
%TO.N,/MCU/ADC_2*%
G36*
X165559339Y-135063066D02*
G01*
X166052421Y-135178670D01*
X166059693Y-135183895D01*
X166061231Y-135192314D01*
X166001647Y-135495913D01*
X165996691Y-135503372D01*
X165996637Y-135503408D01*
X165739503Y-135674100D01*
X165730715Y-135675820D01*
X165723295Y-135670839D01*
X165416897Y-135210981D01*
X165415162Y-135202196D01*
X165418359Y-135196223D01*
X165548398Y-135066184D01*
X165556670Y-135062758D01*
X165559339Y-135063066D01*
G37*
%TD.AperFunction*%
%TD*%
%TA.AperFunction,Conductor*%
%TO.N,/MCU/CAN_CLK*%
G36*
X183322878Y-131477421D02*
G01*
X183868028Y-131724101D01*
X183874153Y-131730633D01*
X183873864Y-131739583D01*
X183872953Y-131741231D01*
X183702014Y-131998737D01*
X183698737Y-132002014D01*
X183441231Y-132172953D01*
X183432443Y-132174673D01*
X183425012Y-132169676D01*
X183424101Y-132168028D01*
X183348388Y-132000707D01*
X183177421Y-131622879D01*
X183177133Y-131613930D01*
X183179806Y-131609786D01*
X183309785Y-131479807D01*
X183318057Y-131476381D01*
X183322878Y-131477421D01*
G37*
%TD.AperFunction*%
%TD*%
%TA.AperFunction,Conductor*%
%TO.N,/MCU/CAN_CLK*%
G36*
X172667450Y-131240342D02*
G01*
X172672015Y-131246337D01*
X172689643Y-131299000D01*
X172782291Y-131575789D01*
X172844841Y-131762656D01*
X172844217Y-131771589D01*
X172837460Y-131777465D01*
X172833746Y-131778070D01*
X172652422Y-131778070D01*
X172647778Y-131777109D01*
X172182298Y-131575789D01*
X172176064Y-131569359D01*
X172176203Y-131560406D01*
X172177200Y-131558570D01*
X172347298Y-131303058D01*
X172354732Y-131298073D01*
X172658674Y-131238569D01*
X172667450Y-131240342D01*
G37*
%TD.AperFunction*%
%TD*%
%TA.AperFunction,Conductor*%
%TO.N,/MCU/MOSI*%
G36*
X189535405Y-140221633D02*
G01*
X189718021Y-140257773D01*
X189725472Y-140262740D01*
X189727227Y-140266979D01*
X189888824Y-141083550D01*
X189887069Y-141092331D01*
X189881039Y-141096923D01*
X188612033Y-141518963D01*
X188603101Y-141518322D01*
X188600068Y-141516134D01*
X188468866Y-141384932D01*
X188465439Y-141376659D01*
X188466037Y-141372967D01*
X188888078Y-140103958D01*
X188893939Y-140097192D01*
X188901449Y-140096176D01*
X189535405Y-140221633D01*
G37*
%TD.AperFunction*%
%TD*%
%TA.AperFunction,Conductor*%
%TO.N,/MCU/MOSI*%
G36*
X175666272Y-141836095D02*
G01*
X176226182Y-142047145D01*
X176232714Y-142053270D01*
X176233755Y-142058093D01*
X176233755Y-142241906D01*
X176230328Y-142250179D01*
X176226182Y-142252854D01*
X175666274Y-142463903D01*
X175657324Y-142463614D01*
X175651199Y-142457082D01*
X175650681Y-142455281D01*
X175589468Y-142152316D01*
X175589468Y-142147683D01*
X175650680Y-141844724D01*
X175655676Y-141837296D01*
X175664464Y-141835576D01*
X175666272Y-141836095D01*
G37*
%TD.AperFunction*%
%TD*%
%TA.AperFunction,Conductor*%
%TO.N,/MCU/MOSI*%
G36*
X166190215Y-144579808D02*
G01*
X166320191Y-144709784D01*
X166323618Y-144718057D01*
X166322577Y-144722880D01*
X166075898Y-145268028D01*
X166069366Y-145274153D01*
X166060416Y-145273864D01*
X166058771Y-145272955D01*
X165801262Y-145102014D01*
X165797985Y-145098737D01*
X165627045Y-144841229D01*
X165625326Y-144832443D01*
X165630323Y-144825012D01*
X165631963Y-144824105D01*
X166177120Y-144577421D01*
X166186069Y-144577133D01*
X166190215Y-144579808D01*
G37*
%TD.AperFunction*%
%TD*%
%TA.AperFunction,Conductor*%
%TO.N,/MCU/MOSI*%
G36*
X175415065Y-141888144D02*
G01*
X175588276Y-142145946D01*
X175590045Y-142154724D01*
X175590032Y-142154788D01*
X175529115Y-142456284D01*
X175524118Y-142463715D01*
X175515330Y-142465435D01*
X175514380Y-142465202D01*
X174954678Y-142302452D01*
X174947691Y-142296851D01*
X174946245Y-142291217D01*
X174946245Y-142107391D01*
X174949672Y-142099118D01*
X174952917Y-142096827D01*
X175400331Y-141884102D01*
X175409272Y-141883645D01*
X175415065Y-141888144D01*
G37*
%TD.AperFunction*%
%TD*%
%TA.AperFunction,Conductor*%
%TO.N,/Ch_EN_12*%
G36*
X165474987Y-137930323D02*
G01*
X165475898Y-137931971D01*
X165722577Y-138477119D01*
X165722866Y-138486069D01*
X165720191Y-138490215D01*
X165590215Y-138620191D01*
X165581942Y-138623618D01*
X165577119Y-138622577D01*
X165031971Y-138375898D01*
X165025846Y-138369366D01*
X165026135Y-138360416D01*
X165027038Y-138358780D01*
X165197987Y-138101259D01*
X165201259Y-138097987D01*
X165458771Y-137927045D01*
X165467556Y-137925326D01*
X165474987Y-137930323D01*
G37*
%TD.AperFunction*%
%TD*%
%TA.AperFunction,Conductor*%
%TO.N,/Ch_EN_12*%
G36*
X166846477Y-139603048D02*
G01*
X167026249Y-139738358D01*
X167271749Y-139923140D01*
X167276298Y-139930853D01*
X167274461Y-139938959D01*
X167103408Y-140196637D01*
X167095977Y-140201634D01*
X167095913Y-140201647D01*
X166793129Y-140261071D01*
X166784351Y-140259302D01*
X166779395Y-140251843D01*
X166779331Y-140251484D01*
X166697884Y-139744257D01*
X166699956Y-139735547D01*
X166701157Y-139734137D01*
X166831171Y-139604123D01*
X166839443Y-139600697D01*
X166846477Y-139603048D01*
G37*
%TD.AperFunction*%
%TD*%
%TA.AperFunction,Conductor*%
%TO.N,SCL*%
G36*
X153425232Y-135884144D02*
G01*
X153863118Y-135991505D01*
X153868605Y-135994595D01*
X153997890Y-136123880D01*
X154001317Y-136132153D01*
X153997890Y-136140426D01*
X153996360Y-136141714D01*
X153540335Y-136463333D01*
X153531599Y-136465301D01*
X153524031Y-136460515D01*
X153523903Y-136460331D01*
X153352015Y-136204754D01*
X153350242Y-136195977D01*
X153350253Y-136195923D01*
X153391120Y-135992284D01*
X153411002Y-135893211D01*
X153415989Y-135885775D01*
X153424775Y-135884043D01*
X153425232Y-135884144D01*
G37*
%TD.AperFunction*%
%TD*%
%TA.AperFunction,Conductor*%
%TO.N,SCL*%
G36*
X177338957Y-136325537D02*
G01*
X177343044Y-136328250D01*
X177596637Y-136496591D01*
X177601634Y-136504022D01*
X177601647Y-136504086D01*
X177661071Y-136806870D01*
X177659302Y-136815648D01*
X177651843Y-136820604D01*
X177651445Y-136820675D01*
X177589089Y-136830688D01*
X177587234Y-136830836D01*
X177537150Y-136830836D01*
X177461447Y-136851120D01*
X177460274Y-136851371D01*
X177144259Y-136902115D01*
X177135547Y-136900043D01*
X177134131Y-136898836D01*
X177004124Y-136768829D01*
X177000697Y-136760556D01*
X177003048Y-136753522D01*
X177323141Y-136328249D01*
X177330853Y-136323701D01*
X177338957Y-136325537D01*
G37*
%TD.AperFunction*%
%TD*%
%TA.AperFunction,Conductor*%
%TO.N,SDA*%
G36*
X153814452Y-136999956D02*
G01*
X153815868Y-137001163D01*
X153945875Y-137131170D01*
X153949302Y-137139443D01*
X153946950Y-137146479D01*
X153626859Y-137571749D01*
X153619146Y-137576298D01*
X153611040Y-137574461D01*
X153353362Y-137403408D01*
X153348365Y-137395977D01*
X153348352Y-137395913D01*
X153288928Y-137093128D01*
X153290697Y-137084351D01*
X153298156Y-137079395D01*
X153298505Y-137079332D01*
X153805741Y-136997884D01*
X153814452Y-136999956D01*
G37*
%TD.AperFunction*%
%TD*%
%TA.AperFunction,Conductor*%
%TO.N,SDA*%
G36*
X177911455Y-137416991D02*
G01*
X177918888Y-137421985D01*
X177920612Y-137430772D01*
X177920047Y-137432703D01*
X177679002Y-138052212D01*
X177672808Y-138058679D01*
X177663855Y-138058873D01*
X177659825Y-138056242D01*
X177532425Y-137928842D01*
X177530230Y-137925794D01*
X177340708Y-137546113D01*
X177340080Y-137537183D01*
X177344669Y-137531168D01*
X177602999Y-137358334D01*
X177611774Y-137356582D01*
X177911455Y-137416991D01*
G37*
%TD.AperFunction*%
%TD*%
%TA.AperFunction,Conductor*%
%TO.N,/AMEAS_9*%
G36*
X175275961Y-125089506D02*
G01*
X175276310Y-125089997D01*
X175448276Y-125345946D01*
X175450045Y-125354724D01*
X175450032Y-125354788D01*
X175388748Y-125658102D01*
X175383751Y-125665533D01*
X175375814Y-125667393D01*
X174852348Y-125601292D01*
X174844570Y-125596856D01*
X174842114Y-125589684D01*
X174842114Y-125405852D01*
X174845541Y-125397579D01*
X174846790Y-125396495D01*
X175259582Y-125087158D01*
X175268257Y-125084940D01*
X175275961Y-125089506D01*
G37*
%TD.AperFunction*%
%TD*%
%TA.AperFunction,Conductor*%
%TO.N,/AMEAS_9*%
G36*
X137326272Y-125186095D02*
G01*
X137886182Y-125397145D01*
X137892714Y-125403270D01*
X137893755Y-125408093D01*
X137893755Y-125591906D01*
X137890328Y-125600179D01*
X137886182Y-125602854D01*
X137326274Y-125813903D01*
X137317324Y-125813614D01*
X137311199Y-125807082D01*
X137310681Y-125805281D01*
X137249468Y-125502316D01*
X137249468Y-125497683D01*
X137310680Y-125194724D01*
X137315676Y-125187296D01*
X137324464Y-125185576D01*
X137326272Y-125186095D01*
G37*
%TD.AperFunction*%
%TD*%
%TA.AperFunction,Conductor*%
%TO.N,/MCU/RS_DIR*%
G36*
X150103201Y-130727639D02*
G01*
X150103467Y-130727913D01*
X150460823Y-131109400D01*
X150463978Y-131117781D01*
X150460283Y-131125938D01*
X150458809Y-131127111D01*
X150204053Y-131298276D01*
X150195275Y-131300045D01*
X150195211Y-131300032D01*
X149890983Y-131238563D01*
X149883552Y-131233566D01*
X149881608Y-131226667D01*
X149885253Y-131127111D01*
X149899587Y-130735483D01*
X149903314Y-130727342D01*
X149911279Y-130724212D01*
X150094928Y-130724212D01*
X150103201Y-130727639D01*
G37*
%TD.AperFunction*%
%TD*%
%TA.AperFunction,Conductor*%
%TO.N,/MCU/RS_DIR*%
G36*
X175632675Y-127086385D02*
G01*
X175638800Y-127092917D01*
X175639320Y-127094727D01*
X175700531Y-127397683D01*
X175700531Y-127402317D01*
X175639320Y-127705272D01*
X175634323Y-127712703D01*
X175625535Y-127714423D01*
X175623725Y-127713903D01*
X175063818Y-127502854D01*
X175057286Y-127496729D01*
X175056245Y-127491906D01*
X175056245Y-127308093D01*
X175059672Y-127299820D01*
X175063816Y-127297146D01*
X175623726Y-127086096D01*
X175632675Y-127086385D01*
G37*
%TD.AperFunction*%
%TD*%
%TA.AperFunction,Conductor*%
%TO.N,Net-(Q203-G)*%
G36*
X100316821Y-55271284D02*
G01*
X100867792Y-55512189D01*
X100874000Y-55518643D01*
X100873825Y-55527596D01*
X100872853Y-55529380D01*
X100702014Y-55786737D01*
X100698737Y-55790014D01*
X100441083Y-55961050D01*
X100432295Y-55962770D01*
X100424864Y-55957773D01*
X100424015Y-55956262D01*
X100346196Y-55790014D01*
X100171564Y-55416937D01*
X100171161Y-55407991D01*
X100173886Y-55403706D01*
X100303862Y-55273730D01*
X100312134Y-55270304D01*
X100316821Y-55271284D01*
G37*
%TD.AperFunction*%
%TD*%
%TA.AperFunction,Conductor*%
%TO.N,Net-(Q203-G)*%
G36*
X91705273Y-49273178D02*
G01*
X91712703Y-49278174D01*
X91714423Y-49286962D01*
X91713903Y-49288772D01*
X91502855Y-49848680D01*
X91496730Y-49855212D01*
X91491907Y-49856253D01*
X91308093Y-49856253D01*
X91299820Y-49852826D01*
X91297145Y-49848680D01*
X91086096Y-49288772D01*
X91086385Y-49279822D01*
X91092917Y-49273697D01*
X91094715Y-49273180D01*
X91397684Y-49211966D01*
X91402316Y-49211966D01*
X91705273Y-49273178D01*
G37*
%TD.AperFunction*%
%TD*%
%TA.AperFunction,Conductor*%
%TO.N,MCU_3V3*%
G36*
X181406498Y-112311492D02*
G01*
X181410676Y-112315360D01*
X181950551Y-113142633D01*
X181952203Y-113151434D01*
X181949618Y-113156663D01*
X181666001Y-113485936D01*
X181658005Y-113489968D01*
X181657136Y-113490000D01*
X181267464Y-113490000D01*
X181259191Y-113486573D01*
X181259050Y-113486430D01*
X180939941Y-113156194D01*
X180936657Y-113147864D01*
X180938092Y-113142447D01*
X181390617Y-112316133D01*
X181397596Y-112310524D01*
X181406498Y-112311492D01*
G37*
%TD.AperFunction*%
%TD*%
%TA.AperFunction,Conductor*%
%TO.N,MCU_3V3*%
G36*
X181661225Y-116709672D02*
G01*
X181664414Y-116715599D01*
X181778903Y-117275104D01*
X181777205Y-117283897D01*
X181769787Y-117288912D01*
X181769758Y-117288918D01*
X181464817Y-117350531D01*
X181460183Y-117350531D01*
X181155241Y-117288918D01*
X181147810Y-117283921D01*
X181146090Y-117275134D01*
X181260586Y-116715599D01*
X181265601Y-116708181D01*
X181272048Y-116706245D01*
X181652952Y-116706245D01*
X181661225Y-116709672D01*
G37*
%TD.AperFunction*%
%TD*%
%TA.AperFunction,Conductor*%
%TO.N,MCU_3V3*%
G36*
X158134402Y-124298086D02*
G01*
X158141819Y-124303100D01*
X158143755Y-124309547D01*
X158143755Y-124690452D01*
X158140328Y-124698725D01*
X158134401Y-124701914D01*
X157574895Y-124816403D01*
X157566102Y-124814705D01*
X157561087Y-124807287D01*
X157561081Y-124807258D01*
X157539152Y-124698725D01*
X157499468Y-124502316D01*
X157499468Y-124497683D01*
X157539410Y-124300000D01*
X157561081Y-124192740D01*
X157566078Y-124185310D01*
X157574864Y-124183590D01*
X158134402Y-124298086D01*
G37*
%TD.AperFunction*%
%TD*%
%TA.AperFunction,Conductor*%
%TO.N,MCU_3V3*%
G36*
X201073032Y-141142627D02*
G01*
X201342372Y-141411967D01*
X201345799Y-141420240D01*
X201343863Y-141426687D01*
X201029189Y-141903272D01*
X201021771Y-141908287D01*
X201012978Y-141906589D01*
X201012954Y-141906573D01*
X200753761Y-141734515D01*
X200750484Y-141731238D01*
X200578426Y-141472045D01*
X200576706Y-141463257D01*
X200581703Y-141455826D01*
X200581727Y-141455810D01*
X200625835Y-141426687D01*
X201058315Y-141141135D01*
X201067105Y-141139438D01*
X201073032Y-141142627D01*
G37*
%TD.AperFunction*%
%TD*%
%TA.AperFunction,Conductor*%
%TO.N,MCU_3V3*%
G36*
X202207258Y-137511081D02*
G01*
X202214689Y-137516078D01*
X202216409Y-137524866D01*
X202216403Y-137524895D01*
X202101914Y-138084401D01*
X202096899Y-138091819D01*
X202090452Y-138093755D01*
X201709548Y-138093755D01*
X201701275Y-138090328D01*
X201698086Y-138084401D01*
X201583596Y-137524895D01*
X201585294Y-137516102D01*
X201592711Y-137511087D01*
X201897684Y-137449468D01*
X201902316Y-137449468D01*
X202207258Y-137511081D01*
G37*
%TD.AperFunction*%
%TD*%
%TA.AperFunction,Conductor*%
%TO.N,MCU_3V3*%
G36*
X201775432Y-136430029D02*
G01*
X201776149Y-136431266D01*
X202091519Y-137061132D01*
X202092159Y-137070064D01*
X202086295Y-137076832D01*
X202081057Y-137078070D01*
X201702986Y-137078070D01*
X201697378Y-137076638D01*
X201330648Y-136876349D01*
X201325030Y-136869376D01*
X201325988Y-136860473D01*
X201326517Y-136859597D01*
X201498697Y-136600956D01*
X201501958Y-136597698D01*
X201759213Y-136426758D01*
X201767999Y-136425035D01*
X201775432Y-136430029D01*
G37*
%TD.AperFunction*%
%TD*%
%TA.AperFunction,Conductor*%
%TO.N,MCU_3V3*%
G36*
X201909337Y-136733197D02*
G01*
X201911590Y-136736363D01*
X202165791Y-137260295D01*
X202166320Y-137269234D01*
X202161795Y-137275111D01*
X201904755Y-137447984D01*
X201895977Y-137449757D01*
X201895923Y-137449746D01*
X201591696Y-137388693D01*
X201584259Y-137383706D01*
X201582363Y-137375996D01*
X201621139Y-137008530D01*
X201624500Y-137001488D01*
X201892792Y-136733196D01*
X201901064Y-136729770D01*
X201909337Y-136733197D01*
G37*
%TD.AperFunction*%
%TD*%
%TA.AperFunction,Conductor*%
%TO.N,MCU_3V3*%
G36*
X201194183Y-136008634D02*
G01*
X201549588Y-136243295D01*
X201670771Y-136323309D01*
X201675786Y-136330727D01*
X201674088Y-136339520D01*
X201674072Y-136339544D01*
X201502014Y-136598737D01*
X201498737Y-136602014D01*
X201239544Y-136774072D01*
X201230756Y-136775792D01*
X201223325Y-136770795D01*
X201223309Y-136770771D01*
X201111021Y-136600707D01*
X200908634Y-136294183D01*
X200906937Y-136285393D01*
X200910124Y-136279468D01*
X201179467Y-136010125D01*
X201187739Y-136006699D01*
X201194183Y-136008634D01*
G37*
%TD.AperFunction*%
%TD*%
%TA.AperFunction,Conductor*%
%TO.N,MCU_3V3*%
G36*
X191184402Y-134598086D02*
G01*
X191191819Y-134603100D01*
X191193755Y-134609547D01*
X191193755Y-134990452D01*
X191190328Y-134998725D01*
X191184401Y-135001914D01*
X190624895Y-135116403D01*
X190616102Y-135114705D01*
X190611087Y-135107287D01*
X190611081Y-135107258D01*
X190589152Y-134998725D01*
X190549468Y-134802316D01*
X190549468Y-134797683D01*
X190589410Y-134600000D01*
X190611081Y-134492740D01*
X190616078Y-134485310D01*
X190624864Y-134483590D01*
X191184402Y-134598086D01*
G37*
%TD.AperFunction*%
%TD*%
%TA.AperFunction,Conductor*%
%TO.N,MCU_3V3*%
G36*
X180770533Y-129510126D02*
G01*
X181039873Y-129779466D01*
X181043300Y-129787739D01*
X181041364Y-129794186D01*
X180726690Y-130270771D01*
X180719272Y-130275786D01*
X180710479Y-130274088D01*
X180710455Y-130274072D01*
X180451262Y-130102014D01*
X180447985Y-130098737D01*
X180275927Y-129839544D01*
X180274207Y-129830756D01*
X180279204Y-129823325D01*
X180279228Y-129823309D01*
X180323336Y-129794186D01*
X180755816Y-129508634D01*
X180764606Y-129506937D01*
X180770533Y-129510126D01*
G37*
%TD.AperFunction*%
%TD*%
%TA.AperFunction,Conductor*%
%TO.N,MCU_3V3*%
G36*
X181757258Y-126161081D02*
G01*
X181764689Y-126166078D01*
X181766409Y-126174866D01*
X181766403Y-126174895D01*
X181651914Y-126734401D01*
X181646899Y-126741819D01*
X181640452Y-126743755D01*
X181259548Y-126743755D01*
X181251275Y-126740328D01*
X181248086Y-126734401D01*
X181133596Y-126174895D01*
X181135294Y-126166102D01*
X181142711Y-126161087D01*
X181447684Y-126099468D01*
X181452316Y-126099468D01*
X181757258Y-126161081D01*
G37*
%TD.AperFunction*%
%TD*%
%TA.AperFunction,Conductor*%
%TO.N,MCU_3V3*%
G36*
X170306683Y-124008634D02*
G01*
X170662088Y-124243295D01*
X170783271Y-124323309D01*
X170788286Y-124330727D01*
X170786588Y-124339520D01*
X170786572Y-124339544D01*
X170614514Y-124598737D01*
X170611237Y-124602014D01*
X170352044Y-124774072D01*
X170343256Y-124775792D01*
X170335825Y-124770795D01*
X170335809Y-124770771D01*
X170223521Y-124600707D01*
X170021134Y-124294183D01*
X170019437Y-124285393D01*
X170022624Y-124279468D01*
X170291967Y-124010125D01*
X170300239Y-124006699D01*
X170306683Y-124008634D01*
G37*
%TD.AperFunction*%
%TD*%
%TA.AperFunction,Conductor*%
%TO.N,MCU_3V3*%
G36*
X169507258Y-121611081D02*
G01*
X169514689Y-121616078D01*
X169516409Y-121624866D01*
X169516403Y-121624895D01*
X169401914Y-122184401D01*
X169396899Y-122191819D01*
X169390452Y-122193755D01*
X169009548Y-122193755D01*
X169001275Y-122190328D01*
X168998086Y-122184401D01*
X168883596Y-121624895D01*
X168885294Y-121616102D01*
X168892711Y-121611087D01*
X169197684Y-121549468D01*
X169202316Y-121549468D01*
X169507258Y-121611081D01*
G37*
%TD.AperFunction*%
%TD*%
%TA.AperFunction,Conductor*%
%TO.N,MCU_3V3*%
G36*
X168952231Y-121093610D02*
G01*
X169246749Y-121221615D01*
X169367735Y-121274198D01*
X169373956Y-121280638D01*
X169373801Y-121289592D01*
X169372810Y-121291412D01*
X169201303Y-121549041D01*
X169198039Y-121552302D01*
X168940011Y-121723756D01*
X168931224Y-121725480D01*
X168923791Y-121720486D01*
X168923483Y-121719996D01*
X168668334Y-121291412D01*
X168560527Y-121110325D01*
X168559240Y-121101464D01*
X168564596Y-121094288D01*
X168570581Y-121092641D01*
X168947568Y-121092641D01*
X168952231Y-121093610D01*
G37*
%TD.AperFunction*%
%TD*%
%TA.AperFunction,Conductor*%
%TO.N,MCU_3V3*%
G36*
X168754076Y-120650253D02*
G01*
X168821321Y-120663747D01*
X169058303Y-120711306D01*
X169065740Y-120716293D01*
X169067636Y-120724005D01*
X169028860Y-121091467D01*
X169025498Y-121098512D01*
X168757208Y-121366802D01*
X168748935Y-121370229D01*
X168740662Y-121366802D01*
X168738409Y-121363636D01*
X168484207Y-120839702D01*
X168483679Y-120830765D01*
X168488202Y-120824890D01*
X168745246Y-120652014D01*
X168754022Y-120650242D01*
X168754076Y-120650253D01*
G37*
%TD.AperFunction*%
%TD*%
%TA.AperFunction,Conductor*%
%TO.N,MCU_3V3*%
G36*
X153334402Y-132446613D02*
G01*
X153341819Y-132451627D01*
X153343755Y-132458074D01*
X153343755Y-132838979D01*
X153340328Y-132847252D01*
X153334401Y-132850441D01*
X152774895Y-132964930D01*
X152766102Y-132963232D01*
X152761087Y-132955814D01*
X152761081Y-132955785D01*
X152739152Y-132847252D01*
X152699468Y-132650843D01*
X152699468Y-132646210D01*
X152739410Y-132448527D01*
X152761081Y-132341267D01*
X152766078Y-132333837D01*
X152774864Y-132332117D01*
X153334402Y-132446613D01*
G37*
%TD.AperFunction*%
%TD*%
%TA.AperFunction,Conductor*%
%TO.N,MCU_3V3*%
G36*
X154919183Y-132733634D02*
G01*
X155274588Y-132968295D01*
X155395771Y-133048309D01*
X155400786Y-133055727D01*
X155399088Y-133064520D01*
X155399072Y-133064544D01*
X155227014Y-133323737D01*
X155223737Y-133327014D01*
X154964544Y-133499072D01*
X154955756Y-133500792D01*
X154948325Y-133495795D01*
X154948309Y-133495771D01*
X154836021Y-133325707D01*
X154633634Y-133019183D01*
X154631937Y-133010393D01*
X154635124Y-133004468D01*
X154904467Y-132735125D01*
X154912739Y-132731699D01*
X154919183Y-132733634D01*
G37*
%TD.AperFunction*%
%TD*%
%TA.AperFunction,Conductor*%
%TO.N,Net-(U1305-AVCC)*%
G36*
X145842772Y-130210680D02*
G01*
X145850202Y-130215676D01*
X145851922Y-130224464D01*
X145851402Y-130226274D01*
X145640354Y-130786182D01*
X145634229Y-130792714D01*
X145629406Y-130793755D01*
X145445592Y-130793755D01*
X145437319Y-130790328D01*
X145434644Y-130786182D01*
X145223595Y-130226274D01*
X145223884Y-130217324D01*
X145230416Y-130211199D01*
X145232214Y-130210682D01*
X145535183Y-130149468D01*
X145539815Y-130149468D01*
X145842772Y-130210680D01*
G37*
%TD.AperFunction*%
%TD*%
%TA.AperFunction,Conductor*%
%TO.N,Net-(U1305-AVCC)*%
G36*
X143490215Y-133729808D02*
G01*
X143620191Y-133859784D01*
X143623618Y-133868057D01*
X143622577Y-133872880D01*
X143375898Y-134418028D01*
X143369366Y-134424153D01*
X143360416Y-134423864D01*
X143358771Y-134422955D01*
X143101262Y-134252014D01*
X143097985Y-134248737D01*
X142927045Y-133991229D01*
X142925326Y-133982443D01*
X142930323Y-133975012D01*
X142931963Y-133974105D01*
X143477120Y-133727421D01*
X143486069Y-133727133D01*
X143490215Y-133729808D01*
G37*
%TD.AperFunction*%
%TD*%
%TA.AperFunction,Conductor*%
%TO.N,/Ch_AL_1*%
G36*
X143909016Y-126411436D02*
G01*
X143916447Y-126416433D01*
X143918391Y-126423332D01*
X143900413Y-126914516D01*
X143896686Y-126922658D01*
X143888721Y-126925788D01*
X143705072Y-126925788D01*
X143696799Y-126922361D01*
X143696533Y-126922087D01*
X143339176Y-126540599D01*
X143336021Y-126532218D01*
X143339716Y-126524061D01*
X143341185Y-126522891D01*
X143595947Y-126351722D01*
X143604722Y-126349954D01*
X143909016Y-126411436D01*
G37*
%TD.AperFunction*%
%TD*%
%TA.AperFunction,Conductor*%
%TO.N,/Ch_AL_1*%
G36*
X142102278Y-140734375D02*
G01*
X142482011Y-140924017D01*
X142485057Y-140926211D01*
X142612453Y-141053607D01*
X142615880Y-141061880D01*
X142612453Y-141070153D01*
X142608420Y-141072785D01*
X141988864Y-141313714D01*
X141979912Y-141313518D01*
X141973719Y-141307049D01*
X141973157Y-141305128D01*
X141912754Y-141005476D01*
X141914477Y-140996694D01*
X142087330Y-140738336D01*
X142094777Y-140733366D01*
X142102278Y-140734375D01*
G37*
%TD.AperFunction*%
%TD*%
%TA.AperFunction,Conductor*%
%TO.N,/Ch_EN_11*%
G36*
X141455273Y-127560680D02*
G01*
X141462703Y-127565676D01*
X141464423Y-127574464D01*
X141463903Y-127576274D01*
X141252855Y-128136182D01*
X141246730Y-128142714D01*
X141241907Y-128143755D01*
X141058093Y-128143755D01*
X141049820Y-128140328D01*
X141047145Y-128136182D01*
X140836096Y-127576274D01*
X140836385Y-127567324D01*
X140842917Y-127561199D01*
X140844715Y-127560682D01*
X141147684Y-127499468D01*
X141152316Y-127499468D01*
X141455273Y-127560680D01*
G37*
%TD.AperFunction*%
%TD*%
%TA.AperFunction,Conductor*%
%TO.N,/Ch_EN_11*%
G36*
X141250180Y-135409672D02*
G01*
X141252855Y-135413818D01*
X141463903Y-135973725D01*
X141463614Y-135982675D01*
X141457082Y-135988800D01*
X141455272Y-135989320D01*
X141152317Y-136050531D01*
X141147683Y-136050531D01*
X140844727Y-135989320D01*
X140837296Y-135984323D01*
X140835576Y-135975535D01*
X140836094Y-135973731D01*
X141047145Y-135413817D01*
X141053270Y-135407286D01*
X141058093Y-135406245D01*
X141241907Y-135406245D01*
X141250180Y-135409672D01*
G37*
%TD.AperFunction*%
%TD*%
%TA.AperFunction,Conductor*%
%TO.N,/SOL_STAT_2*%
G36*
X138339583Y-127326135D02*
G01*
X138341224Y-127327042D01*
X138598737Y-127497985D01*
X138602014Y-127501262D01*
X138772953Y-127758768D01*
X138774673Y-127767556D01*
X138769676Y-127774987D01*
X138768028Y-127775898D01*
X138222880Y-128022577D01*
X138213930Y-128022866D01*
X138209784Y-128020191D01*
X138079808Y-127890215D01*
X138076381Y-127881942D01*
X138077421Y-127877122D01*
X138324102Y-127331969D01*
X138330633Y-127325846D01*
X138339583Y-127326135D01*
G37*
%TD.AperFunction*%
%TD*%
%TA.AperFunction,Conductor*%
%TO.N,/SOL_STAT_2*%
G36*
X140272878Y-136977421D02*
G01*
X140818028Y-137224101D01*
X140824153Y-137230633D01*
X140823864Y-137239583D01*
X140822953Y-137241231D01*
X140652014Y-137498737D01*
X140648737Y-137502014D01*
X140391231Y-137672953D01*
X140382443Y-137674673D01*
X140375012Y-137669676D01*
X140374101Y-137668028D01*
X140298388Y-137500707D01*
X140127421Y-137122879D01*
X140127133Y-137113930D01*
X140129806Y-137109786D01*
X140259785Y-136979807D01*
X140268057Y-136976381D01*
X140272878Y-136977421D01*
G37*
%TD.AperFunction*%
%TD*%
%TA.AperFunction,Conductor*%
%TO.N,+3V3*%
G36*
X153989520Y-113575911D02*
G01*
X153989544Y-113575927D01*
X154248737Y-113747985D01*
X154252014Y-113751262D01*
X154424072Y-114010455D01*
X154425792Y-114019243D01*
X154420795Y-114026674D01*
X154420771Y-114026690D01*
X153944186Y-114341364D01*
X153935393Y-114343062D01*
X153929466Y-114339873D01*
X153660126Y-114070533D01*
X153656699Y-114062260D01*
X153658633Y-114055817D01*
X153973309Y-113579227D01*
X153980727Y-113574213D01*
X153989520Y-113575911D01*
G37*
%TD.AperFunction*%
%TD*%
%TA.AperFunction,Conductor*%
%TO.N,+3V3*%
G36*
X125595401Y-114659085D02*
G01*
X125602818Y-114664099D01*
X125604754Y-114670546D01*
X125604754Y-115051451D01*
X125601327Y-115059724D01*
X125595400Y-115062913D01*
X125035894Y-115177402D01*
X125027101Y-115175704D01*
X125022086Y-115168286D01*
X125022080Y-115168257D01*
X125000151Y-115059724D01*
X124960467Y-114863315D01*
X124960467Y-114858682D01*
X125000409Y-114660999D01*
X125022080Y-114553739D01*
X125027077Y-114546309D01*
X125035863Y-114544589D01*
X125595401Y-114659085D01*
G37*
%TD.AperFunction*%
%TD*%
%TA.AperFunction,Conductor*%
%TO.N,/Ch_AL_1*%
G36*
X157076272Y-119086095D02*
G01*
X157636182Y-119297145D01*
X157642714Y-119303270D01*
X157643755Y-119308093D01*
X157643755Y-119491906D01*
X157640328Y-119500179D01*
X157636182Y-119502854D01*
X157076274Y-119713903D01*
X157067324Y-119713614D01*
X157061199Y-119707082D01*
X157060681Y-119705281D01*
X156999468Y-119402316D01*
X156999468Y-119397683D01*
X157060680Y-119094724D01*
X157065676Y-119087296D01*
X157074464Y-119085576D01*
X157076272Y-119086095D01*
G37*
%TD.AperFunction*%
%TD*%
%TA.AperFunction,Conductor*%
%TO.N,/Ch_AL_1*%
G36*
X163489583Y-117626135D02*
G01*
X163491224Y-117627042D01*
X163748737Y-117797985D01*
X163752014Y-117801262D01*
X163922953Y-118058768D01*
X163924673Y-118067556D01*
X163919676Y-118074987D01*
X163918028Y-118075898D01*
X163372880Y-118322577D01*
X163363930Y-118322866D01*
X163359784Y-118320191D01*
X163229808Y-118190215D01*
X163226381Y-118181942D01*
X163227421Y-118177122D01*
X163474102Y-117631969D01*
X163480633Y-117625846D01*
X163489583Y-117626135D01*
G37*
%TD.AperFunction*%
%TD*%
%TA.AperFunction,Conductor*%
%TO.N,/SOL_STAT_1*%
G36*
X150532675Y-120486385D02*
G01*
X150538800Y-120492917D01*
X150539320Y-120494727D01*
X150600531Y-120797683D01*
X150600531Y-120802317D01*
X150539320Y-121105272D01*
X150534323Y-121112703D01*
X150525535Y-121114423D01*
X150523725Y-121113903D01*
X149963818Y-120902854D01*
X149957286Y-120896729D01*
X149956245Y-120891906D01*
X149956245Y-120708093D01*
X149959672Y-120699820D01*
X149963816Y-120697146D01*
X150523726Y-120486096D01*
X150532675Y-120486385D01*
G37*
%TD.AperFunction*%
%TD*%
%TA.AperFunction,Conductor*%
%TO.N,/SOL_STAT_1*%
G36*
X139826272Y-120486095D02*
G01*
X139944837Y-120530786D01*
X139946542Y-120531594D01*
X139997006Y-120560729D01*
X140047161Y-120589687D01*
X140047165Y-120589689D01*
X140152570Y-120617931D01*
X140180814Y-120625499D01*
X140180816Y-120625500D01*
X140193977Y-120625500D01*
X140198103Y-120626251D01*
X140386182Y-120697145D01*
X140392714Y-120703270D01*
X140393755Y-120708093D01*
X140393755Y-120891906D01*
X140390328Y-120900179D01*
X140386182Y-120902854D01*
X139826274Y-121113903D01*
X139817324Y-121113614D01*
X139811199Y-121107082D01*
X139810681Y-121105281D01*
X139749468Y-120802316D01*
X139749468Y-120797683D01*
X139810680Y-120494724D01*
X139815676Y-120487296D01*
X139824464Y-120485576D01*
X139826272Y-120486095D01*
G37*
%TD.AperFunction*%
%TD*%
%TA.AperFunction,Conductor*%
%TO.N,Net-(U201-SRP)*%
G36*
X106945175Y-45936385D02*
G01*
X106951300Y-45942917D01*
X106951820Y-45944727D01*
X107013031Y-46247683D01*
X107013031Y-46252317D01*
X106951820Y-46555272D01*
X106946823Y-46562703D01*
X106938035Y-46564423D01*
X106936225Y-46563903D01*
X106376318Y-46352854D01*
X106369786Y-46346729D01*
X106368745Y-46341906D01*
X106368745Y-46158093D01*
X106372172Y-46149820D01*
X106376316Y-46147146D01*
X106936226Y-45936096D01*
X106945175Y-45936385D01*
G37*
%TD.AperFunction*%
%TD*%
%TA.AperFunction,Conductor*%
%TO.N,Net-(U201-SRP)*%
G36*
X95376272Y-51798593D02*
G01*
X95936182Y-52009643D01*
X95942714Y-52015768D01*
X95943755Y-52020591D01*
X95943755Y-52204404D01*
X95940328Y-52212677D01*
X95936182Y-52215352D01*
X95376274Y-52426401D01*
X95367324Y-52426112D01*
X95361199Y-52419580D01*
X95360681Y-52417779D01*
X95299468Y-52114814D01*
X95299468Y-52110181D01*
X95360680Y-51807222D01*
X95365676Y-51799794D01*
X95374464Y-51798074D01*
X95376272Y-51798593D01*
G37*
%TD.AperFunction*%
%TD*%
%TA.AperFunction,Conductor*%
%TO.N,+5V*%
G36*
X196221396Y-121135294D02*
G01*
X196226411Y-121142712D01*
X196226417Y-121142741D01*
X196288030Y-121447683D01*
X196288030Y-121452317D01*
X196226417Y-121757258D01*
X196221420Y-121764689D01*
X196212632Y-121766409D01*
X196212603Y-121766403D01*
X195653098Y-121651914D01*
X195645680Y-121646899D01*
X195643744Y-121640452D01*
X195643744Y-121259547D01*
X195647171Y-121251274D01*
X195653095Y-121248086D01*
X196212604Y-121133596D01*
X196221396Y-121135294D01*
G37*
%TD.AperFunction*%
%TD*%
%TA.AperFunction,Conductor*%
%TO.N,+5V*%
G36*
X180896902Y-106130586D02*
G01*
X180904319Y-106135600D01*
X180906255Y-106142047D01*
X180906255Y-106522952D01*
X180902828Y-106531225D01*
X180896901Y-106534414D01*
X180337395Y-106648903D01*
X180328602Y-106647205D01*
X180323587Y-106639787D01*
X180323581Y-106639758D01*
X180301652Y-106531225D01*
X180261968Y-106334816D01*
X180261968Y-106330183D01*
X180301910Y-106132500D01*
X180323581Y-106025240D01*
X180328578Y-106017810D01*
X180337364Y-106016090D01*
X180896902Y-106130586D01*
G37*
%TD.AperFunction*%
%TD*%
%TA.AperFunction,Conductor*%
%TO.N,+5V*%
G36*
X163303152Y-105335586D02*
G01*
X163310569Y-105340600D01*
X163312505Y-105347047D01*
X163312505Y-105727952D01*
X163309078Y-105736225D01*
X163303151Y-105739414D01*
X162743645Y-105853903D01*
X162734852Y-105852205D01*
X162729837Y-105844787D01*
X162729831Y-105844758D01*
X162707902Y-105736225D01*
X162668218Y-105539816D01*
X162668218Y-105535183D01*
X162708160Y-105337500D01*
X162729831Y-105230240D01*
X162734828Y-105222810D01*
X162743614Y-105221090D01*
X163303152Y-105335586D01*
G37*
%TD.AperFunction*%
%TD*%
%TA.AperFunction,Conductor*%
%TO.N,+5V*%
G36*
X82362052Y-57951075D02*
G01*
X82363409Y-57951852D01*
X82370349Y-57956472D01*
X82621541Y-58123694D01*
X82624802Y-58126958D01*
X82796004Y-58384607D01*
X82797728Y-58393394D01*
X82792734Y-58400827D01*
X82791876Y-58401346D01*
X82172103Y-58740523D01*
X82163200Y-58741488D01*
X82156222Y-58735876D01*
X82154786Y-58730259D01*
X82154786Y-58352696D01*
X82155967Y-58347574D01*
X82346412Y-57956470D01*
X82353114Y-57950534D01*
X82362052Y-57951075D01*
G37*
%TD.AperFunction*%
%TD*%
%TA.AperFunction,Conductor*%
%TO.N,+5V*%
G36*
X99458032Y-103110376D02*
G01*
X99727372Y-103379716D01*
X99730799Y-103387989D01*
X99728863Y-103394436D01*
X99414189Y-103871021D01*
X99406771Y-103876036D01*
X99397978Y-103874338D01*
X99397954Y-103874322D01*
X99138761Y-103702264D01*
X99135484Y-103698987D01*
X98963426Y-103439794D01*
X98961706Y-103431006D01*
X98966703Y-103423575D01*
X98966727Y-103423559D01*
X99010835Y-103394436D01*
X99443315Y-103108884D01*
X99452105Y-103107187D01*
X99458032Y-103110376D01*
G37*
%TD.AperFunction*%
%TD*%
%TA.AperFunction,Conductor*%
%TO.N,+5V*%
G36*
X121333897Y-102285294D02*
G01*
X121338912Y-102292712D01*
X121338918Y-102292741D01*
X121400531Y-102597683D01*
X121400531Y-102602317D01*
X121338918Y-102907258D01*
X121333921Y-102914689D01*
X121325133Y-102916409D01*
X121325104Y-102916403D01*
X120765599Y-102801914D01*
X120758181Y-102796899D01*
X120756245Y-102790452D01*
X120756245Y-102409547D01*
X120759672Y-102401274D01*
X120765596Y-102398086D01*
X121325105Y-102283596D01*
X121333897Y-102285294D01*
G37*
%TD.AperFunction*%
%TD*%
%TA.AperFunction,Conductor*%
%TO.N,+5V*%
G36*
X171144183Y-105841134D02*
G01*
X171499588Y-106075795D01*
X171620771Y-106155809D01*
X171625786Y-106163227D01*
X171624088Y-106172020D01*
X171624072Y-106172044D01*
X171452014Y-106431237D01*
X171448737Y-106434514D01*
X171189544Y-106606572D01*
X171180756Y-106608292D01*
X171173325Y-106603295D01*
X171173309Y-106603271D01*
X171061021Y-106433207D01*
X170858634Y-106126683D01*
X170856937Y-106117893D01*
X170860124Y-106111968D01*
X171129467Y-105842625D01*
X171137739Y-105839199D01*
X171144183Y-105841134D01*
G37*
%TD.AperFunction*%
%TD*%
%TA.AperFunction,Conductor*%
%TO.N,/MPPT_~{EN}*%
G36*
X160147603Y-117551819D02*
G01*
X160604238Y-117727714D01*
X160610725Y-117733885D01*
X160611512Y-117740884D01*
X160551647Y-118045913D01*
X160546691Y-118053372D01*
X160546637Y-118053408D01*
X160290620Y-118223358D01*
X160281832Y-118225078D01*
X160274401Y-118220081D01*
X160273767Y-118219006D01*
X160003039Y-117698113D01*
X160002265Y-117689191D01*
X160005146Y-117684446D01*
X160135128Y-117554464D01*
X160143400Y-117551038D01*
X160147603Y-117551819D01*
G37*
%TD.AperFunction*%
%TD*%
%TA.AperFunction,Conductor*%
%TO.N,/MPPT_~{EN}*%
G36*
X70678725Y-51931208D02*
G01*
X72176103Y-52497141D01*
X72182631Y-52503271D01*
X72183667Y-52508085D01*
X72183667Y-52693559D01*
X72180240Y-52701832D01*
X72178224Y-52703445D01*
X70981870Y-53460650D01*
X70973047Y-53462179D01*
X70965891Y-53457274D01*
X70501704Y-52764039D01*
X70499949Y-52755258D01*
X70499949Y-52755256D01*
X70663120Y-51939855D01*
X70668104Y-51932417D01*
X70676889Y-51930680D01*
X70678725Y-51931208D01*
G37*
%TD.AperFunction*%
%TD*%
%TA.AperFunction,Conductor*%
%TO.N,/SWITCH_ALERT*%
G36*
X107798774Y-68716180D02*
G01*
X107806204Y-68721176D01*
X107807924Y-68729964D01*
X107807404Y-68731774D01*
X107596356Y-69291682D01*
X107590231Y-69298214D01*
X107585408Y-69299255D01*
X107401594Y-69299255D01*
X107393321Y-69295828D01*
X107390646Y-69291682D01*
X107179597Y-68731774D01*
X107179886Y-68722824D01*
X107186418Y-68716699D01*
X107188216Y-68716182D01*
X107491185Y-68654968D01*
X107495817Y-68654968D01*
X107798774Y-68716180D01*
G37*
%TD.AperFunction*%
%TD*%
%TA.AperFunction,Conductor*%
%TO.N,/SWITCH_ALERT*%
G36*
X119077110Y-78800659D02*
G01*
X119551013Y-79084667D01*
X119902754Y-79295464D01*
X119908089Y-79302656D01*
X119906776Y-79311514D01*
X119902754Y-79315536D01*
X119077112Y-79810339D01*
X119068254Y-79811652D01*
X119062092Y-79807772D01*
X118731195Y-79408748D01*
X118728501Y-79401279D01*
X118728501Y-79209720D01*
X118731195Y-79202251D01*
X119062094Y-78803225D01*
X119070011Y-78799047D01*
X119077110Y-78800659D01*
G37*
%TD.AperFunction*%
%TD*%
%TA.AperFunction,Conductor*%
%TO.N,/SWITCH_ALERT*%
G36*
X107588330Y-82139436D02*
G01*
X107591757Y-82147709D01*
X107591645Y-82149324D01*
X107513962Y-82706662D01*
X107509426Y-82714383D01*
X107500759Y-82716635D01*
X107500126Y-82716529D01*
X107198288Y-82657437D01*
X107190829Y-82652486D01*
X107019473Y-82395084D01*
X107017741Y-82386298D01*
X107022727Y-82378862D01*
X107390580Y-82137921D01*
X107396991Y-82136009D01*
X107580057Y-82136009D01*
X107588330Y-82139436D01*
G37*
%TD.AperFunction*%
%TD*%
%TA.AperFunction,Conductor*%
%TO.N,/Ch_EN_12*%
G36*
X176063440Y-56918650D02*
G01*
X176068407Y-56926101D01*
X176068629Y-56928196D01*
X176091234Y-58431187D01*
X176087932Y-58439511D01*
X176087808Y-58439636D01*
X175956667Y-58570777D01*
X175948394Y-58574204D01*
X175941908Y-58572242D01*
X174772258Y-57793236D01*
X174767272Y-57785798D01*
X174769005Y-57777013D01*
X175231350Y-57083336D01*
X175238786Y-57078354D01*
X176054661Y-56916895D01*
X176063440Y-56918650D01*
G37*
%TD.AperFunction*%
%TD*%
%TA.AperFunction,Conductor*%
%TO.N,/Ch_EN_12*%
G36*
X180676272Y-67986095D02*
G01*
X181236182Y-68197145D01*
X181242714Y-68203270D01*
X181243755Y-68208093D01*
X181243755Y-68391906D01*
X181240328Y-68400179D01*
X181236182Y-68402854D01*
X180676274Y-68613903D01*
X180667324Y-68613614D01*
X180661199Y-68607082D01*
X180660681Y-68605281D01*
X180599468Y-68302316D01*
X180599468Y-68297683D01*
X180660680Y-67994724D01*
X180665676Y-67987296D01*
X180674464Y-67985576D01*
X180676272Y-67986095D01*
G37*
%TD.AperFunction*%
%TD*%
%TA.AperFunction,Conductor*%
%TO.N,/Ch_EN_12*%
G36*
X177735128Y-67609672D02*
G01*
X177737704Y-67613568D01*
X177963491Y-68173540D01*
X177963407Y-68182494D01*
X177957015Y-68188766D01*
X177954957Y-68189383D01*
X177652317Y-68250531D01*
X177647683Y-68250531D01*
X177344415Y-68189256D01*
X177336984Y-68184259D01*
X177335264Y-68175471D01*
X177335691Y-68173916D01*
X177532007Y-67614073D01*
X177537979Y-67607400D01*
X177543048Y-67606245D01*
X177726855Y-67606245D01*
X177735128Y-67609672D01*
G37*
%TD.AperFunction*%
%TD*%
%TA.AperFunction,Conductor*%
%TO.N,/Ch_EN_12*%
G36*
X186898027Y-73363450D02*
G01*
X187357811Y-73536260D01*
X187364349Y-73542377D01*
X187365175Y-73549464D01*
X187305326Y-73854413D01*
X187300370Y-73861872D01*
X187300316Y-73861908D01*
X187044221Y-74031910D01*
X187035433Y-74033630D01*
X187028002Y-74028633D01*
X187027407Y-74027632D01*
X186753587Y-73509853D01*
X186752750Y-73500939D01*
X186755656Y-73496114D01*
X186885641Y-73366129D01*
X186893913Y-73362703D01*
X186898027Y-73363450D01*
G37*
%TD.AperFunction*%
%TD*%
%TA.AperFunction,Conductor*%
%TO.N,/Ch_EN_11*%
G36*
X179011024Y-55607095D02*
G01*
X179570934Y-55818145D01*
X179577466Y-55824270D01*
X179578507Y-55829093D01*
X179578507Y-56012906D01*
X179575080Y-56021179D01*
X179570934Y-56023854D01*
X179011026Y-56234903D01*
X179002076Y-56234614D01*
X178995951Y-56228082D01*
X178995433Y-56226281D01*
X178934220Y-55923316D01*
X178934220Y-55918683D01*
X178995432Y-55615724D01*
X179000428Y-55608296D01*
X179009216Y-55606576D01*
X179011024Y-55607095D01*
G37*
%TD.AperFunction*%
%TD*%
%TA.AperFunction,Conductor*%
%TO.N,/Ch_EN_11*%
G36*
X187290025Y-60994180D02*
G01*
X187297455Y-60999176D01*
X187299175Y-61007964D01*
X187298655Y-61009774D01*
X187087607Y-61569682D01*
X187081482Y-61576214D01*
X187076659Y-61577255D01*
X186892845Y-61577255D01*
X186884572Y-61573828D01*
X186881897Y-61569682D01*
X186670848Y-61009774D01*
X186671137Y-61000824D01*
X186677669Y-60994699D01*
X186679467Y-60994182D01*
X186982436Y-60932968D01*
X186987068Y-60932968D01*
X187290025Y-60994180D01*
G37*
%TD.AperFunction*%
%TD*%
%TA.AperFunction,Conductor*%
%TO.N,/Ch_EN_11*%
G36*
X179276272Y-79636095D02*
G01*
X179836182Y-79847145D01*
X179842714Y-79853270D01*
X179843755Y-79858093D01*
X179843755Y-80041906D01*
X179840328Y-80050179D01*
X179836182Y-80052854D01*
X179276274Y-80263903D01*
X179267324Y-80263614D01*
X179261199Y-80257082D01*
X179260681Y-80255281D01*
X179199468Y-79952316D01*
X179199468Y-79947683D01*
X179260680Y-79644724D01*
X179265676Y-79637296D01*
X179274464Y-79635576D01*
X179276272Y-79636095D01*
G37*
%TD.AperFunction*%
%TD*%
%TA.AperFunction,Conductor*%
%TO.N,/Ch_EN_11*%
G36*
X186607630Y-60410921D02*
G01*
X187152780Y-60657601D01*
X187158905Y-60664133D01*
X187158616Y-60673083D01*
X187157705Y-60674731D01*
X186986766Y-60932237D01*
X186983489Y-60935514D01*
X186725983Y-61106453D01*
X186717195Y-61108173D01*
X186709764Y-61103176D01*
X186708853Y-61101528D01*
X186633140Y-60934207D01*
X186462173Y-60556379D01*
X186461885Y-60547430D01*
X186464558Y-60543286D01*
X186594537Y-60413307D01*
X186602809Y-60409881D01*
X186607630Y-60410921D01*
G37*
%TD.AperFunction*%
%TD*%
%TA.AperFunction,Conductor*%
%TO.N,/Ch_EN_11*%
G36*
X175249517Y-52003817D02*
G01*
X176077315Y-52245906D01*
X176084293Y-52251517D01*
X176085651Y-52255778D01*
X176174220Y-53014080D01*
X176171776Y-53022695D01*
X176170872Y-53023710D01*
X176038923Y-53155659D01*
X176030650Y-53159086D01*
X176026284Y-53158240D01*
X175689380Y-53022695D01*
X175267231Y-52852853D01*
X175260835Y-52846586D01*
X175259903Y-52842361D01*
X175234539Y-52015406D01*
X175237711Y-52007032D01*
X175245875Y-52003353D01*
X175249517Y-52003817D01*
G37*
%TD.AperFunction*%
%TD*%
%TA.AperFunction,Conductor*%
%TO.N,/Ch_EN_11*%
G36*
X178557630Y-55398421D02*
G01*
X179102780Y-55645101D01*
X179108905Y-55651633D01*
X179108616Y-55660583D01*
X179107705Y-55662231D01*
X178936766Y-55919737D01*
X178933489Y-55923014D01*
X178675983Y-56093953D01*
X178667195Y-56095673D01*
X178659764Y-56090676D01*
X178658853Y-56089028D01*
X178583140Y-55921707D01*
X178412173Y-55543879D01*
X178411885Y-55534930D01*
X178414558Y-55530786D01*
X178544537Y-55400807D01*
X178552809Y-55397381D01*
X178557630Y-55398421D01*
G37*
%TD.AperFunction*%
%TD*%
%TA.AperFunction,Conductor*%
%TO.N,/Ch_AL_1*%
G36*
X187404530Y-67815123D02*
G01*
X187534497Y-67945090D01*
X187537924Y-67953363D01*
X187536727Y-67958518D01*
X187276099Y-68489596D01*
X187269378Y-68495513D01*
X187260441Y-68494944D01*
X187259125Y-68494189D01*
X187001262Y-68323014D01*
X186997985Y-68319737D01*
X186827287Y-68062593D01*
X186825567Y-68053805D01*
X186830564Y-68046374D01*
X186832537Y-68045321D01*
X187391764Y-67812593D01*
X187400716Y-67812579D01*
X187404530Y-67815123D01*
G37*
%TD.AperFunction*%
%TD*%
%TA.AperFunction,Conductor*%
%TO.N,/Ch_AL_1*%
G36*
X186609739Y-55751323D02*
G01*
X186610650Y-55752971D01*
X186857329Y-56298119D01*
X186857618Y-56307069D01*
X186854943Y-56311215D01*
X186724967Y-56441191D01*
X186716694Y-56444618D01*
X186711871Y-56443577D01*
X186166723Y-56196898D01*
X186160598Y-56190366D01*
X186160887Y-56181416D01*
X186161790Y-56179780D01*
X186332739Y-55922259D01*
X186336011Y-55918987D01*
X186593523Y-55748045D01*
X186602308Y-55746326D01*
X186609739Y-55751323D01*
G37*
%TD.AperFunction*%
%TD*%
%TA.AperFunction,Conductor*%
%TO.N,Net-(Q202-G)*%
G36*
X100438345Y-50100649D02*
G01*
X100696939Y-50272798D01*
X100701926Y-50280235D01*
X100701937Y-50280289D01*
X100760755Y-50580726D01*
X100758982Y-50589504D01*
X100751521Y-50594456D01*
X100749623Y-50594669D01*
X100166462Y-50612137D01*
X100158090Y-50608959D01*
X100154417Y-50600792D01*
X100154412Y-50600442D01*
X100154412Y-50416864D01*
X100157271Y-50409200D01*
X100423024Y-50102723D01*
X100431032Y-50098719D01*
X100438345Y-50100649D01*
G37*
%TD.AperFunction*%
%TD*%
%TA.AperFunction,Conductor*%
%TO.N,Net-(Q202-G)*%
G36*
X88726799Y-48394521D02*
G01*
X89286709Y-48605571D01*
X89293241Y-48611696D01*
X89294282Y-48616519D01*
X89294282Y-48800332D01*
X89290855Y-48808605D01*
X89286709Y-48811280D01*
X88726801Y-49022329D01*
X88717851Y-49022040D01*
X88711726Y-49015508D01*
X88711208Y-49013707D01*
X88649995Y-48710742D01*
X88649995Y-48706109D01*
X88711207Y-48403150D01*
X88716203Y-48395722D01*
X88724991Y-48394002D01*
X88726799Y-48394521D01*
G37*
%TD.AperFunction*%
%TD*%
%TA.AperFunction,Conductor*%
%TO.N,/battery/DSG*%
G36*
X62237679Y-146222173D02*
G01*
X62240354Y-146226319D01*
X62451402Y-146786226D01*
X62451113Y-146795176D01*
X62444581Y-146801301D01*
X62442771Y-146801821D01*
X62139816Y-146863032D01*
X62135182Y-146863032D01*
X61832226Y-146801821D01*
X61824795Y-146796824D01*
X61823075Y-146788036D01*
X61823593Y-146786232D01*
X62034644Y-146226318D01*
X62040769Y-146219787D01*
X62045592Y-146218746D01*
X62229406Y-146218746D01*
X62237679Y-146222173D01*
G37*
%TD.AperFunction*%
%TD*%
%TA.AperFunction,Conductor*%
%TO.N,/battery/DSG*%
G36*
X68732675Y-141686385D02*
G01*
X68738800Y-141692917D01*
X68739320Y-141694727D01*
X68800531Y-141997683D01*
X68800531Y-142002317D01*
X68739320Y-142305272D01*
X68734323Y-142312703D01*
X68725535Y-142314423D01*
X68723725Y-142313903D01*
X68163818Y-142102854D01*
X68157286Y-142096729D01*
X68156245Y-142091906D01*
X68156245Y-141908093D01*
X68159672Y-141899820D01*
X68163816Y-141897146D01*
X68723726Y-141686096D01*
X68732675Y-141686385D01*
G37*
%TD.AperFunction*%
%TD*%
%TA.AperFunction,Conductor*%
%TO.N,/battery/CHG*%
G36*
X75498113Y-149303039D02*
G01*
X76019006Y-149573768D01*
X76024766Y-149580624D01*
X76023992Y-149589546D01*
X76023358Y-149590621D01*
X75853408Y-149846638D01*
X75845977Y-149851635D01*
X75845913Y-149851648D01*
X75540884Y-149911513D01*
X75532106Y-149909744D01*
X75527714Y-149904240D01*
X75351820Y-149447604D01*
X75352044Y-149438654D01*
X75354462Y-149435130D01*
X75484445Y-149305147D01*
X75492717Y-149301721D01*
X75498113Y-149303039D01*
G37*
%TD.AperFunction*%
%TD*%
%TA.AperFunction,Conductor*%
%TO.N,/battery/CHG*%
G36*
X70055273Y-142560680D02*
G01*
X70062703Y-142565676D01*
X70064423Y-142574464D01*
X70063903Y-142576274D01*
X69852855Y-143136182D01*
X69846730Y-143142714D01*
X69841907Y-143143755D01*
X69658093Y-143143755D01*
X69649820Y-143140328D01*
X69647145Y-143136182D01*
X69436096Y-142576274D01*
X69436385Y-142567324D01*
X69442917Y-142561199D01*
X69444715Y-142560682D01*
X69747684Y-142499468D01*
X69752316Y-142499468D01*
X70055273Y-142560680D01*
G37*
%TD.AperFunction*%
%TD*%
%TA.AperFunction,Conductor*%
%TO.N,+3V3*%
G36*
X99394183Y-122358634D02*
G01*
X99749588Y-122593295D01*
X99870771Y-122673309D01*
X99875786Y-122680727D01*
X99874088Y-122689520D01*
X99874072Y-122689544D01*
X99702014Y-122948737D01*
X99698737Y-122952014D01*
X99439544Y-123124072D01*
X99430756Y-123125792D01*
X99423325Y-123120795D01*
X99423309Y-123120771D01*
X99311021Y-122950707D01*
X99108634Y-122644183D01*
X99106937Y-122635393D01*
X99110124Y-122629468D01*
X99379467Y-122360125D01*
X99387739Y-122356699D01*
X99394183Y-122358634D01*
G37*
%TD.AperFunction*%
%TD*%
%TA.AperFunction,Conductor*%
%TO.N,SDA*%
G36*
X81163142Y-148518634D02*
G01*
X81388423Y-148655296D01*
X81659892Y-148819977D01*
X81665188Y-148827198D01*
X81664786Y-148834071D01*
X81357625Y-149657168D01*
X81351522Y-149663721D01*
X81342572Y-149664039D01*
X81337796Y-149660711D01*
X81204797Y-149506236D01*
X80628683Y-148837092D01*
X80625884Y-148828588D01*
X80629917Y-148820593D01*
X80632934Y-148818709D01*
X81013874Y-148655295D01*
X81148804Y-148520364D01*
X81157076Y-148516938D01*
X81163142Y-148518634D01*
G37*
%TD.AperFunction*%
%TD*%
%TA.AperFunction,Conductor*%
%TO.N,SDA*%
G36*
X72324987Y-142030323D02*
G01*
X72325898Y-142031971D01*
X72572577Y-142577119D01*
X72572866Y-142586069D01*
X72570191Y-142590215D01*
X72440215Y-142720191D01*
X72431942Y-142723618D01*
X72427119Y-142722577D01*
X71881971Y-142475898D01*
X71875846Y-142469366D01*
X71876135Y-142460416D01*
X71877038Y-142458780D01*
X72047987Y-142201259D01*
X72051259Y-142197987D01*
X72308771Y-142027045D01*
X72317556Y-142025326D01*
X72324987Y-142030323D01*
G37*
%TD.AperFunction*%
%TD*%
%TA.AperFunction,Conductor*%
%TO.N,SCL*%
G36*
X82777033Y-148416037D02*
G01*
X83036245Y-148502244D01*
X84046040Y-148838078D01*
X84052808Y-148843939D01*
X84053824Y-148851450D01*
X83892227Y-149668021D01*
X83887260Y-149675472D01*
X83883021Y-149677227D01*
X83066450Y-149838824D01*
X83057669Y-149837069D01*
X83053078Y-149831040D01*
X82631037Y-148562033D01*
X82631678Y-148553101D01*
X82633863Y-148550071D01*
X82765069Y-148418865D01*
X82773341Y-148415439D01*
X82777033Y-148416037D01*
G37*
%TD.AperFunction*%
%TD*%
%TA.AperFunction,Conductor*%
%TO.N,SCL*%
G36*
X73376272Y-141736096D02*
G01*
X73936182Y-141947146D01*
X73942714Y-141953271D01*
X73943755Y-141958094D01*
X73943755Y-142141907D01*
X73940328Y-142150180D01*
X73936182Y-142152855D01*
X73376274Y-142363904D01*
X73367324Y-142363615D01*
X73361199Y-142357083D01*
X73360681Y-142355282D01*
X73299468Y-142052317D01*
X73299468Y-142047684D01*
X73360680Y-141744725D01*
X73365676Y-141737297D01*
X73374464Y-141735577D01*
X73376272Y-141736096D01*
G37*
%TD.AperFunction*%
%TD*%
%TA.AperFunction,Conductor*%
%TO.N,/SOL_STAT_2*%
G36*
X87449841Y-54405158D02*
G01*
X87966162Y-54577984D01*
X87972919Y-54583860D01*
X87973930Y-54591327D01*
X87914437Y-54895212D01*
X87909485Y-54902673D01*
X87909439Y-54902703D01*
X87653933Y-55072796D01*
X87645147Y-55074528D01*
X87637710Y-55069541D01*
X87636710Y-55067701D01*
X87435391Y-54602221D01*
X87434430Y-54597577D01*
X87434430Y-54416254D01*
X87437857Y-54407981D01*
X87446130Y-54404554D01*
X87449841Y-54405158D01*
G37*
%TD.AperFunction*%
%TD*%
%TA.AperFunction,Conductor*%
%TO.N,/SOL_STAT_2*%
G36*
X85588772Y-54186095D02*
G01*
X86148682Y-54397145D01*
X86155214Y-54403270D01*
X86156255Y-54408093D01*
X86156255Y-54591906D01*
X86152828Y-54600179D01*
X86148682Y-54602854D01*
X85588774Y-54813903D01*
X85579824Y-54813614D01*
X85573699Y-54807082D01*
X85573181Y-54805281D01*
X85511968Y-54502316D01*
X85511968Y-54497683D01*
X85573180Y-54194724D01*
X85578176Y-54187296D01*
X85586964Y-54185576D01*
X85588772Y-54186095D01*
G37*
%TD.AperFunction*%
%TD*%
%TA.AperFunction,Conductor*%
%TO.N,/SOL_STAT_2*%
G36*
X84982675Y-91736385D02*
G01*
X84988800Y-91742917D01*
X84989320Y-91744727D01*
X85050531Y-92047683D01*
X85050531Y-92052317D01*
X84989320Y-92355272D01*
X84984323Y-92362703D01*
X84975535Y-92364423D01*
X84973725Y-92363903D01*
X84413818Y-92152854D01*
X84407286Y-92146729D01*
X84406245Y-92141906D01*
X84406245Y-91958093D01*
X84409672Y-91949820D01*
X84413816Y-91947146D01*
X84973726Y-91736096D01*
X84982675Y-91736385D01*
G37*
%TD.AperFunction*%
%TD*%
%TA.AperFunction,Conductor*%
%TO.N,/SOL_STAT_2*%
G36*
X55703406Y-53422634D02*
G01*
X55886022Y-53458774D01*
X55893473Y-53463741D01*
X55895228Y-53467980D01*
X56056825Y-54284551D01*
X56055070Y-54293332D01*
X56049040Y-54297924D01*
X54780034Y-54719964D01*
X54771102Y-54719323D01*
X54768069Y-54717135D01*
X54636867Y-54585933D01*
X54633440Y-54577660D01*
X54634038Y-54573968D01*
X55056079Y-53304959D01*
X55061940Y-53298193D01*
X55069450Y-53297177D01*
X55703406Y-53422634D01*
G37*
%TD.AperFunction*%
%TD*%
%TA.AperFunction,Conductor*%
%TO.N,/switch_c1/PG*%
G36*
X97964516Y-107649838D02*
G01*
X97972658Y-107653565D01*
X97975788Y-107661530D01*
X97975788Y-107845178D01*
X97972361Y-107853451D01*
X97972087Y-107853717D01*
X97590599Y-108211074D01*
X97582218Y-108214229D01*
X97574061Y-108210534D01*
X97572888Y-108209060D01*
X97401723Y-107954304D01*
X97399954Y-107945527D01*
X97461436Y-107641233D01*
X97466433Y-107633803D01*
X97473330Y-107631859D01*
X97964516Y-107649838D01*
G37*
%TD.AperFunction*%
%TD*%
%TA.AperFunction,Conductor*%
%TO.N,/switch_c1/PG*%
G36*
X110435060Y-107634981D02*
G01*
X110438563Y-107641234D01*
X110500032Y-107945462D01*
X110498312Y-107954250D01*
X110498276Y-107954304D01*
X110327111Y-108209060D01*
X110319652Y-108214016D01*
X110310874Y-108212247D01*
X110309400Y-108211074D01*
X109927913Y-107853717D01*
X109924218Y-107845560D01*
X109924212Y-107845178D01*
X109924212Y-107661530D01*
X109927639Y-107653257D01*
X109935482Y-107649838D01*
X110426668Y-107631859D01*
X110435060Y-107634981D01*
G37*
%TD.AperFunction*%
%TD*%
%TA.AperFunction,Conductor*%
%TO.N,/UniversalSwitch/AMEAS*%
G36*
X181374335Y-58934635D02*
G01*
X181375976Y-58935542D01*
X181633489Y-59106485D01*
X181636766Y-59109762D01*
X181807705Y-59367268D01*
X181809425Y-59376056D01*
X181804428Y-59383487D01*
X181802780Y-59384398D01*
X181257632Y-59631077D01*
X181248682Y-59631366D01*
X181244536Y-59628691D01*
X181114560Y-59498715D01*
X181111133Y-59490442D01*
X181112173Y-59485622D01*
X181358854Y-58940469D01*
X181365385Y-58934346D01*
X181374335Y-58934635D01*
G37*
%TD.AperFunction*%
%TD*%
%TA.AperFunction,Conductor*%
%TO.N,/UniversalSwitch/AMEAS*%
G36*
X181526557Y-71510921D02*
G01*
X182071707Y-71757601D01*
X182077832Y-71764133D01*
X182077543Y-71773083D01*
X182076632Y-71774731D01*
X181905693Y-72032237D01*
X181902416Y-72035514D01*
X181644910Y-72206453D01*
X181636122Y-72208173D01*
X181628691Y-72203176D01*
X181627780Y-72201528D01*
X181552067Y-72034207D01*
X181381100Y-71656379D01*
X181380812Y-71647430D01*
X181383485Y-71643286D01*
X181513464Y-71513307D01*
X181521736Y-71509881D01*
X181526557Y-71510921D01*
G37*
%TD.AperFunction*%
%TD*%
%TA.AperFunction,Conductor*%
%TO.N,/battery/Switch_Batt_Heater/PG*%
G36*
X112372402Y-139059781D02*
G01*
X112376111Y-139066221D01*
X112437532Y-139370212D01*
X112435812Y-139379000D01*
X112435776Y-139379054D01*
X112264353Y-139634195D01*
X112256894Y-139639151D01*
X112248116Y-139637382D01*
X112246936Y-139636475D01*
X111852707Y-139291496D01*
X111848738Y-139283469D01*
X111848712Y-139282691D01*
X111848712Y-139099015D01*
X111852139Y-139090742D01*
X111859704Y-139087336D01*
X112363939Y-139056859D01*
X112372402Y-139059781D01*
G37*
%TD.AperFunction*%
%TD*%
%TA.AperFunction,Conductor*%
%TO.N,/battery/Switch_Batt_Heater/PG*%
G36*
X99963772Y-138874096D02*
G01*
X100523682Y-139085146D01*
X100530214Y-139091271D01*
X100531255Y-139096094D01*
X100531255Y-139279907D01*
X100527828Y-139288180D01*
X100523682Y-139290855D01*
X99963774Y-139501904D01*
X99954824Y-139501615D01*
X99948699Y-139495083D01*
X99948181Y-139493282D01*
X99886968Y-139190317D01*
X99886968Y-139185684D01*
X99948180Y-138882725D01*
X99953176Y-138875297D01*
X99961964Y-138873577D01*
X99963772Y-138874096D01*
G37*
%TD.AperFunction*%
%TD*%
%TA.AperFunction,Conductor*%
%TO.N,/SOL_EN_1*%
G36*
X73732675Y-62236385D02*
G01*
X73738800Y-62242917D01*
X73739320Y-62244727D01*
X73800531Y-62547683D01*
X73800531Y-62552317D01*
X73739320Y-62855272D01*
X73734323Y-62862703D01*
X73725535Y-62864423D01*
X73723725Y-62863903D01*
X73163818Y-62652854D01*
X73157286Y-62646729D01*
X73156245Y-62641906D01*
X73156245Y-62458093D01*
X73159672Y-62449820D01*
X73163816Y-62447146D01*
X73723726Y-62236096D01*
X73732675Y-62236385D01*
G37*
%TD.AperFunction*%
%TD*%
%TA.AperFunction,Conductor*%
%TO.N,/SOL_EN_1*%
G36*
X70456946Y-62260432D02*
G01*
X71016760Y-62447331D01*
X71023521Y-62453201D01*
X71024754Y-62458428D01*
X71024754Y-62642235D01*
X71021327Y-62650508D01*
X71017598Y-62653016D01*
X70570440Y-62841484D01*
X70561486Y-62841540D01*
X70556184Y-62837228D01*
X70382722Y-62579053D01*
X70380953Y-62570276D01*
X70441782Y-62269215D01*
X70446779Y-62261785D01*
X70455567Y-62260065D01*
X70456946Y-62260432D01*
G37*
%TD.AperFunction*%
%TD*%
%TA.AperFunction,Conductor*%
%TO.N,/SOL_EN_1*%
G36*
X139782675Y-142086385D02*
G01*
X139788800Y-142092917D01*
X139789320Y-142094727D01*
X139850531Y-142397683D01*
X139850531Y-142402317D01*
X139789320Y-142705272D01*
X139784323Y-142712703D01*
X139775535Y-142714423D01*
X139773725Y-142713903D01*
X139213818Y-142502854D01*
X139207286Y-142496729D01*
X139206245Y-142491906D01*
X139206245Y-142308093D01*
X139209672Y-142299820D01*
X139213816Y-142297146D01*
X139773726Y-142086096D01*
X139782675Y-142086385D01*
G37*
%TD.AperFunction*%
%TD*%
%TA.AperFunction,Conductor*%
%TO.N,/SOL_EN_1*%
G36*
X81469931Y-64302658D02*
G01*
X81798754Y-64705822D01*
X81801327Y-64714399D01*
X81797960Y-64721490D01*
X81668013Y-64851437D01*
X81659740Y-64854864D01*
X81658399Y-64854787D01*
X81142175Y-64795206D01*
X81134349Y-64790853D01*
X81131893Y-64782242D01*
X81132033Y-64781342D01*
X81191353Y-64479085D01*
X81196308Y-64471628D01*
X81454394Y-64300304D01*
X81463181Y-64298585D01*
X81469931Y-64302658D01*
G37*
%TD.AperFunction*%
%TD*%
%TA.AperFunction,Conductor*%
%TO.N,/solar/Switch_SOL_1/PG*%
G36*
X67619272Y-72161095D02*
G01*
X68179182Y-72372145D01*
X68185714Y-72378270D01*
X68186755Y-72383093D01*
X68186755Y-72566906D01*
X68183328Y-72575179D01*
X68179182Y-72577854D01*
X67619274Y-72788903D01*
X67610324Y-72788614D01*
X67604199Y-72782082D01*
X67603681Y-72780281D01*
X67542468Y-72477316D01*
X67542468Y-72472683D01*
X67603680Y-72169724D01*
X67608676Y-72162296D01*
X67617464Y-72160576D01*
X67619272Y-72161095D01*
G37*
%TD.AperFunction*%
%TD*%
%TA.AperFunction,Conductor*%
%TO.N,/solar/Switch_SOL_1/PG*%
G36*
X81145084Y-72701135D02*
G01*
X81146725Y-72702042D01*
X81404238Y-72872985D01*
X81407515Y-72876262D01*
X81578454Y-73133768D01*
X81580174Y-73142556D01*
X81575177Y-73149987D01*
X81573529Y-73150898D01*
X81028381Y-73397577D01*
X81019431Y-73397866D01*
X81015285Y-73395191D01*
X80885309Y-73265215D01*
X80881882Y-73256942D01*
X80882922Y-73252122D01*
X81129603Y-72706969D01*
X81136134Y-72700846D01*
X81145084Y-72701135D01*
G37*
%TD.AperFunction*%
%TD*%
%TA.AperFunction,Conductor*%
%TO.N,/SW_BATT_11*%
G36*
X136176272Y-121936095D02*
G01*
X136736182Y-122147145D01*
X136742714Y-122153270D01*
X136743755Y-122158093D01*
X136743755Y-122341906D01*
X136740328Y-122350179D01*
X136736182Y-122352854D01*
X136176274Y-122563903D01*
X136167324Y-122563614D01*
X136161199Y-122557082D01*
X136160681Y-122555281D01*
X136099468Y-122252316D01*
X136099468Y-122247683D01*
X136160680Y-121944724D01*
X136165676Y-121937296D01*
X136174464Y-121935576D01*
X136176272Y-121936095D01*
G37*
%TD.AperFunction*%
%TD*%
%TA.AperFunction,Conductor*%
%TO.N,/SW_BATT_11*%
G36*
X173755273Y-116110680D02*
G01*
X173762703Y-116115676D01*
X173764423Y-116124464D01*
X173763903Y-116126274D01*
X173552855Y-116686182D01*
X173546730Y-116692714D01*
X173541907Y-116693755D01*
X173358093Y-116693755D01*
X173349820Y-116690328D01*
X173347145Y-116686182D01*
X173136096Y-116126274D01*
X173136385Y-116117324D01*
X173142917Y-116111199D01*
X173144715Y-116110682D01*
X173447684Y-116049468D01*
X173452316Y-116049468D01*
X173755273Y-116110680D01*
G37*
%TD.AperFunction*%
%TD*%
%TA.AperFunction,Conductor*%
%TO.N,/SW_BATT_11*%
G36*
X182790215Y-136179808D02*
G01*
X182920191Y-136309784D01*
X182923618Y-136318057D01*
X182922577Y-136322880D01*
X182675898Y-136868028D01*
X182669366Y-136874153D01*
X182660416Y-136873864D01*
X182658771Y-136872955D01*
X182401262Y-136702014D01*
X182397985Y-136698737D01*
X182227045Y-136441229D01*
X182225326Y-136432443D01*
X182230323Y-136425012D01*
X182231963Y-136424105D01*
X182777120Y-136177421D01*
X182786069Y-136177133D01*
X182790215Y-136179808D01*
G37*
%TD.AperFunction*%
%TD*%
%TA.AperFunction,Conductor*%
%TO.N,/SW_BATT_11*%
G36*
X171332675Y-115736385D02*
G01*
X171338800Y-115742917D01*
X171339320Y-115744727D01*
X171400531Y-116047683D01*
X171400531Y-116052317D01*
X171339320Y-116355272D01*
X171334323Y-116362703D01*
X171325535Y-116364423D01*
X171323725Y-116363903D01*
X170763818Y-116152854D01*
X170757286Y-116146729D01*
X170756245Y-116141906D01*
X170756245Y-115958093D01*
X170759672Y-115949820D01*
X170763816Y-115947146D01*
X171323726Y-115736096D01*
X171332675Y-115736385D01*
G37*
%TD.AperFunction*%
%TD*%
%TA.AperFunction,Conductor*%
%TO.N,/HEAT_BATT_1*%
G36*
X169939583Y-143926135D02*
G01*
X169941224Y-143927042D01*
X170198737Y-144097985D01*
X170202014Y-144101262D01*
X170372953Y-144358768D01*
X170374673Y-144367556D01*
X170369676Y-144374987D01*
X170368028Y-144375898D01*
X169822880Y-144622577D01*
X169813930Y-144622866D01*
X169809784Y-144620191D01*
X169679808Y-144490215D01*
X169676381Y-144481942D01*
X169677421Y-144477122D01*
X169924102Y-143931969D01*
X169930633Y-143925846D01*
X169939583Y-143926135D01*
G37*
%TD.AperFunction*%
%TD*%
%TA.AperFunction,Conductor*%
%TO.N,/HEAT_BATT_1*%
G36*
X100402715Y-146467809D02*
G01*
X100532691Y-146597785D01*
X100536118Y-146606058D01*
X100535077Y-146610881D01*
X100288398Y-147156029D01*
X100281866Y-147162154D01*
X100272916Y-147161865D01*
X100271271Y-147160956D01*
X100013762Y-146990015D01*
X100010485Y-146986738D01*
X99839545Y-146729230D01*
X99837826Y-146720444D01*
X99842823Y-146713013D01*
X99844463Y-146712106D01*
X100389620Y-146465422D01*
X100398569Y-146465134D01*
X100402715Y-146467809D01*
G37*
%TD.AperFunction*%
%TD*%
%TA.AperFunction,Conductor*%
%TO.N,/HEAT_BATT_1*%
G36*
X112072878Y-146552422D02*
G01*
X112618028Y-146799102D01*
X112624153Y-146805634D01*
X112623864Y-146814584D01*
X112622953Y-146816232D01*
X112452014Y-147073738D01*
X112448737Y-147077015D01*
X112191231Y-147247954D01*
X112182443Y-147249674D01*
X112175012Y-147244677D01*
X112174101Y-147243029D01*
X112098388Y-147075708D01*
X111927421Y-146697880D01*
X111927133Y-146688931D01*
X111929806Y-146684787D01*
X112059785Y-146554808D01*
X112068057Y-146551382D01*
X112072878Y-146552422D01*
G37*
%TD.AperFunction*%
%TD*%
%TA.AperFunction,Conductor*%
%TO.N,/HEAT_BATT_1*%
G36*
X141376272Y-152686095D02*
G01*
X141936182Y-152897145D01*
X141942714Y-152903270D01*
X141943755Y-152908093D01*
X141943755Y-153091906D01*
X141940328Y-153100179D01*
X141936182Y-153102854D01*
X141376274Y-153313903D01*
X141367324Y-153313614D01*
X141361199Y-153307082D01*
X141360681Y-153305281D01*
X141299468Y-153002316D01*
X141299468Y-152997683D01*
X141360680Y-152694724D01*
X141365676Y-152687296D01*
X141374464Y-152685576D01*
X141376272Y-152686095D01*
G37*
%TD.AperFunction*%
%TD*%
%TA.AperFunction,Conductor*%
%TO.N,/BATT_ALERT_1*%
G36*
X137126272Y-123136095D02*
G01*
X137686182Y-123347145D01*
X137692714Y-123353270D01*
X137693755Y-123358093D01*
X137693755Y-123541906D01*
X137690328Y-123550179D01*
X137686182Y-123552854D01*
X137126274Y-123763903D01*
X137117324Y-123763614D01*
X137111199Y-123757082D01*
X137110681Y-123755281D01*
X137049468Y-123452316D01*
X137049468Y-123447683D01*
X137110680Y-123144724D01*
X137115676Y-123137296D01*
X137124464Y-123135576D01*
X137126272Y-123136095D01*
G37*
%TD.AperFunction*%
%TD*%
%TA.AperFunction,Conductor*%
%TO.N,/BATT_ALERT_1*%
G36*
X160682675Y-123136385D02*
G01*
X160688800Y-123142917D01*
X160689320Y-123144727D01*
X160750531Y-123447683D01*
X160750531Y-123452317D01*
X160689320Y-123755272D01*
X160684323Y-123762703D01*
X160675535Y-123764423D01*
X160673725Y-123763903D01*
X160113818Y-123552854D01*
X160107286Y-123546729D01*
X160106245Y-123541906D01*
X160106245Y-123358093D01*
X160109672Y-123349820D01*
X160113816Y-123347146D01*
X160673726Y-123136096D01*
X160682675Y-123136385D01*
G37*
%TD.AperFunction*%
%TD*%
%TA.AperFunction,Conductor*%
%TO.N,/MCU/MISO*%
G36*
X189535405Y-142761632D02*
G01*
X189718021Y-142797772D01*
X189725472Y-142802739D01*
X189727227Y-142806978D01*
X189888824Y-143623549D01*
X189887069Y-143632330D01*
X189881039Y-143636922D01*
X188612033Y-144058962D01*
X188603101Y-144058321D01*
X188600068Y-144056133D01*
X188468866Y-143924931D01*
X188465439Y-143916658D01*
X188466037Y-143912966D01*
X188888078Y-142643957D01*
X188893939Y-142637191D01*
X188901449Y-142636175D01*
X189535405Y-142761632D01*
G37*
%TD.AperFunction*%
%TD*%
%TA.AperFunction,Conductor*%
%TO.N,/MCU/MISO*%
G36*
X166776272Y-144886095D02*
G01*
X167336182Y-145097145D01*
X167342714Y-145103270D01*
X167343755Y-145108093D01*
X167343755Y-145291906D01*
X167340328Y-145300179D01*
X167336182Y-145302854D01*
X166776274Y-145513903D01*
X166767324Y-145513614D01*
X166761199Y-145507082D01*
X166760681Y-145505281D01*
X166699468Y-145202316D01*
X166699468Y-145197683D01*
X166760680Y-144894724D01*
X166765676Y-144887296D01*
X166774464Y-144885576D01*
X166776272Y-144886095D01*
G37*
%TD.AperFunction*%
%TD*%
%TA.AperFunction,Conductor*%
%TO.N,/MCU/MISO*%
G36*
X176674987Y-142630323D02*
G01*
X176675898Y-142631971D01*
X176922577Y-143177119D01*
X176922866Y-143186069D01*
X176920191Y-143190215D01*
X176790215Y-143320191D01*
X176781942Y-143323618D01*
X176777119Y-143322577D01*
X176231971Y-143075898D01*
X176225846Y-143069366D01*
X176226135Y-143060416D01*
X176227038Y-143058780D01*
X176397987Y-142801259D01*
X176401259Y-142797987D01*
X176658771Y-142627045D01*
X176667556Y-142625326D01*
X176674987Y-142630323D01*
G37*
%TD.AperFunction*%
%TD*%
%TA.AperFunction,Conductor*%
%TO.N,/MCU/MISO*%
G36*
X176332675Y-142486385D02*
G01*
X176338800Y-142492917D01*
X176339320Y-142494727D01*
X176400531Y-142797683D01*
X176400531Y-142802317D01*
X176339320Y-143105272D01*
X176334323Y-143112703D01*
X176325535Y-143114423D01*
X176323725Y-143113903D01*
X175763818Y-142902854D01*
X175757286Y-142896729D01*
X175756245Y-142891906D01*
X175756245Y-142708093D01*
X175759672Y-142699820D01*
X175763816Y-142697146D01*
X176323726Y-142486096D01*
X176332675Y-142486385D01*
G37*
%TD.AperFunction*%
%TD*%
%TA.AperFunction,Conductor*%
%TO.N,/MCU/TX*%
G36*
X173222878Y-146277421D02*
G01*
X173768028Y-146524101D01*
X173774153Y-146530633D01*
X173773864Y-146539583D01*
X173772953Y-146541231D01*
X173602014Y-146798737D01*
X173598737Y-146802014D01*
X173341231Y-146972953D01*
X173332443Y-146974673D01*
X173325012Y-146969676D01*
X173324101Y-146968028D01*
X173248388Y-146800707D01*
X173077421Y-146422879D01*
X173077133Y-146413930D01*
X173079806Y-146409786D01*
X173209785Y-146279807D01*
X173218057Y-146276381D01*
X173222878Y-146277421D01*
G37*
%TD.AperFunction*%
%TD*%
%TA.AperFunction,Conductor*%
%TO.N,/MCU/TX*%
G36*
X172005273Y-143760680D02*
G01*
X172012703Y-143765676D01*
X172014423Y-143774464D01*
X172013903Y-143776274D01*
X171802855Y-144336182D01*
X171796730Y-144342714D01*
X171791907Y-144343755D01*
X171608093Y-144343755D01*
X171599820Y-144340328D01*
X171597145Y-144336182D01*
X171386096Y-143776274D01*
X171386385Y-143767324D01*
X171392917Y-143761199D01*
X171394715Y-143760682D01*
X171697684Y-143699468D01*
X171702316Y-143699468D01*
X172005273Y-143760680D01*
G37*
%TD.AperFunction*%
%TD*%
%TA.AperFunction,Conductor*%
%TO.N,/MCU/RX*%
G36*
X186900179Y-138859672D02*
G01*
X186902854Y-138863818D01*
X186926205Y-138925768D01*
X186926558Y-138926867D01*
X186960310Y-139052833D01*
X186999561Y-139120818D01*
X187000376Y-139122541D01*
X187113903Y-139423725D01*
X187113614Y-139432675D01*
X187107082Y-139438800D01*
X187105272Y-139439320D01*
X186802317Y-139500531D01*
X186797683Y-139500531D01*
X186494727Y-139439320D01*
X186487296Y-139434323D01*
X186485576Y-139425535D01*
X186486094Y-139423731D01*
X186697145Y-138863817D01*
X186703270Y-138857286D01*
X186708093Y-138856245D01*
X186891906Y-138856245D01*
X186900179Y-138859672D01*
G37*
%TD.AperFunction*%
%TD*%
%TA.AperFunction,Conductor*%
%TO.N,/MCU/RX*%
G36*
X192639583Y-127626135D02*
G01*
X192641224Y-127627042D01*
X192898737Y-127797985D01*
X192902014Y-127801262D01*
X193072953Y-128058768D01*
X193074673Y-128067556D01*
X193069676Y-128074987D01*
X193068028Y-128075898D01*
X192522880Y-128322577D01*
X192513930Y-128322866D01*
X192509784Y-128320191D01*
X192379808Y-128190215D01*
X192376381Y-128181942D01*
X192377421Y-128177122D01*
X192624102Y-127631969D01*
X192630633Y-127625846D01*
X192639583Y-127626135D01*
G37*
%TD.AperFunction*%
%TD*%
%TA.AperFunction,Conductor*%
%TO.N,Net-(J1302-Pin_2)*%
G36*
X182950180Y-141509672D02*
G01*
X182952855Y-141513818D01*
X183163903Y-142073725D01*
X183163614Y-142082675D01*
X183157082Y-142088800D01*
X183155272Y-142089320D01*
X182852317Y-142150531D01*
X182847683Y-142150531D01*
X182544727Y-142089320D01*
X182537296Y-142084323D01*
X182535576Y-142075535D01*
X182536094Y-142073731D01*
X182747145Y-141513817D01*
X182753270Y-141507286D01*
X182758093Y-141506245D01*
X182941907Y-141506245D01*
X182950180Y-141509672D01*
G37*
%TD.AperFunction*%
%TD*%
%TA.AperFunction,Conductor*%
%TO.N,Net-(J1302-Pin_2)*%
G36*
X181394830Y-137277930D02*
G01*
X181399422Y-137283960D01*
X181821462Y-138552966D01*
X181820821Y-138561898D01*
X181818633Y-138564931D01*
X181687431Y-138696133D01*
X181679158Y-138699560D01*
X181675466Y-138698962D01*
X180406460Y-138276922D01*
X180399691Y-138271060D01*
X180398675Y-138263549D01*
X180560272Y-137446978D01*
X180565239Y-137439527D01*
X180569477Y-137437772D01*
X181386049Y-137276175D01*
X181394830Y-137277930D01*
G37*
%TD.AperFunction*%
%TD*%
%TA.AperFunction,Conductor*%
%TO.N,/MCU/CAN_~{INT}*%
G36*
X168874987Y-146780323D02*
G01*
X168875898Y-146781971D01*
X169122577Y-147327119D01*
X169122866Y-147336069D01*
X169120191Y-147340215D01*
X168990215Y-147470191D01*
X168981942Y-147473618D01*
X168977119Y-147472577D01*
X168431971Y-147225898D01*
X168425846Y-147219366D01*
X168426135Y-147210416D01*
X168427038Y-147208780D01*
X168597987Y-146951259D01*
X168601259Y-146947987D01*
X168858771Y-146777045D01*
X168867556Y-146775326D01*
X168874987Y-146780323D01*
G37*
%TD.AperFunction*%
%TD*%
%TA.AperFunction,Conductor*%
%TO.N,/MCU/CAN_~{INT}*%
G36*
X194405273Y-143460680D02*
G01*
X194412703Y-143465676D01*
X194414423Y-143474464D01*
X194413903Y-143476274D01*
X194202855Y-144036182D01*
X194196730Y-144042714D01*
X194191907Y-144043755D01*
X194008093Y-144043755D01*
X193999820Y-144040328D01*
X193997145Y-144036182D01*
X193786096Y-143476274D01*
X193786385Y-143467324D01*
X193792917Y-143461199D01*
X193794715Y-143460682D01*
X194097684Y-143399468D01*
X194102316Y-143399468D01*
X194405273Y-143460680D01*
G37*
%TD.AperFunction*%
%TD*%
%TA.AperFunction,Conductor*%
%TO.N,/MCU/CAN_~{WKRQ}*%
G36*
X192939583Y-136626135D02*
G01*
X192941224Y-136627042D01*
X193198737Y-136797985D01*
X193202014Y-136801262D01*
X193372953Y-137058768D01*
X193374673Y-137067556D01*
X193369676Y-137074987D01*
X193368028Y-137075898D01*
X192822880Y-137322577D01*
X192813930Y-137322866D01*
X192809784Y-137320191D01*
X192679808Y-137190215D01*
X192676381Y-137181942D01*
X192677421Y-137177122D01*
X192924102Y-136631969D01*
X192930633Y-136625846D01*
X192939583Y-136626135D01*
G37*
%TD.AperFunction*%
%TD*%
%TA.AperFunction,Conductor*%
%TO.N,/MCU/CAN_~{WKRQ}*%
G36*
X169717893Y-146490256D02*
G01*
X169722285Y-146495761D01*
X169742906Y-146549293D01*
X169898179Y-146952393D01*
X169897955Y-146961345D01*
X169895534Y-146964872D01*
X169765555Y-147094851D01*
X169757282Y-147098278D01*
X169751886Y-147096960D01*
X169230993Y-146826232D01*
X169225233Y-146819376D01*
X169226007Y-146810454D01*
X169226634Y-146809390D01*
X169396592Y-146553360D01*
X169404022Y-146548365D01*
X169404037Y-146548361D01*
X169709117Y-146488487D01*
X169717893Y-146490256D01*
G37*
%TD.AperFunction*%
%TD*%
%TA.AperFunction,Conductor*%
%TO.N,/MCU/CAN_~{RST}*%
G36*
X182555273Y-132260680D02*
G01*
X182562703Y-132265676D01*
X182564423Y-132274464D01*
X182563903Y-132276274D01*
X182352855Y-132836182D01*
X182346730Y-132842714D01*
X182341907Y-132843755D01*
X182158093Y-132843755D01*
X182149820Y-132840328D01*
X182147145Y-132836182D01*
X181936096Y-132276274D01*
X181936385Y-132267324D01*
X181942917Y-132261199D01*
X181944715Y-132260682D01*
X182247684Y-132199468D01*
X182252316Y-132199468D01*
X182555273Y-132260680D01*
G37*
%TD.AperFunction*%
%TD*%
%TA.AperFunction,Conductor*%
%TO.N,/MCU/CAN_~{RST}*%
G36*
X177076272Y-139486095D02*
G01*
X177636182Y-139697145D01*
X177642714Y-139703270D01*
X177643755Y-139708093D01*
X177643755Y-139891906D01*
X177640328Y-139900179D01*
X177636182Y-139902854D01*
X177076274Y-140113903D01*
X177067324Y-140113614D01*
X177061199Y-140107082D01*
X177060681Y-140105281D01*
X176999468Y-139802316D01*
X176999468Y-139797683D01*
X177060680Y-139494724D01*
X177065676Y-139487296D01*
X177074464Y-139485576D01*
X177076272Y-139486095D01*
G37*
%TD.AperFunction*%
%TD*%
%TA.AperFunction,Conductor*%
%TO.N,/MCU/AMUX_1*%
G36*
X177003992Y-132072151D02*
G01*
X177006828Y-132074238D01*
X177135219Y-132202629D01*
X177137894Y-132206775D01*
X177313897Y-132673708D01*
X177313608Y-132682658D01*
X177307076Y-132688783D01*
X177305251Y-132689306D01*
X177004076Y-132749746D01*
X176995290Y-132748014D01*
X176995245Y-132747984D01*
X176738478Y-132575295D01*
X176733525Y-132567834D01*
X176734646Y-132560152D01*
X176988195Y-132077073D01*
X176995074Y-132071341D01*
X177003992Y-132072151D01*
G37*
%TD.AperFunction*%
%TD*%
%TA.AperFunction,Conductor*%
%TO.N,/MCU/AMUX_1*%
G36*
X177774987Y-120230323D02*
G01*
X177775898Y-120231971D01*
X178022577Y-120777119D01*
X178022866Y-120786069D01*
X178020191Y-120790215D01*
X177890215Y-120920191D01*
X177881942Y-120923618D01*
X177877119Y-120922577D01*
X177331971Y-120675898D01*
X177325846Y-120669366D01*
X177326135Y-120660416D01*
X177327038Y-120658780D01*
X177497987Y-120401259D01*
X177501259Y-120397987D01*
X177758771Y-120227045D01*
X177767556Y-120225326D01*
X177774987Y-120230323D01*
G37*
%TD.AperFunction*%
%TD*%
%TA.AperFunction,Conductor*%
%TO.N,/MCU/AMUX_0*%
G36*
X177826272Y-133136095D02*
G01*
X178386182Y-133347145D01*
X178392714Y-133353270D01*
X178393755Y-133358093D01*
X178393755Y-133541906D01*
X178390328Y-133550179D01*
X178386182Y-133552854D01*
X177826274Y-133763903D01*
X177817324Y-133763614D01*
X177811199Y-133757082D01*
X177810681Y-133755281D01*
X177749468Y-133452316D01*
X177749468Y-133447683D01*
X177810680Y-133144724D01*
X177815676Y-133137296D01*
X177824464Y-133135576D01*
X177826272Y-133136095D01*
G37*
%TD.AperFunction*%
%TD*%
%TA.AperFunction,Conductor*%
%TO.N,/MCU/AMUX_0*%
G36*
X178874987Y-120230323D02*
G01*
X178875898Y-120231971D01*
X179122577Y-120777119D01*
X179122866Y-120786069D01*
X179120191Y-120790215D01*
X178990215Y-120920191D01*
X178981942Y-120923618D01*
X178977119Y-120922577D01*
X178431971Y-120675898D01*
X178425846Y-120669366D01*
X178426135Y-120660416D01*
X178427038Y-120658780D01*
X178597987Y-120401259D01*
X178601259Y-120397987D01*
X178858771Y-120227045D01*
X178867556Y-120225326D01*
X178874987Y-120230323D01*
G37*
%TD.AperFunction*%
%TD*%
%TA.AperFunction,Conductor*%
%TO.N,/MCU/AMUX_EN*%
G36*
X178382675Y-118536385D02*
G01*
X178388800Y-118542917D01*
X178389320Y-118544727D01*
X178450531Y-118847683D01*
X178450531Y-118852317D01*
X178389320Y-119155272D01*
X178384323Y-119162703D01*
X178375535Y-119164423D01*
X178373725Y-119163903D01*
X177813818Y-118952854D01*
X177807286Y-118946729D01*
X177806245Y-118941906D01*
X177806245Y-118758093D01*
X177809672Y-118749820D01*
X177813816Y-118747146D01*
X178373726Y-118536096D01*
X178382675Y-118536385D01*
G37*
%TD.AperFunction*%
%TD*%
%TA.AperFunction,Conductor*%
%TO.N,/MCU/AMUX_EN*%
G36*
X173726272Y-129486095D02*
G01*
X174286182Y-129697145D01*
X174292714Y-129703270D01*
X174293755Y-129708093D01*
X174293755Y-129891906D01*
X174290328Y-129900179D01*
X174286182Y-129902854D01*
X173726274Y-130113903D01*
X173717324Y-130113614D01*
X173711199Y-130107082D01*
X173710681Y-130105281D01*
X173649468Y-129802316D01*
X173649468Y-129797683D01*
X173710680Y-129494724D01*
X173715676Y-129487296D01*
X173724464Y-129485576D01*
X173726272Y-129486095D01*
G37*
%TD.AperFunction*%
%TD*%
%TA.AperFunction,Conductor*%
%TO.N,/MCU/AMUX_2*%
G36*
X176400180Y-131209672D02*
G01*
X176402855Y-131213818D01*
X176613903Y-131773725D01*
X176613614Y-131782675D01*
X176607082Y-131788800D01*
X176605272Y-131789320D01*
X176302317Y-131850531D01*
X176297683Y-131850531D01*
X175994727Y-131789320D01*
X175987296Y-131784323D01*
X175985576Y-131775535D01*
X175986094Y-131773731D01*
X176197145Y-131213817D01*
X176203270Y-131207286D01*
X176208093Y-131206245D01*
X176391907Y-131206245D01*
X176400180Y-131209672D01*
G37*
%TD.AperFunction*%
%TD*%
%TA.AperFunction,Conductor*%
%TO.N,/MCU/AMUX_2*%
G36*
X178305273Y-124060680D02*
G01*
X178312703Y-124065676D01*
X178314423Y-124074464D01*
X178313903Y-124076274D01*
X178102855Y-124636182D01*
X178096730Y-124642714D01*
X178091907Y-124643755D01*
X177908093Y-124643755D01*
X177899820Y-124640328D01*
X177897145Y-124636182D01*
X177686096Y-124076274D01*
X177686385Y-124067324D01*
X177692917Y-124061199D01*
X177694715Y-124060682D01*
X177997684Y-123999468D01*
X178002316Y-123999468D01*
X178305273Y-124060680D01*
G37*
%TD.AperFunction*%
%TD*%
%TA.AperFunction,Conductor*%
%TO.N,/AMEAS_2*%
G36*
X77100180Y-52159672D02*
G01*
X77102855Y-52163818D01*
X77313903Y-52723725D01*
X77313614Y-52732675D01*
X77307082Y-52738800D01*
X77305272Y-52739320D01*
X77002317Y-52800531D01*
X76997683Y-52800531D01*
X76694727Y-52739320D01*
X76687296Y-52734323D01*
X76685576Y-52725535D01*
X76686094Y-52723731D01*
X76897145Y-52163817D01*
X76903270Y-52157286D01*
X76908093Y-52156245D01*
X77091907Y-52156245D01*
X77100180Y-52159672D01*
G37*
%TD.AperFunction*%
%TD*%
%TA.AperFunction,Conductor*%
%TO.N,/AMEAS_2*%
G36*
X70284010Y-43343359D02*
G01*
X70975678Y-43806496D01*
X70980645Y-43813947D01*
X70979629Y-43821458D01*
X70380736Y-45017207D01*
X70373967Y-45023069D01*
X70370275Y-45023667D01*
X70184725Y-45023667D01*
X70176452Y-45020240D01*
X70174264Y-45017207D01*
X69575370Y-43821458D01*
X69574729Y-43812526D01*
X69579320Y-43806497D01*
X70270990Y-43343358D01*
X70279771Y-43341604D01*
X70284010Y-43343359D01*
G37*
%TD.AperFunction*%
%TD*%
%TA.AperFunction,Conductor*%
%TO.N,/Ch_V_1*%
G36*
X174333106Y-124085928D02*
G01*
X174338848Y-124092799D01*
X174339154Y-124093993D01*
X174399746Y-124395923D01*
X174398014Y-124404709D01*
X174397984Y-124404754D01*
X174225697Y-124660923D01*
X174218236Y-124665876D01*
X174209878Y-124664372D01*
X173785926Y-124404754D01*
X173740299Y-124376813D01*
X173735034Y-124369571D01*
X173736432Y-124360726D01*
X173738133Y-124358567D01*
X173867030Y-124229670D01*
X173871802Y-124226781D01*
X174324188Y-124085130D01*
X174333106Y-124085928D01*
G37*
%TD.AperFunction*%
%TD*%
%TA.AperFunction,Conductor*%
%TO.N,/Ch_V_1*%
G36*
X165574987Y-69530323D02*
G01*
X165575898Y-69531971D01*
X165822577Y-70077119D01*
X165822866Y-70086069D01*
X165820191Y-70090215D01*
X165690215Y-70220191D01*
X165681942Y-70223618D01*
X165677119Y-70222577D01*
X165131971Y-69975898D01*
X165125846Y-69969366D01*
X165126135Y-69960416D01*
X165127038Y-69958780D01*
X165297987Y-69701259D01*
X165301259Y-69697987D01*
X165558771Y-69527045D01*
X165567556Y-69525326D01*
X165574987Y-69530323D01*
G37*
%TD.AperFunction*%
%TD*%
M02*
