M48
; DRILL file {KiCad 9.0.4} date 2026-02-17T14:13:01+0100
; FORMAT={-:-/ absolute / metric / decimal}
; #@! TF.CreationDate,2026-02-17T14:13:01+01:00
; #@! TF.GenerationSoftware,Kicad,Pcbnew,9.0.4
; #@! TF.FileFunction,Plated,1,4,PTH
FMAT,2
METRIC
; #@! TA.AperFunction,Plated,PTH,ViaDrill
T1C0.300
; #@! TA.AperFunction,Plated,PTH,ComponentDrill
T2C0.300
; #@! TA.AperFunction,Plated,PTH,ComponentDrill
T3C1.000
%
G90
G05
T1
X54.22Y-105.52
X54.22Y-108.06
X54.22Y-110.6
X54.22Y-113.14
X54.22Y-115.68
X55.95Y-71.86
X55.95Y-74.4
X55.95Y-76.94
X56.76Y-105.52
X56.76Y-108.06
X56.76Y-110.6
X56.76Y-113.14
X56.76Y-115.68
X58.35Y-42.2
X58.49Y-71.86
X58.49Y-74.4
X58.49Y-76.94
X59.3Y-105.52
X59.3Y-108.06
X59.3Y-110.6
X59.3Y-113.14
X59.3Y-115.68
X59.7Y-42.325
X59.7Y-44.05
X59.7Y-45.837
X61.03Y-71.86
X61.03Y-74.4
X61.03Y-76.94
X61.84Y-105.52
X61.84Y-108.06
X61.84Y-110.6
X61.84Y-113.14
X61.84Y-115.68
X62.137Y-146.863
X62.706Y-77.612
X63.03Y-66.075
X63.03Y-69.675
X63.03Y-71.375
X63.03Y-73.075
X63.08Y-64.375
X63.904Y-86.854
X64.38Y-105.52
X64.38Y-108.06
X64.38Y-110.6
X64.38Y-113.14
X64.38Y-115.68
X64.768Y-78.475
X65.043Y-81.275
X65.61Y-42.46
X65.675Y-132.25
X65.675Y-139.05
X65.7Y-85.058
X65.7Y-88.65
X66.787Y-62.65
X67.05Y-73.2
X67.496Y-83.262
X67.496Y-86.854
X67.496Y-90.446
X67.543Y-72.475
X67.648Y-45.625
X68.643Y-74.475
X68.65Y-68.9
X68.65Y-70.7
X68.663Y-69.75
X68.737Y-134.45
X68.8Y-142.0
X69.292Y-85.058
X69.292Y-88.65
X69.75Y-142.5
X69.85Y-147.55
X70.35Y-149.3
X70.381Y-62.575
X70.406Y-64.375
X70.85Y-150.05
X70.9Y-139.05
X70.9Y-142.45
X71.088Y-86.854
X71.45Y-147.85
X71.55Y-149.35
X72.05Y-142.2
X72.104Y-98.904
X72.15Y-150.05
X73.3Y-142.05
X73.8Y-62.55
X73.9Y-97.108
X73.9Y-100.7
X74.25Y-63.35
X74.3Y-70.713
X75.696Y-95.312
X75.696Y-98.904
X75.696Y-102.496
X75.85Y-149.85
X76.406Y-77.612
X76.493Y-66.175
X76.493Y-69.775
X76.493Y-71.475
X76.493Y-73.175
X76.543Y-64.475
X77.0Y-45.65
X77.0Y-52.8
X77.492Y-97.108
X77.492Y-100.7
X78.468Y-78.475
X78.737Y-81.6
X78.75Y-136.55
X79.0Y-49.225
X79.2Y-141.95
X79.213Y-135.0
X79.263Y-133.2
X79.288Y-98.904
X79.75Y-137.1
X81.193Y-64.475
X81.406Y-72.875
X81.45Y-73.85
X82.55Y-70.8
X82.556Y-69.975
X82.6Y-56.25
X82.6Y-69.15
X82.623Y-58.125
X82.65Y-152.35
X83.018Y-64.475
X83.037Y-52.312
X83.3Y-153.0
X83.5Y-59.0
X84.806Y-64.475
X85.05Y-92.05
X85.25Y-91.2
X85.3Y-48.537
X85.362Y-46.65
X85.513Y-54.5
X86.0Y-53.75
X87.1Y-55.45
X87.912Y-54.9
X88.25Y-70.913
X88.6Y-47.8
X88.651Y-48.708
X89.25Y-140.737
X89.812Y-58.112
X90.4Y-50.2
X90.998Y-110.375
X91.4Y-49.212
X91.462Y-56.312
X93.35Y-51.213
X93.45Y-141.587
X94.463Y-115.763
X95.05Y-51.3
X95.3Y-52.112
X96.063Y-106.463
X96.2Y-55.526
X96.237Y-110.713
X96.25Y-56.35
X96.25Y-109.85
X96.25Y-111.6
X96.287Y-115.763
X96.462Y-146.988
X96.575Y-88.375
X96.85Y-87.55
X96.95Y-57.0
X97.4Y-107.95
X97.8Y-79.812
X97.9Y-57.026
X97.95Y-103.65
X98.187Y-146.988
X98.362Y-137.438
X98.5Y-122.95
X98.6Y-142.75
X98.612Y-141.888
X98.65Y-141.05
X98.9Y-57.026
X99.025Y-97.995
X99.137Y-103.7
X99.531Y-65.419
X99.531Y-79.763
X99.531Y-87.519
X99.537Y-74.8
X99.55Y-72.863
X99.7Y-122.95
X99.887Y-139.188
X100.0Y-138.3
X100.012Y-146.988
X100.087Y-117.263
X100.25Y-122.0
X100.637Y-96.1
X100.7Y-49.3
X100.7Y-50.276
X100.7Y-55.788
X100.9Y-103.7
X101.05Y-56.676
X101.331Y-87.569
X101.35Y-72.912
X101.362Y-74.8
X101.863Y-115.563
X101.912Y-106.863
X101.912Y-108.563
X101.912Y-110.263
X101.912Y-113.863
X101.912Y-117.263
X102.592Y-130.688
X102.637Y-103.7
X102.848Y-133.473
X103.85Y-81.35
X103.85Y-146.988
X103.9Y-67.45
X103.9Y-138.288
X103.9Y-139.988
X103.9Y-141.688
X103.9Y-145.288
X103.9Y-148.888
X104.099Y-110.275
X104.743Y-81.368
X104.744Y-67.431
X104.931Y-87.569
X104.95Y-72.912
X105.55Y-67.45
X105.55Y-81.35
X105.663Y-75.85
X105.763Y-62.05
X106.0Y-141.487
X106.731Y-87.569
X106.75Y-72.912
X107.012Y-46.25
X107.194Y-82.655
X107.45Y-115.763
X107.494Y-68.656
X108.0Y-83.2
X108.5Y-69.0
X108.531Y-87.569
X108.55Y-72.912
X108.8Y-147.075
X109.081Y-106.181
X109.125Y-115.763
X109.231Y-67.256
X109.321Y-81.214
X109.375Y-110.676
X109.4Y-109.85
X109.4Y-111.5
X110.5Y-107.95
X110.625Y-147.075
X110.8Y-137.375
X111.1Y-141.0
X111.1Y-142.7
X111.112Y-141.888
X112.318Y-74.293
X112.385Y-88.073
X112.438Y-139.375
X112.45Y-147.075
X112.65Y-138.5
X113.181Y-71.931
X113.248Y-85.911
X113.65Y-57.7
X114.2Y-58.75
X114.463Y-115.763
X114.512Y-107.063
X114.512Y-108.763
X114.512Y-110.463
X114.512Y-114.063
X114.512Y-117.463
X114.942Y-130.625
X115.217Y-133.425
X116.081Y-71.656
X116.148Y-85.636
X116.6Y-147.075
X116.65Y-138.375
X116.65Y-140.075
X116.65Y-141.775
X116.65Y-145.375
X116.754Y-90.754
X117.0Y-54.175
X117.012Y-56.112
X117.279Y-134.288
X118.55Y-88.958
X118.55Y-92.55
X120.34Y-140.58
X120.34Y-143.12
X120.34Y-145.66
X120.34Y-148.2
X120.34Y-150.74
X120.346Y-87.162
X120.346Y-90.754
X120.346Y-94.346
X120.55Y-121.45
X120.55Y-123.3
X120.75Y-125.45
X121.0Y-103.45
X121.25Y-122.25
X121.35Y-113.9
X121.35Y-124.0
X121.35Y-126.1
X121.4Y-102.6
X121.55Y-114.85
X122.142Y-88.958
X122.142Y-92.55
X122.88Y-140.58
X122.88Y-143.12
X122.88Y-145.66
X122.88Y-148.2
X122.88Y-150.74
X123.34Y-73.18
X123.34Y-75.72
X123.34Y-78.26
X123.34Y-80.8
X123.34Y-83.34
X123.938Y-90.754
X124.6Y-116.16
X124.6Y-118.7
X124.6Y-121.24
X124.7Y-113.95
X124.961Y-114.861
X125.42Y-140.58
X125.42Y-143.12
X125.42Y-145.66
X125.42Y-148.2
X125.42Y-150.74
X125.5Y-41.91
X125.5Y-44.45
X125.5Y-46.99
X125.88Y-73.18
X125.88Y-75.72
X125.88Y-78.26
X125.88Y-80.8
X125.88Y-83.34
X126.25Y-55.263
X126.6Y-103.763
X126.75Y-69.113
X127.14Y-116.16
X127.14Y-118.7
X127.14Y-121.24
X127.904Y-131.404
X127.96Y-140.58
X127.96Y-143.12
X127.96Y-145.66
X127.96Y-148.2
X127.96Y-150.74
X128.0Y-56.45
X128.04Y-41.91
X128.04Y-44.45
X128.04Y-46.99
X128.35Y-91.35
X128.4Y-70.4
X128.42Y-73.18
X128.42Y-75.72
X128.42Y-78.26
X128.42Y-80.8
X128.42Y-83.34
X128.7Y-105.312
X129.0Y-57.0
X129.25Y-91.85
X129.45Y-70.95
X129.68Y-118.7
X129.68Y-121.24
X129.7Y-129.608
X129.7Y-133.2
X130.5Y-140.58
X130.5Y-143.12
X130.5Y-145.66
X130.5Y-148.2
X130.5Y-150.74
X130.58Y-41.91
X130.58Y-44.45
X130.58Y-46.99
X130.77Y-55.331
X130.819Y-103.763
X130.96Y-73.18
X130.96Y-75.72
X130.96Y-78.26
X130.96Y-80.8
X130.96Y-83.34
X130.961Y-69.125
X131.0Y-84.837
X131.219Y-90.263
X131.496Y-127.812
X131.496Y-131.404
X131.496Y-134.996
X132.119Y-97.787
X132.166Y-56.329
X132.261Y-63.25
X132.301Y-49.775
X132.516Y-69.929
X132.719Y-84.787
X132.756Y-105.7
X133.039Y-57.6
X133.256Y-92.3
X133.292Y-129.608
X133.292Y-133.2
X133.299Y-71.263
X133.5Y-73.18
X133.5Y-75.72
X133.5Y-78.26
X133.5Y-80.8
X133.5Y-83.34
X135.088Y-131.404
X135.45Y-121.6
X135.631Y-97.8
X135.874Y-65.063
X135.914Y-51.487
X136.1Y-122.25
X136.231Y-84.8
X136.45Y-124.3
X137.05Y-123.45
X137.25Y-100.275
X137.25Y-125.5
X137.561Y-65.7
X137.601Y-52.437
X137.819Y-87.037
X137.9Y-124.65
X137.95Y-120.85
X138.6Y-127.5
X139.125Y-130.4
X139.125Y-132.35
X139.5Y-127.5
X139.6Y-137.5
X139.75Y-120.8
X139.85Y-124.45
X139.85Y-142.4
X139.85Y-143.3
X140.25Y-120.1
X140.3Y-135.5
X140.65Y-137.5
X140.85Y-152.25
X141.15Y-127.5
X141.15Y-136.05
X141.15Y-140.45
X141.3Y-153.0
X141.9Y-128.0
X141.912Y-141.0
X142.95Y-127.35
X143.1Y-134.25
X143.6Y-126.35
X144.4Y-121.6
X144.8Y-143.4
X145.537Y-130.15
X145.7Y-143.5
X146.035Y-61.121
X146.05Y-135.5
X146.1Y-137.1
X146.15Y-138.95
X146.356Y-95.9
X147.263Y-126.25
X147.263Y-128.25
X147.263Y-130.15
X147.9Y-139.05
X147.95Y-135.45
X147.95Y-137.2
X148.5Y-144.9
X148.701Y-143.999
X149.137Y-128.25
X149.137Y-130.15
X149.2Y-131.65
X149.65Y-137.1
X149.65Y-139.1
X149.75Y-135.45
X150.05Y-121.6
X150.1Y-145.262
X150.2Y-131.3
X150.3Y-143.438
X150.6Y-120.8
X150.9Y-132.7
X152.25Y-98.45
X152.25Y-106.75
X152.55Y-134.15
X152.6Y-64.3
X152.65Y-72.65
X152.7Y-47.2
X152.7Y-55.5
X152.7Y-132.649
X152.75Y-89.7
X152.75Y-131.55
X152.8Y-81.35
X153.0Y-138.2
X153.2Y-107.25
X153.25Y-99.0
X153.35Y-136.2
X153.35Y-137.4
X153.4Y-113.35
X153.65Y-47.7
X153.65Y-64.85
X153.65Y-73.2
X153.7Y-81.9
X153.7Y-135.2
X153.75Y-56.05
X153.8Y-90.2
X154.25Y-113.75
X154.6Y-134.25
X154.6Y-140.1
X154.8Y-98.5
X154.8Y-106.75
X155.2Y-47.2
X155.2Y-55.5
X155.2Y-64.3
X155.2Y-72.65
X155.225Y-133.325
X155.4Y-81.45
X155.4Y-89.7
X155.75Y-107.3
X155.8Y-99.0
X155.85Y-143.75
X156.15Y-132.85
X156.2Y-47.7
X156.2Y-56.05
X156.2Y-64.85
X156.2Y-73.15
X156.3Y-81.95
X156.3Y-90.2
X156.4Y-124.35
X156.5Y-144.7
X157.0Y-119.4
X157.35Y-118.5
X157.5Y-124.5
X157.6Y-145.0
X158.6Y-145.7
X158.754Y-78.754
X159.75Y-118.6
X159.969Y-94.138
X159.969Y-107.537
X160.55Y-72.587
X160.55Y-76.958
X160.55Y-80.55
X160.55Y-118.05
X160.735Y-58.25
X160.75Y-123.45
X161.2Y-152.15
X161.25Y-141.6
X161.3Y-138.65
X161.8Y-123.3
X162.0Y-151.6
X162.287Y-130.2
X162.287Y-132.15
X162.346Y-75.162
X162.346Y-78.754
X162.346Y-82.346
X162.669Y-93.863
X162.669Y-105.537
X162.669Y-107.263
X162.7Y-150.5
X162.9Y-117.25
X163.35Y-72.313
X163.4Y-149.8
X163.535Y-57.976
X163.55Y-104.65
X163.75Y-117.8
X163.75Y-128.05
X163.95Y-141.1
X164.142Y-76.958
X164.142Y-80.55
X164.6Y-141.75
X164.8Y-144.8
X164.95Y-128.45
X165.2Y-138.1
X165.284Y-71.546
X165.3Y-69.7
X165.5Y-120.6
X165.6Y-142.35
X165.7Y-134.15
X165.8Y-145.1
X165.938Y-78.754
X166.0Y-135.5
X166.0Y-137.65
X166.05Y-121.65
X166.3Y-128.05
X166.5Y-69.65
X166.55Y-142.45
X166.7Y-145.2
X166.85Y-134.05
X166.85Y-146.15
X167.1Y-135.7
X167.1Y-140.2
X167.325Y-119.05
X167.35Y-128.55
X167.5Y-121.2
X167.75Y-133.7
X167.95Y-147.6
X168.004Y-41.904
X168.05Y-50.55
X168.55Y-51.35
X168.6Y-146.95
X168.75Y-120.65
X168.837Y-130.0
X169.05Y-119.05
X169.2Y-121.55
X169.25Y-117.85
X169.4Y-146.55
X169.7Y-65.3
X169.8Y-40.108
X169.8Y-43.7
X169.9Y-119.9
X170.0Y-139.05
X170.05Y-137.05
X170.1Y-145.2
X170.1Y-146.05
X170.15Y-135.4
X170.2Y-144.1
X170.35Y-61.4
X170.55Y-123.45
X170.612Y-124.6
X170.93Y-117.33
X170.95Y-115.3
X171.4Y-116.05
X171.45Y-106.432
X171.5Y-105.3
X171.596Y-38.312
X171.596Y-41.904
X171.596Y-45.496
X171.7Y-65.3
X171.7Y-143.7
X171.9Y-135.4
X171.9Y-139.0
X171.95Y-124.4
X171.95Y-137.25
X171.961Y-132.223
X172.35Y-131.3
X172.675Y-126.4
X172.675Y-128.2
X172.8Y-129.3
X172.9Y-121.45
X173.0Y-124.5
X173.392Y-40.108
X173.392Y-43.7
X173.45Y-116.05
X173.6Y-115.2
X173.6Y-146.8
X173.65Y-129.8
X173.65Y-135.45
X173.65Y-139.0
X173.7Y-137.2
X173.73Y-120.6
X174.4Y-124.4
X174.6Y-119.7
X174.65Y-131.3
X174.65Y-146.15
X175.0Y-116.8
X175.188Y-41.904
X175.45Y-125.35
X175.55Y-126.4
X175.55Y-128.5
X175.59Y-142.15
X175.6Y-75.05
X175.6Y-145.512
X175.675Y-133.4
X175.7Y-127.4
X175.75Y-76.45
X175.85Y-116.0
X176.3Y-74.1
X176.3Y-131.85
X176.4Y-124.3
X176.4Y-142.8
X176.75Y-141.4
X177.0Y-132.75
X177.0Y-139.8
X177.5Y-120.4
X177.5Y-140.55
X177.6Y-121.55
X177.6Y-136.5
X177.606Y-137.356
X177.65Y-68.25
X177.75Y-133.45
X177.752Y-108.058
X177.8Y-135.55
X177.801Y-132.45
X177.9Y-115.55
X178.0Y-124.0
X178.1Y-60.921
X178.1Y-122.9
X178.25Y-138.25
X178.35Y-69.65
X178.4Y-73.809
X178.45Y-118.85
X178.5Y-56.95
X178.6Y-120.4
X178.935Y-50.596
X178.935Y-55.921
X179.1Y-79.1
X179.2Y-79.95
X179.25Y-63.483
X179.3Y-118.85
X179.45Y-120.1
X179.5Y-112.8
X179.835Y-60.933
X180.089Y-73.858
X180.262Y-106.332
X180.35Y-126.1
X180.45Y-130.1
X180.6Y-68.3
X180.75Y-69.5
X181.0Y-72.9
X181.45Y-126.1
X181.463Y-117.35
X181.5Y-110.7
X181.635Y-59.108
X181.635Y-60.933
X181.9Y-130.2
X181.904Y-72.034
X181.904Y-73.858
X182.25Y-132.2
X182.4Y-136.7
X182.6Y-60.05
X182.7Y-126.1
X182.75Y-117.35
X182.75Y-130.8
X182.8Y-54.75
X182.85Y-142.15
X182.95Y-67.05
X183.0Y-137.45
X183.1Y-132.7
X183.435Y-60.933
X183.5Y-141.35
X183.635Y-54.771
X183.7Y-132.0
X183.704Y-73.871
X183.785Y-66.996
X183.85Y-107.2
X184.347Y-95.75
X184.347Y-97.45
X184.355Y-142.198
X184.45Y-54.75
X184.65Y-67.05
X184.81Y-92.2
X185.235Y-60.933
X185.25Y-139.6
X185.504Y-73.858
X185.51Y-93.15
X185.996Y-140.3
X186.1Y-61.8
X186.335Y-55.921
X186.5Y-57.0
X186.8Y-139.5
X186.9Y-67.3
X186.985Y-60.933
X187.0Y-68.321
X187.304Y-73.858
X187.45Y-138.85
X187.688Y-125.85
X188.21Y-91.887
X188.785Y-60.908
X189.104Y-73.858
X189.165Y-104.762
X189.165Y-107.272
X189.165Y-109.782
X189.997Y-57.121
X190.197Y-69.821
X190.55Y-124.25
X190.55Y-134.8
X191.35Y-123.287
X191.35Y-125.112
X191.35Y-143.65
X191.5Y-137.65
X191.5Y-139.95
X191.972Y-57.121
X192.087Y-69.846
X192.595Y-129.645
X192.9Y-127.8
X193.2Y-136.8
X193.55Y-128.6
X193.55Y-137.85
X194.1Y-143.4
X194.95Y-125.65
X195.35Y-143.05
X195.6Y-126.3
X196.287Y-121.45
X196.3Y-120.25
X197.175Y-139.4
X197.762Y-129.75
X197.89Y-77.68
X197.89Y-80.22
X197.89Y-82.76
X197.89Y-85.3
X197.89Y-87.84
X198.013Y-121.45
X198.153Y-135.53
X198.9Y-129.8
X199.34Y-107.23
X199.34Y-109.77
X199.34Y-112.31
X199.34Y-114.85
X199.34Y-117.39
X200.43Y-77.68
X200.43Y-80.22
X200.43Y-82.76
X200.43Y-85.3
X200.43Y-87.84
X200.685Y-58.116
X200.685Y-60.091
X200.752Y-141.733
X201.5Y-136.6
X201.88Y-107.23
X201.88Y-109.77
X201.88Y-112.31
X201.88Y-114.85
X201.88Y-117.39
X201.9Y-137.45
X202.478Y-141.663
X202.478Y-143.463
X202.97Y-77.68
X202.97Y-80.22
X202.97Y-82.76
X202.97Y-85.3
X202.97Y-87.84
X203.2Y-123.6
X204.315Y-143.5
X204.42Y-107.23
X204.42Y-109.77
X204.42Y-112.31
X204.42Y-114.85
X204.42Y-117.39
X204.65Y-136.55
X204.65Y-139.15
X205.1Y-137.5
X205.1Y-140.1
X205.51Y-77.68
X205.51Y-80.22
X205.51Y-82.76
X205.51Y-85.3
X205.51Y-87.84
X206.5Y-128.3
X206.65Y-56.646
X206.96Y-107.23
X206.96Y-109.77
X206.96Y-112.31
X206.96Y-114.85
X206.96Y-117.39
X208.05Y-77.68
X208.05Y-80.22
X208.05Y-82.76
X208.05Y-85.3
X208.05Y-87.84
X208.685Y-58.291
X209.5Y-107.23
X209.5Y-109.77
X209.5Y-112.31
X209.5Y-114.85
X209.5Y-117.39
T2
X88.4Y-51.212
X88.4Y-52.212
X89.4Y-51.212
X89.4Y-52.212
T3
X53.193Y-45.841
X53.193Y-48.381
X53.193Y-50.921
X53.193Y-53.461
X53.193Y-56.001
X55.893Y-45.841
X55.893Y-48.381
X55.893Y-50.921
X55.893Y-53.461
X55.893Y-56.001
X61.82Y-124.575
X64.36Y-124.575
X67.21Y-124.575
X69.75Y-124.575
X70.278Y-40.8
X70.278Y-43.34
X70.5Y-50.22
X70.5Y-52.76
X70.5Y-55.3
X72.61Y-124.55
X72.977Y-40.8
X72.977Y-43.34
X73.7Y-85.36
X73.7Y-87.9
X75.15Y-124.55
X77.3Y-85.325
X77.3Y-87.865
X78.01Y-124.55
X80.55Y-124.55
X81.0Y-85.35
X81.0Y-87.89
X81.35Y-149.675
X83.89Y-149.675
X84.61Y-125.2
X84.61Y-129.0
X84.65Y-132.75
X85.4Y-97.96
X85.4Y-100.5
X87.15Y-125.2
X87.15Y-129.0
X87.19Y-132.75
X91.05Y-80.125
X91.05Y-82.665
X91.225Y-62.81
X91.225Y-65.35
X94.15Y-80.135
X94.15Y-82.675
X94.75Y-98.21
X94.75Y-100.75
X95.16Y-127.925
X95.7Y-68.825
X95.7Y-71.365
X97.7Y-127.925
X107.05Y-121.05
X108.8Y-98.26
X108.8Y-100.8
X109.59Y-121.05
X112.13Y-121.05
X113.55Y-151.05
X116.09Y-151.05
X119.919Y-79.305
X119.919Y-81.846
X119.975Y-72.6
X119.975Y-75.14
X120.375Y-68.3
X120.385Y-65.05
X122.915Y-68.3
X122.925Y-65.05
X125.91Y-49.55
X126.45Y-95.75
X128.45Y-49.55
X128.99Y-95.75
X143.21Y-146.125
X145.75Y-146.125
X159.627Y-137.105
X159.627Y-139.645
X159.627Y-142.185
X159.627Y-144.725
X160.06Y-45.625
X162.6Y-45.625
X168.175Y-59.25
X168.195Y-56.221
X168.25Y-63.6
X170.715Y-59.25
X170.735Y-56.221
X170.79Y-63.6
X175.0Y-61.421
X175.0Y-63.961
X175.1Y-67.66
X175.1Y-70.2
X175.235Y-52.0
X175.235Y-54.54
X175.235Y-57.08
X180.4Y-87.9
X180.562Y-134.9
X180.562Y-137.44
X180.562Y-139.98
X180.562Y-142.52
X181.4Y-112.3
X182.94Y-87.9
X183.94Y-112.3
X186.6Y-87.9
X189.14Y-87.9
X189.725Y-137.72
X189.725Y-140.26
X189.725Y-142.8
X189.725Y-145.34
X192.2Y-92.76
X192.2Y-95.3
X192.9Y-73.8
X194.46Y-148.8
X195.44Y-73.8
X197.0Y-148.8
X200.725Y-69.85
X200.745Y-66.671
X200.75Y-73.725
X203.265Y-69.85
X203.285Y-66.671
X203.29Y-73.725
X203.65Y-52.0
X204.775Y-122.255
X204.775Y-124.795
X204.775Y-127.335
X204.775Y-129.875
X206.19Y-52.0
X207.05Y-70.525
X207.085Y-66.671
X209.59Y-70.525
X209.625Y-66.671
M30
