%TF.GenerationSoftware,KiCad,Pcbnew,9.0.4*%
%TF.CreationDate,2026-02-17T14:13:00+01:00*%
%TF.ProjectId,TEST_PCB,54455354-5f50-4434-922e-6b696361645f,rev?*%
%TF.SameCoordinates,Original*%
%TF.FileFunction,Paste,Top*%
%TF.FilePolarity,Positive*%
%FSLAX46Y46*%
G04 Gerber Fmt 4.6, Leading zero omitted, Abs format (unit mm)*
G04 Created by KiCad (PCBNEW 9.0.4) date 2026-02-17 14:13:00*
%MOMM*%
%LPD*%
G01*
G04 APERTURE LIST*
G04 Aperture macros list*
%AMRoundRect*
0 Rectangle with rounded corners*
0 $1 Rounding radius*
0 $2 $3 $4 $5 $6 $7 $8 $9 X,Y pos of 4 corners*
0 Add a 4 corners polygon primitive as box body*
4,1,4,$2,$3,$4,$5,$6,$7,$8,$9,$2,$3,0*
0 Add four circle primitives for the rounded corners*
1,1,$1+$1,$2,$3*
1,1,$1+$1,$4,$5*
1,1,$1+$1,$6,$7*
1,1,$1+$1,$8,$9*
0 Add four rect primitives between the rounded corners*
20,1,$1+$1,$2,$3,$4,$5,0*
20,1,$1+$1,$4,$5,$6,$7,0*
20,1,$1+$1,$6,$7,$8,$9,0*
20,1,$1+$1,$8,$9,$2,$3,0*%
G04 Aperture macros list end*
%ADD10RoundRect,0.237500X0.250000X0.237500X-0.250000X0.237500X-0.250000X-0.237500X0.250000X-0.237500X0*%
%ADD11RoundRect,0.237500X-0.237500X0.250000X-0.237500X-0.250000X0.237500X-0.250000X0.237500X0.250000X0*%
%ADD12RoundRect,0.237500X0.237500X-0.250000X0.237500X0.250000X-0.237500X0.250000X-0.237500X-0.250000X0*%
%ADD13RoundRect,0.237500X-0.250000X-0.237500X0.250000X-0.237500X0.250000X0.237500X-0.250000X0.237500X0*%
%ADD14RoundRect,0.237500X0.344715X-0.008839X-0.008839X0.344715X-0.344715X0.008839X0.008839X-0.344715X0*%
%ADD15R,0.570000X0.550000*%
%ADD16R,0.500000X0.420000*%
%ADD17R,1.830000X2.370000*%
%ADD18R,0.660000X0.420000*%
%ADD19R,0.550000X0.570000*%
%ADD20R,0.420000X0.500000*%
%ADD21R,2.370000X1.830000*%
%ADD22R,0.420000X0.660000*%
%ADD23RoundRect,0.150000X0.587500X0.150000X-0.587500X0.150000X-0.587500X-0.150000X0.587500X-0.150000X0*%
%ADD24RoundRect,0.150000X0.150000X-0.587500X0.150000X0.587500X-0.150000X0.587500X-0.150000X-0.587500X0*%
%ADD25RoundRect,0.172500X-0.172500X-0.172500X0.172500X-0.172500X0.172500X0.172500X-0.172500X0.172500X0*%
%ADD26RoundRect,0.062500X-0.375000X-0.062500X0.375000X-0.062500X0.375000X0.062500X-0.375000X0.062500X0*%
%ADD27RoundRect,0.062500X-0.062500X-0.375000X0.062500X-0.375000X0.062500X0.375000X-0.062500X0.375000X0*%
%ADD28RoundRect,0.250000X-0.270000X-0.270000X0.270000X-0.270000X0.270000X0.270000X-0.270000X0.270000X0*%
%ADD29RoundRect,0.317500X0.317500X-0.382500X0.317500X0.382500X-0.317500X0.382500X-0.317500X-0.382500X0*%
%ADD30RoundRect,0.300000X-0.300000X0.325000X-0.300000X-0.325000X0.300000X-0.325000X0.300000X0.325000X0*%
%ADD31RoundRect,0.237500X0.300000X0.237500X-0.300000X0.237500X-0.300000X-0.237500X0.300000X-0.237500X0*%
%ADD32RoundRect,0.237500X-0.237500X0.300000X-0.237500X-0.300000X0.237500X-0.300000X0.237500X0.300000X0*%
%ADD33RoundRect,0.237500X-0.300000X-0.237500X0.300000X-0.237500X0.300000X0.237500X-0.300000X0.237500X0*%
%ADD34RoundRect,0.150000X0.150000X-0.512500X0.150000X0.512500X-0.150000X0.512500X-0.150000X-0.512500X0*%
%ADD35R,0.575000X0.240000*%
%ADD36R,0.240000X0.575000*%
%ADD37R,2.700000X1.450000*%
%ADD38R,2.700000X0.850000*%
%ADD39RoundRect,0.237500X0.237500X-0.300000X0.237500X0.300000X-0.237500X0.300000X-0.237500X-0.300000X0*%
%ADD40RoundRect,0.250000X-0.650000X0.412500X-0.650000X-0.412500X0.650000X-0.412500X0.650000X0.412500X0*%
%ADD41R,1.450000X2.700000*%
%ADD42R,0.850000X2.700000*%
%ADD43R,5.400000X2.900000*%
%ADD44RoundRect,0.150000X0.150000X-0.825000X0.150000X0.825000X-0.150000X0.825000X-0.150000X-0.825000X0*%
%ADD45RoundRect,0.150000X0.825000X0.150000X-0.825000X0.150000X-0.825000X-0.150000X0.825000X-0.150000X0*%
%ADD46RoundRect,0.150000X-0.512500X-0.150000X0.512500X-0.150000X0.512500X0.150000X-0.512500X0.150000X0*%
%ADD47RoundRect,0.250000X-0.412500X-0.650000X0.412500X-0.650000X0.412500X0.650000X-0.412500X0.650000X0*%
%ADD48RoundRect,0.250000X0.650000X-0.412500X0.650000X0.412500X-0.650000X0.412500X-0.650000X-0.412500X0*%
%ADD49RoundRect,0.150000X0.512500X0.150000X-0.512500X0.150000X-0.512500X-0.150000X0.512500X-0.150000X0*%
%ADD50RoundRect,0.050000X-0.285000X-0.100000X0.285000X-0.100000X0.285000X0.100000X-0.285000X0.100000X0*%
%ADD51RoundRect,0.250000X-0.400000X-1.075000X0.400000X-1.075000X0.400000X1.075000X-0.400000X1.075000X0*%
%ADD52RoundRect,0.250000X0.412500X0.650000X-0.412500X0.650000X-0.412500X-0.650000X0.412500X-0.650000X0*%
%ADD53R,2.900000X5.400000*%
%ADD54RoundRect,0.249999X1.530001X-0.640001X1.530001X0.640001X-1.530001X0.640001X-1.530001X-0.640001X0*%
%ADD55R,0.920000X1.330000*%
%ADD56RoundRect,0.050000X0.070000X-0.250000X0.070000X0.250000X-0.070000X0.250000X-0.070000X-0.250000X0*%
%ADD57RoundRect,0.050000X-0.250000X-0.070000X0.250000X-0.070000X0.250000X0.070000X-0.250000X0.070000X0*%
%ADD58RoundRect,0.250000X0.300000X-0.275000X0.300000X0.275000X-0.300000X0.275000X-0.300000X-0.275000X0*%
%ADD59RoundRect,0.100000X0.100000X-0.637500X0.100000X0.637500X-0.100000X0.637500X-0.100000X-0.637500X0*%
%ADD60RoundRect,0.250000X-1.075000X0.400000X-1.075000X-0.400000X1.075000X-0.400000X1.075000X0.400000X0*%
%ADD61RoundRect,0.112500X-0.202500X-0.112500X0.202500X-0.112500X0.202500X0.112500X-0.202500X0.112500X0*%
%ADD62R,0.480000X0.630000*%
%ADD63RoundRect,0.300000X-0.325000X-0.300000X0.325000X-0.300000X0.325000X0.300000X-0.325000X0.300000X0*%
%ADD64RoundRect,0.317500X0.382500X0.317500X-0.382500X0.317500X-0.382500X-0.317500X0.382500X-0.317500X0*%
%ADD65RoundRect,0.207500X0.207500X-0.207500X0.207500X0.207500X-0.207500X0.207500X-0.207500X-0.207500X0*%
%ADD66RoundRect,0.062500X0.062500X-0.350000X0.062500X0.350000X-0.062500X0.350000X-0.062500X-0.350000X0*%
%ADD67RoundRect,0.062500X0.350000X-0.062500X0.350000X0.062500X-0.350000X0.062500X-0.350000X-0.062500X0*%
%ADD68RoundRect,0.212500X-0.212500X-0.212500X0.212500X-0.212500X0.212500X0.212500X-0.212500X0.212500X0*%
%ADD69RoundRect,0.062500X-0.365000X-0.062500X0.365000X-0.062500X0.365000X0.062500X-0.365000X0.062500X0*%
%ADD70RoundRect,0.062500X-0.062500X-0.365000X0.062500X-0.365000X0.062500X0.365000X-0.062500X0.365000X0*%
%ADD71RoundRect,0.250000X0.400000X1.075000X-0.400000X1.075000X-0.400000X-1.075000X0.400000X-1.075000X0*%
G04 APERTURE END LIST*
D10*
%TO.C,R104*%
X95987500Y-74800000D03*
X97812500Y-74800000D03*
%TD*%
D11*
%TO.C,R103*%
X96100000Y-65412500D03*
X96100000Y-63587500D03*
%TD*%
D12*
%TO.C,R406*%
X200550000Y-128512500D03*
X200550000Y-126687500D03*
%TD*%
%TO.C,R405*%
X200550000Y-125012500D03*
X200550000Y-123187500D03*
%TD*%
D13*
%TO.C,R404*%
X195937500Y-129750000D03*
X197762500Y-129750000D03*
%TD*%
%TO.C,R402*%
X192737500Y-121450000D03*
X194562500Y-121450000D03*
%TD*%
D14*
%TO.C,R401*%
X192595235Y-129645235D03*
X191304765Y-128354765D03*
%TD*%
D13*
%TO.C,JP402*%
X187687500Y-127500000D03*
X189512500Y-127500000D03*
%TD*%
%TO.C,JP401*%
X187687500Y-125850000D03*
X189512500Y-125850000D03*
%TD*%
D12*
%TO.C,R403*%
X191350000Y-123287500D03*
X191350000Y-125112500D03*
%TD*%
D15*
%TO.C,Q1203*%
X160133503Y-64563000D03*
D16*
X161733503Y-65046000D03*
X161733503Y-65696000D03*
D17*
X160583503Y-66021000D03*
D16*
X161733503Y-66346000D03*
X161733503Y-66996000D03*
D15*
X160133503Y-67479000D03*
D18*
X158698503Y-66996000D03*
X158698503Y-65046000D03*
X158698503Y-65696000D03*
X158698503Y-66346000D03*
%TD*%
D15*
%TO.C,Q901*%
X65837500Y-144717001D03*
D16*
X67437500Y-145200001D03*
X67437500Y-145850001D03*
D17*
X66287500Y-146175001D03*
D16*
X67437500Y-146500001D03*
X67437500Y-147150001D03*
D15*
X65837500Y-147633001D03*
D18*
X64402500Y-147150001D03*
X64402500Y-145200001D03*
X64402500Y-145850001D03*
X64402500Y-146500001D03*
%TD*%
D19*
%TO.C,Q902*%
X73604499Y-146150001D03*
D20*
X74087499Y-144550001D03*
X74737499Y-144550001D03*
D21*
X75062499Y-145700001D03*
D20*
X75387499Y-144550001D03*
X76037499Y-144550001D03*
D19*
X76520499Y-146150001D03*
D22*
X76037499Y-147585001D03*
X74087499Y-147585001D03*
X74737499Y-147585001D03*
X75387499Y-147585001D03*
%TD*%
D19*
%TO.C,Q202*%
X97192000Y-47788000D03*
D20*
X97675000Y-46188000D03*
X98325000Y-46188000D03*
D21*
X98650000Y-47338000D03*
D20*
X98975000Y-46188000D03*
X99625000Y-46188000D03*
D19*
X100108000Y-47788000D03*
D22*
X99625000Y-49223000D03*
X97675000Y-49223000D03*
X98325000Y-49223000D03*
X98975000Y-49223000D03*
%TD*%
D19*
%TO.C,Q1701*%
X86463501Y-78375000D03*
D20*
X85980501Y-79975000D03*
X85330501Y-79975000D03*
D21*
X85005501Y-78825000D03*
D20*
X84680501Y-79975000D03*
X84030501Y-79975000D03*
D19*
X83547501Y-78375000D03*
D22*
X84030501Y-76940000D03*
X85980501Y-76940000D03*
X85330501Y-76940000D03*
X84680501Y-76940000D03*
%TD*%
D15*
%TO.C,Q302*%
X159968750Y-86242000D03*
D16*
X161568750Y-86725000D03*
X161568750Y-87375000D03*
D17*
X160418750Y-87700000D03*
D16*
X161568750Y-88025000D03*
X161568750Y-88675000D03*
D15*
X159968750Y-89158000D03*
D18*
X158533750Y-88675000D03*
X158533750Y-86725000D03*
X158533750Y-87375000D03*
X158533750Y-88025000D03*
%TD*%
D15*
%TO.C,Q1501*%
X192284752Y-51863000D03*
D16*
X193884752Y-52346000D03*
X193884752Y-52996000D03*
D17*
X192734752Y-53321000D03*
D16*
X193884752Y-53646000D03*
X193884752Y-54296000D03*
D15*
X192284752Y-54779000D03*
D18*
X190849752Y-54296000D03*
X190849752Y-52346000D03*
X190849752Y-52996000D03*
X190849752Y-53646000D03*
%TD*%
D15*
%TO.C,Q1502*%
X192100000Y-64063000D03*
D16*
X193700000Y-64546000D03*
X193700000Y-65196000D03*
D17*
X192550000Y-65521000D03*
D16*
X193700000Y-65846000D03*
X193700000Y-66496000D03*
D15*
X192100000Y-66979000D03*
D18*
X190665000Y-66496000D03*
X190665000Y-64546000D03*
X190665000Y-65196000D03*
X190665000Y-65846000D03*
%TD*%
D19*
%TO.C,Q601*%
X94871500Y-133488001D03*
D20*
X95354500Y-131888001D03*
X96004500Y-131888001D03*
D21*
X96329500Y-133038001D03*
D20*
X96654500Y-131888001D03*
X97304500Y-131888001D03*
D19*
X97787500Y-133488001D03*
D22*
X97304500Y-134923001D03*
X95354500Y-134923001D03*
X96004500Y-134923001D03*
X96654500Y-134923001D03*
%TD*%
D15*
%TO.C,Q1202*%
X160284752Y-50055000D03*
D16*
X161884752Y-50538000D03*
X161884752Y-51188000D03*
D17*
X160734752Y-51513000D03*
D16*
X161884752Y-51838000D03*
X161884752Y-52488000D03*
D15*
X160284752Y-52971000D03*
D18*
X158849752Y-52488000D03*
X158849752Y-50538000D03*
X158849752Y-51188000D03*
X158849752Y-51838000D03*
%TD*%
D19*
%TO.C,Q203*%
X97192000Y-54350000D03*
D20*
X97675000Y-52750000D03*
X98325000Y-52750000D03*
D21*
X98650000Y-53900000D03*
D20*
X98975000Y-52750000D03*
X99625000Y-52750000D03*
D19*
X100108000Y-54350000D03*
D22*
X99625000Y-55785000D03*
X97675000Y-55785000D03*
X98325000Y-55785000D03*
X98975000Y-55785000D03*
%TD*%
D19*
%TO.C,Q1702*%
X72863501Y-78475000D03*
D20*
X72380501Y-80075000D03*
X71730501Y-80075000D03*
D21*
X71405501Y-78925000D03*
D20*
X71080501Y-80075000D03*
X70430501Y-80075000D03*
D19*
X69947501Y-78475000D03*
D22*
X70430501Y-77040000D03*
X72380501Y-77040000D03*
X71730501Y-77040000D03*
X71080501Y-77040000D03*
%TD*%
D15*
%TO.C,Q1101*%
X113180501Y-63935499D03*
D16*
X114780501Y-64418499D03*
X114780501Y-65068499D03*
D17*
X113630501Y-65393499D03*
D16*
X114780501Y-65718499D03*
X114780501Y-66368499D03*
D15*
X113180501Y-66851499D03*
D18*
X111745501Y-66368499D03*
X111745501Y-64418499D03*
X111745501Y-65068499D03*
X111745501Y-65718499D03*
%TD*%
D19*
%TO.C,Q602*%
X107321500Y-133475001D03*
D20*
X107804500Y-131875001D03*
X108454500Y-131875001D03*
D21*
X108779500Y-133025001D03*
D20*
X109104500Y-131875001D03*
X109754500Y-131875001D03*
D19*
X110237500Y-133475001D03*
D22*
X109754500Y-134910001D03*
X107804500Y-134910001D03*
X108454500Y-134910001D03*
X109104500Y-134910001D03*
%TD*%
D15*
%TO.C,Q303*%
X159968750Y-99142000D03*
D16*
X161568750Y-99625000D03*
X161568750Y-100275000D03*
D17*
X160418750Y-100600000D03*
D16*
X161568750Y-100925000D03*
X161568750Y-101575000D03*
D15*
X159968750Y-102058000D03*
D18*
X158533750Y-101575000D03*
X158533750Y-99625000D03*
X158533750Y-100275000D03*
X158533750Y-100925000D03*
%TD*%
D15*
%TO.C,Q1102*%
X113248001Y-77915499D03*
D16*
X114848001Y-78398499D03*
X114848001Y-79048499D03*
D17*
X113698001Y-79373499D03*
D16*
X114848001Y-79698499D03*
X114848001Y-80348499D03*
D15*
X113248001Y-80831499D03*
D18*
X111813001Y-80348499D03*
X111813001Y-78398499D03*
X111813001Y-79048499D03*
X111813001Y-79698499D03*
%TD*%
D23*
%TO.C,Q301*%
X152325001Y-96150000D03*
X152325001Y-94250000D03*
X150450000Y-95200000D03*
%TD*%
%TO.C,Q1201*%
X152137500Y-61112500D03*
X152137500Y-59212500D03*
X150262499Y-60162500D03*
%TD*%
D24*
%TO.C,Q201*%
X78887500Y-53087500D03*
X80787500Y-53087500D03*
X79837500Y-51212499D03*
%TD*%
D25*
%TO.C,U401*%
X194850000Y-125550000D03*
X194850000Y-126350000D03*
X195650000Y-125550000D03*
X195650000Y-126350000D03*
D26*
X193812500Y-125200000D03*
X193812500Y-125700000D03*
X193812500Y-126200000D03*
X193812500Y-126700000D03*
D27*
X194500000Y-127387500D03*
X195000000Y-127387500D03*
X195500000Y-127387500D03*
X196000000Y-127387500D03*
D26*
X196687500Y-126700000D03*
X196687500Y-126200000D03*
X196687500Y-125700000D03*
X196687500Y-125200000D03*
D27*
X196000000Y-124512500D03*
X195500000Y-124512500D03*
X195000000Y-124512500D03*
X194500000Y-124512500D03*
%TD*%
D28*
%TO.C,U1304*%
X169965000Y-135315000D03*
X169965000Y-136605000D03*
X169965000Y-137895000D03*
X169965000Y-139185000D03*
X171255000Y-135315000D03*
X171255000Y-136605000D03*
X171255000Y-137895000D03*
X171255000Y-139185000D03*
X172545000Y-135315000D03*
X172545000Y-136605000D03*
X172545000Y-137895000D03*
X172545000Y-139185000D03*
X173835000Y-135315000D03*
X173835000Y-136605000D03*
X173835000Y-137895000D03*
X173835000Y-139185000D03*
D26*
X168462500Y-134500000D03*
X168462500Y-135000000D03*
X168462500Y-135500000D03*
X168462500Y-136000000D03*
X168462500Y-136500000D03*
X168462500Y-137000000D03*
X168462500Y-137500000D03*
X168462500Y-138000000D03*
X168462500Y-138500000D03*
X168462500Y-139000000D03*
X168462500Y-139500000D03*
X168462500Y-140000000D03*
D27*
X169150000Y-140687500D03*
X169650000Y-140687500D03*
X170150000Y-140687500D03*
X170650000Y-140687500D03*
X171150000Y-140687500D03*
X171650000Y-140687500D03*
X172150000Y-140687500D03*
X172650000Y-140687500D03*
X173150000Y-140687500D03*
X173650000Y-140687500D03*
X174150000Y-140687500D03*
X174650000Y-140687500D03*
D26*
X175337500Y-140000000D03*
X175337500Y-139500000D03*
X175337500Y-139000000D03*
X175337500Y-138500000D03*
X175337500Y-138000000D03*
X175337500Y-137500000D03*
X175337500Y-137000000D03*
X175337500Y-136500000D03*
X175337500Y-136000000D03*
X175337500Y-135500000D03*
X175337500Y-135000000D03*
X175337500Y-134500000D03*
D27*
X174650000Y-133812500D03*
X174150000Y-133812500D03*
X173650000Y-133812500D03*
X173150000Y-133812500D03*
X172650000Y-133812500D03*
X172150000Y-133812500D03*
X171650000Y-133812500D03*
X171150000Y-133812500D03*
X170650000Y-133812500D03*
X170150000Y-133812500D03*
X169650000Y-133812500D03*
X169150000Y-133812500D03*
%TD*%
D28*
%TO.C,U1305*%
X145927500Y-135365000D03*
X145927500Y-136655000D03*
X145927500Y-137945000D03*
X145927500Y-139235000D03*
X147217500Y-135365000D03*
X147217500Y-136655000D03*
X147217500Y-137945000D03*
X147217500Y-139235000D03*
X148507500Y-135365000D03*
X148507500Y-136655000D03*
X148507500Y-137945000D03*
X148507500Y-139235000D03*
X149797500Y-135365000D03*
X149797500Y-136655000D03*
X149797500Y-137945000D03*
X149797500Y-139235000D03*
D26*
X144425000Y-134550000D03*
X144425000Y-135050000D03*
X144425000Y-135550000D03*
X144425000Y-136050000D03*
X144425000Y-136550000D03*
X144425000Y-137050000D03*
X144425000Y-137550000D03*
X144425000Y-138050000D03*
X144425000Y-138550000D03*
X144425000Y-139050000D03*
X144425000Y-139550000D03*
X144425000Y-140050000D03*
D27*
X145112500Y-140737500D03*
X145612500Y-140737500D03*
X146112500Y-140737500D03*
X146612500Y-140737500D03*
X147112500Y-140737500D03*
X147612500Y-140737500D03*
X148112500Y-140737500D03*
X148612500Y-140737500D03*
X149112500Y-140737500D03*
X149612500Y-140737500D03*
X150112500Y-140737500D03*
X150612500Y-140737500D03*
D26*
X151300000Y-140050000D03*
X151300000Y-139550000D03*
X151300000Y-139050000D03*
X151300000Y-138550000D03*
X151300000Y-138050000D03*
X151300000Y-137550000D03*
X151300000Y-137050000D03*
X151300000Y-136550000D03*
X151300000Y-136050000D03*
X151300000Y-135550000D03*
X151300000Y-135050000D03*
X151300000Y-134550000D03*
D27*
X150612500Y-133862500D03*
X150112500Y-133862500D03*
X149612500Y-133862500D03*
X149112500Y-133862500D03*
X148612500Y-133862500D03*
X148112500Y-133862500D03*
X147612500Y-133862500D03*
X147112500Y-133862500D03*
X146612500Y-133862500D03*
X146112500Y-133862500D03*
X145612500Y-133862500D03*
X145112500Y-133862500D03*
%TD*%
D29*
%TO.C,D201*%
X82735000Y-41610000D03*
X82735000Y-43690000D03*
D30*
X88200000Y-40950000D03*
X86540001Y-40950000D03*
X84850000Y-40950000D03*
X88200000Y-42650000D03*
X86540000Y-42650000D03*
X84850001Y-42650000D03*
X88200000Y-44350000D03*
X86540001Y-44350000D03*
X84850000Y-44350000D03*
%TD*%
D31*
%TO.C,C701*%
X104362501Y-103700251D03*
X102637499Y-103700251D03*
%TD*%
D32*
%TO.C,C1403*%
X200684752Y-56391000D03*
X200684752Y-58116002D03*
%TD*%
D33*
%TO.C,C1903*%
X100137499Y-115562501D03*
X101862501Y-115562501D03*
%TD*%
D13*
%TO.C,R213*%
X115187500Y-56112498D03*
X117012500Y-56112498D03*
%TD*%
D34*
%TO.C,U1102*%
X112298003Y-85910999D03*
X113248002Y-85910999D03*
X114198001Y-85910999D03*
X114198001Y-83635999D03*
X113248002Y-83635999D03*
X112298003Y-83635999D03*
%TD*%
D31*
%TO.C,C1703*%
X80468003Y-75675000D03*
X78743001Y-75675000D03*
%TD*%
D35*
%TO.C,IC1502*%
X181921752Y-64871000D03*
X181921752Y-65371000D03*
X181921752Y-65871000D03*
X181921752Y-66371000D03*
X181921752Y-66871000D03*
X181921752Y-67371000D03*
D36*
X182584752Y-68034000D03*
X183084752Y-68034000D03*
X183584752Y-68034000D03*
X184084752Y-68034000D03*
X184584752Y-68034000D03*
X185084752Y-68034000D03*
D35*
X185747752Y-67371000D03*
X185747752Y-66871000D03*
X185747752Y-66371000D03*
X185747752Y-65871000D03*
X185747752Y-65371000D03*
X185747752Y-64871000D03*
D36*
X185084752Y-64208000D03*
X184584752Y-64208000D03*
X184084752Y-64208000D03*
X183584752Y-64208000D03*
X183084752Y-64208000D03*
X182584752Y-64208000D03*
D37*
X183834752Y-65496000D03*
D38*
X183834752Y-67046000D03*
%TD*%
D12*
%TO.C,R1504*%
X179234752Y-68833500D03*
X179234752Y-67008500D03*
%TD*%
D13*
%TO.C,R2013*%
X98187500Y-146988001D03*
X100012500Y-146988001D03*
%TD*%
%TO.C,R2015*%
X102062500Y-139988001D03*
X103887500Y-139988001D03*
%TD*%
D31*
%TO.C,C1805*%
X84468002Y-74475000D03*
X82743000Y-74475000D03*
%TD*%
D12*
%TO.C,R1506*%
X189084752Y-73858500D03*
X189084752Y-72033500D03*
%TD*%
D32*
%TO.C,C1205*%
X126250000Y-53537499D03*
X126250000Y-55262501D03*
%TD*%
D39*
%TO.C,C1602*%
X67647500Y-47350000D03*
X67647500Y-45624998D03*
%TD*%
D31*
%TO.C,C311*%
X134981251Y-92300000D03*
X133256249Y-92300000D03*
%TD*%
D33*
%TO.C,C2009*%
X94737499Y-146988001D03*
X96462501Y-146988001D03*
%TD*%
D12*
%TO.C,R_TX_1301*%
X171700000Y-145512500D03*
X171700000Y-143687500D03*
%TD*%
D40*
%TO.C,C304*%
X128700000Y-102187500D03*
X128700000Y-105312500D03*
%TD*%
D33*
%TO.C,C1316*%
X172675000Y-126400000D03*
X174400000Y-126400000D03*
%TD*%
D31*
%TO.C,C1705*%
X66768002Y-75675000D03*
X65043000Y-75675000D03*
%TD*%
%TO.C,C312*%
X134481251Y-105700000D03*
X132756249Y-105700000D03*
%TD*%
D12*
%TO.C,R1305*%
X178732752Y-130245768D03*
X178732752Y-128420768D03*
%TD*%
D31*
%TO.C,C1102*%
X114110502Y-88073499D03*
X112385500Y-88073499D03*
%TD*%
D35*
%TO.C,IC1501*%
X181721752Y-52596000D03*
X181721752Y-53096000D03*
X181721752Y-53596000D03*
X181721752Y-54096000D03*
X181721752Y-54596000D03*
X181721752Y-55096000D03*
D36*
X182384752Y-55759000D03*
X182884752Y-55759000D03*
X183384752Y-55759000D03*
X183884752Y-55759000D03*
X184384752Y-55759000D03*
X184884752Y-55759000D03*
D35*
X185547752Y-55096000D03*
X185547752Y-54596000D03*
X185547752Y-54096000D03*
X185547752Y-53596000D03*
X185547752Y-53096000D03*
X185547752Y-52596000D03*
D36*
X184884752Y-51933000D03*
X184384752Y-51933000D03*
X183884752Y-51933000D03*
X183384752Y-51933000D03*
X182884752Y-51933000D03*
X182384752Y-51933000D03*
D37*
X183634752Y-53221000D03*
D38*
X183634752Y-54771000D03*
%TD*%
D13*
%TO.C,R1909*%
X100087500Y-106862501D03*
X101912500Y-106862501D03*
%TD*%
D31*
%TO.C,C1806*%
X70368002Y-74475000D03*
X68643000Y-74475000D03*
%TD*%
D36*
%TO.C,IC2004*%
X108937500Y-143801001D03*
X109437500Y-143801001D03*
X109937500Y-143801001D03*
X110437500Y-143801001D03*
X110937500Y-143801001D03*
X111437500Y-143801001D03*
D35*
X112099500Y-143138001D03*
X112099500Y-142638001D03*
X112099500Y-142138001D03*
X112099500Y-141638001D03*
X112099500Y-141138001D03*
X112099500Y-140638001D03*
D36*
X111437500Y-139975001D03*
X110937500Y-139975001D03*
X110437500Y-139975001D03*
X109937500Y-139975001D03*
X109437500Y-139975001D03*
X108937500Y-139975001D03*
D35*
X108275500Y-140638001D03*
X108275500Y-141138001D03*
X108275500Y-141638001D03*
X108275500Y-142138001D03*
X108275500Y-142638001D03*
X108275500Y-143138001D03*
D41*
X109562500Y-141888001D03*
D42*
X111112500Y-141888001D03*
%TD*%
D32*
%TO.C,C306*%
X126600000Y-102037499D03*
X126600000Y-103762501D03*
%TD*%
D43*
%TO.C,L1101*%
X144850000Y-74200000D03*
X144850000Y-64500000D03*
%TD*%
D13*
%TO.C,R1908*%
X112687500Y-114062501D03*
X114512500Y-114062501D03*
%TD*%
%TO.C,R902*%
X77025000Y-128250001D03*
X78850000Y-128250001D03*
%TD*%
D32*
%TO.C,C1221*%
X157934752Y-56250499D03*
X157934752Y-57975501D03*
%TD*%
D39*
%TO.C,C1401*%
X200684752Y-61816001D03*
X200684752Y-60090999D03*
%TD*%
D13*
%TO.C,R2022*%
X114825000Y-138375001D03*
X116650000Y-138375001D03*
%TD*%
D44*
%TO.C,U1601*%
X61777501Y-47387499D03*
X63047501Y-47387499D03*
X64317501Y-47387499D03*
X65587501Y-47387499D03*
X65587501Y-42437499D03*
X64317501Y-42437499D03*
X63047501Y-42437499D03*
X61777501Y-42437499D03*
%TD*%
D40*
%TO.C,C1218*%
X155700000Y-69787500D03*
X155700000Y-72912500D03*
%TD*%
D10*
%TO.C,R1808*%
X64855500Y-66075000D03*
X63030500Y-66075000D03*
%TD*%
%TO.C,R501*%
X85347500Y-144382501D03*
X83522500Y-144382501D03*
%TD*%
D33*
%TO.C,C607*%
X113216999Y-130625001D03*
X114942001Y-130625001D03*
%TD*%
D32*
%TO.C,C206*%
X93350000Y-49487499D03*
X93350000Y-51212501D03*
%TD*%
D13*
%TO.C,R1907*%
X100087500Y-113862501D03*
X101912500Y-113862501D03*
%TD*%
D11*
%TO.C,R304*%
X132718750Y-84787500D03*
X132718750Y-86612500D03*
%TD*%
D45*
%TO.C,U701*%
X103975000Y-101805251D03*
X103975000Y-100535251D03*
X103975000Y-99265251D03*
X103975000Y-97995251D03*
X99025000Y-97995251D03*
X99025000Y-99265251D03*
X99025000Y-100535251D03*
X99025000Y-101805251D03*
%TD*%
D12*
%TO.C,R209*%
X84300000Y-58124998D03*
X84300000Y-56299998D03*
%TD*%
D33*
%TO.C,C1227*%
X162287500Y-130200000D03*
X164012500Y-130200000D03*
%TD*%
D39*
%TO.C,C1501*%
X178934752Y-52321000D03*
X178934752Y-50595998D03*
%TD*%
D34*
%TO.C,U1204*%
X159600001Y-72587500D03*
X160550000Y-72587500D03*
X161499999Y-72587500D03*
X161499999Y-70312500D03*
X160550000Y-70312500D03*
X159600001Y-70312500D03*
%TD*%
D31*
%TO.C,C1804*%
X64805501Y-64375000D03*
X63080499Y-64375000D03*
%TD*%
D46*
%TO.C,U1702*%
X64768001Y-77525001D03*
X64768001Y-78475000D03*
X64768001Y-79424999D03*
X67043001Y-79424999D03*
X67043001Y-78475000D03*
X67043001Y-77525001D03*
%TD*%
D11*
%TO.C,R1510*%
X183703679Y-72046000D03*
X183703679Y-73871000D03*
%TD*%
D46*
%TO.C,U1701*%
X78468002Y-77525001D03*
X78468002Y-78475000D03*
X78468002Y-79424999D03*
X80743002Y-79424999D03*
X80743002Y-78475000D03*
X80743002Y-77525001D03*
%TD*%
D33*
%TO.C,C1904*%
X112737499Y-115762501D03*
X114462501Y-115762501D03*
%TD*%
D47*
%TO.C,C1304*%
X165775000Y-121100000D03*
X168900000Y-121100000D03*
%TD*%
D48*
%TO.C,C314*%
X152750000Y-101862500D03*
X152750000Y-98737500D03*
%TD*%
D31*
%TO.C,C1313*%
X170562501Y-130000000D03*
X168837499Y-130000000D03*
%TD*%
D12*
%TO.C,R2011*%
X97830501Y-65362500D03*
X97830501Y-63537500D03*
%TD*%
D48*
%TO.C,C316*%
X155250000Y-101862500D03*
X155250000Y-98737500D03*
%TD*%
D11*
%TO.C,R202*%
X77000000Y-52799998D03*
X77000000Y-54624998D03*
%TD*%
D33*
%TO.C,C2012*%
X114874999Y-147075001D03*
X116600001Y-147075001D03*
%TD*%
D32*
%TO.C,C210*%
X113600000Y-53449997D03*
X113600000Y-55174999D03*
%TD*%
D31*
%TO.C,C1315*%
X147262501Y-130150000D03*
X145537499Y-130150000D03*
%TD*%
D49*
%TO.C,U601*%
X102848000Y-134422999D03*
X102848000Y-133473000D03*
X102848000Y-132523001D03*
X100573000Y-132523001D03*
X100573000Y-133473000D03*
X100573000Y-134422999D03*
%TD*%
D39*
%TO.C,C1502*%
X179249752Y-65208501D03*
X179249752Y-63483499D03*
%TD*%
D33*
%TO.C,C1902*%
X105687499Y-115750000D03*
X107412501Y-115750000D03*
%TD*%
D50*
%TO.C,U1202*%
X133421250Y-67512502D03*
X133421250Y-68012502D03*
X133421250Y-68512502D03*
X133421250Y-69012502D03*
X134901250Y-69012502D03*
X134901250Y-68512502D03*
X134901250Y-68012502D03*
X134901250Y-67512502D03*
%TD*%
D39*
%TO.C,C1701*%
X76405500Y-79337501D03*
X76405500Y-77612499D03*
%TD*%
D10*
%TO.C,R1320*%
X202527500Y-147069455D03*
X200702500Y-147069455D03*
%TD*%
D33*
%TO.C,C1906*%
X107337500Y-106162501D03*
X109062502Y-106162501D03*
%TD*%
D39*
%TO.C,C308*%
X137250000Y-102000000D03*
X137250000Y-100274998D03*
%TD*%
%TO.C,C1702*%
X62705501Y-79337501D03*
X62705501Y-77612499D03*
%TD*%
D13*
%TO.C,R904*%
X70225000Y-128250001D03*
X72050000Y-128250001D03*
%TD*%
D11*
%TO.C,R1204*%
X132301249Y-49775000D03*
X132301249Y-51600000D03*
%TD*%
D39*
%TO.C,C204*%
X85300000Y-50262501D03*
X85300000Y-48537499D03*
%TD*%
D13*
%TO.C,R1901*%
X96287500Y-115762501D03*
X98112500Y-115762501D03*
%TD*%
D10*
%TO.C,R1804*%
X64855500Y-71375000D03*
X63030500Y-71375000D03*
%TD*%
D13*
%TO.C,R1906*%
X112687500Y-110462501D03*
X114512500Y-110462501D03*
%TD*%
D50*
%TO.C,U1201*%
X133161249Y-54050000D03*
X133161249Y-54550000D03*
X133161249Y-55050000D03*
X133161249Y-55550000D03*
X134641249Y-55550000D03*
X134641249Y-55050000D03*
X134641249Y-54550000D03*
X134641249Y-54050000D03*
%TD*%
D51*
%TO.C,R914*%
X64287499Y-141750001D03*
X67387501Y-141750001D03*
%TD*%
D52*
%TO.C,C1324*%
X204870917Y-139603128D03*
X201745917Y-139603128D03*
%TD*%
D48*
%TO.C,C1216*%
X155700000Y-67712500D03*
X155700000Y-64587500D03*
%TD*%
D13*
%TO.C,R2019*%
X102062500Y-145288002D03*
X103887500Y-145288002D03*
%TD*%
D44*
%TO.C,U1401*%
X202829752Y-61596000D03*
X204099752Y-61596000D03*
X205369752Y-61596000D03*
X206639752Y-61596000D03*
X206639752Y-56646000D03*
X205369752Y-56646000D03*
X204099752Y-56646000D03*
X202829752Y-56646000D03*
%TD*%
D33*
%TO.C,C603*%
X100866999Y-136288001D03*
X102592001Y-136288001D03*
%TD*%
%TO.C,C1307*%
X187439999Y-104762500D03*
X189165001Y-104762500D03*
%TD*%
D39*
%TO.C,C1402*%
X208684752Y-60016001D03*
X208684752Y-58290999D03*
%TD*%
D53*
%TO.C,L1201*%
X140200000Y-51550000D03*
X149900000Y-51550000D03*
%TD*%
D31*
%TO.C,C1326*%
X202477501Y-143469455D03*
X200752499Y-143469455D03*
%TD*%
D32*
%TO.C,C2003*%
X99550000Y-71137499D03*
X99550000Y-72862501D03*
%TD*%
D31*
%TO.C,C901*%
X77200001Y-129850001D03*
X75474999Y-129850001D03*
%TD*%
D32*
%TO.C,C301*%
X131218750Y-88537499D03*
X131218750Y-90262501D03*
%TD*%
D40*
%TO.C,C315*%
X153300000Y-86837500D03*
X153300000Y-89962500D03*
%TD*%
D10*
%TO.C,R1101*%
X101362500Y-74800000D03*
X99537500Y-74800000D03*
%TD*%
D11*
%TO.C,R_MISO_1301*%
X154200000Y-143437500D03*
X154200000Y-145262500D03*
%TD*%
D31*
%TO.C,C911*%
X67400001Y-135650001D03*
X65674999Y-135650001D03*
%TD*%
D12*
%TO.C,R1313*%
X175600000Y-145512500D03*
X175600000Y-143687500D03*
%TD*%
D10*
%TO.C,R601*%
X103900000Y-148888001D03*
X102075000Y-148888001D03*
%TD*%
D36*
%TO.C,IC1802*%
X70838000Y-67837000D03*
X70338000Y-67837000D03*
X69838000Y-67837000D03*
X69338000Y-67837000D03*
X68838000Y-67837000D03*
X68338000Y-67837000D03*
D35*
X67676000Y-68500000D03*
X67676000Y-69000000D03*
X67676000Y-69500000D03*
X67676000Y-70000000D03*
X67676000Y-70500000D03*
X67676000Y-71000000D03*
D36*
X68338000Y-71663000D03*
X68838000Y-71663000D03*
X69338000Y-71663000D03*
X69838000Y-71663000D03*
X70338000Y-71663000D03*
X70838000Y-71663000D03*
D35*
X71500000Y-71000000D03*
X71500000Y-70500000D03*
X71500000Y-70000000D03*
X71500000Y-69500000D03*
X71500000Y-69000000D03*
X71500000Y-68500000D03*
D41*
X70213000Y-69750000D03*
D42*
X68663000Y-69750000D03*
%TD*%
D54*
%TO.C,L201*%
X107012500Y-55650000D03*
X107012500Y-46250000D03*
%TD*%
D31*
%TO.C,C702*%
X102362501Y-96100251D03*
X100637499Y-96100251D03*
%TD*%
D13*
%TO.C,R1317*%
X168787500Y-124600000D03*
X170612500Y-124600000D03*
%TD*%
%TO.C,R903*%
X73625000Y-128250001D03*
X75450000Y-128250001D03*
%TD*%
D32*
%TO.C,C1504*%
X178400000Y-72083499D03*
X178400000Y-73808501D03*
%TD*%
D11*
%TO.C,R2001*%
X99530501Y-67143500D03*
X99530501Y-68968500D03*
%TD*%
D50*
%TO.C,U302*%
X132878750Y-102050000D03*
X132878750Y-102550000D03*
X132878750Y-103050000D03*
X132878750Y-103550000D03*
X134358750Y-103550000D03*
X134358750Y-103050000D03*
X134358750Y-102550000D03*
X134358750Y-102050000D03*
%TD*%
D33*
%TO.C,C606*%
X100866999Y-130688001D03*
X102592001Y-130688001D03*
%TD*%
%TO.C,C605*%
X113216999Y-136225001D03*
X114942001Y-136225001D03*
%TD*%
D32*
%TO.C,C205*%
X93300000Y-53037499D03*
X93300000Y-54762501D03*
%TD*%
D11*
%TO.C,R1507*%
X185234752Y-59108500D03*
X185234752Y-60933500D03*
%TD*%
%TO.C,R1518*%
X188200000Y-65708500D03*
X188200000Y-67533500D03*
%TD*%
D32*
%TO.C,C302*%
X130818750Y-102037499D03*
X130818750Y-103762501D03*
%TD*%
D13*
%TO.C,R1208*%
X134048750Y-63262502D03*
X135873750Y-63262502D03*
%TD*%
D32*
%TO.C,C1223*%
X163534752Y-56250499D03*
X163534752Y-57975501D03*
%TD*%
D10*
%TO.C,R908*%
X79262500Y-133200000D03*
X77437500Y-133200000D03*
%TD*%
%TO.C,R1809*%
X78318001Y-73175000D03*
X76493001Y-73175000D03*
%TD*%
%TO.C,R307*%
X136231250Y-84800000D03*
X134406250Y-84800000D03*
%TD*%
D40*
%TO.C,C1220*%
X153150000Y-69787500D03*
X153150000Y-72912500D03*
%TD*%
D48*
%TO.C,C319*%
X155850000Y-84812500D03*
X155850000Y-81687500D03*
%TD*%
D12*
%TO.C,R_RX_1301*%
X173700000Y-145512500D03*
X173700000Y-143687500D03*
%TD*%
D10*
%TO.C,R1806*%
X64855500Y-69675000D03*
X63030500Y-69675000D03*
%TD*%
D31*
%TO.C,C203*%
X84762501Y-52312498D03*
X83037499Y-52312498D03*
%TD*%
D13*
%TO.C,R1702*%
X84768498Y-62737500D03*
X86593498Y-62737500D03*
%TD*%
D11*
%TO.C,R2005*%
X104950000Y-71087500D03*
X104950000Y-72912500D03*
%TD*%
D33*
%TO.C,C703*%
X99137499Y-103700250D03*
X100862501Y-103700250D03*
%TD*%
D32*
%TO.C,C324*%
X162668750Y-105537500D03*
X162668750Y-107262502D03*
%TD*%
D11*
%TO.C,R106*%
X165283503Y-69721000D03*
X165283503Y-71546000D03*
%TD*%
D13*
%TO.C,R205*%
X87987500Y-58112498D03*
X89812500Y-58112498D03*
%TD*%
D32*
%TO.C,C1206*%
X126750000Y-67387499D03*
X126750000Y-69112501D03*
%TD*%
D10*
%TO.C,R1801*%
X83018002Y-64475000D03*
X81193002Y-64475000D03*
%TD*%
D32*
%TO.C,C211*%
X117000000Y-52449997D03*
X117000000Y-54174999D03*
%TD*%
D40*
%TO.C,C1213*%
X155700000Y-52650000D03*
X155700000Y-55775000D03*
%TD*%
D10*
%TO.C,R1802*%
X68655500Y-64375000D03*
X66830500Y-64375000D03*
%TD*%
D11*
%TO.C,R1511*%
X179834752Y-59108500D03*
X179834752Y-60933500D03*
%TD*%
D48*
%TO.C,C910*%
X79250000Y-139962500D03*
X79250000Y-136837500D03*
%TD*%
D33*
%TO.C,C2013*%
X96662498Y-137388001D03*
X98387500Y-137388001D03*
%TD*%
D10*
%TO.C,R1209*%
X135873750Y-65062502D03*
X134048750Y-65062502D03*
%TD*%
D39*
%TO.C,C2016*%
X106000000Y-143212501D03*
X106000000Y-141487499D03*
%TD*%
D12*
%TO.C,R1912*%
X97800000Y-79812500D03*
X97800000Y-77987500D03*
%TD*%
D13*
%TO.C,R1318*%
X145487500Y-124450000D03*
X147312500Y-124450000D03*
%TD*%
D55*
%TO.C,U1306*%
X196615000Y-138630000D03*
X196615000Y-140170000D03*
X197735000Y-138630000D03*
X197735000Y-140170000D03*
D56*
X196425000Y-137250000D03*
D57*
X195525000Y-137650000D03*
X195525000Y-138150000D03*
X195525000Y-138650000D03*
X195525000Y-139150000D03*
X195525000Y-139650000D03*
X195525000Y-140150000D03*
X195525000Y-140650000D03*
X195525000Y-141150000D03*
D56*
X196425000Y-141550000D03*
X197925000Y-141550000D03*
D57*
X198825000Y-141150000D03*
X198825000Y-140650000D03*
X198825000Y-140150000D03*
X198825000Y-139650000D03*
X198825000Y-139150000D03*
X198825000Y-138650000D03*
X198825000Y-138150000D03*
X198825000Y-137650000D03*
D56*
X197925000Y-137250000D03*
%TD*%
D10*
%TO.C,R912*%
X67450001Y-137350001D03*
X65625001Y-137350001D03*
%TD*%
D11*
%TO.C,R2008*%
X101330501Y-85743500D03*
X101330501Y-87568500D03*
%TD*%
D40*
%TO.C,C318*%
X155250000Y-103887500D03*
X155250000Y-107012500D03*
%TD*%
D13*
%TO.C,R302*%
X128506250Y-99700000D03*
X130331250Y-99700000D03*
%TD*%
D58*
%TO.C,Y1201*%
X143037500Y-132275000D03*
X143037500Y-130425000D03*
%TD*%
D31*
%TO.C,C1211*%
X134763750Y-57600000D03*
X133038748Y-57600000D03*
%TD*%
D10*
%TO.C,R2012*%
X96512500Y-148788001D03*
X94687500Y-148788001D03*
%TD*%
D33*
%TO.C,C1901*%
X92737499Y-115762502D03*
X94462501Y-115762502D03*
%TD*%
D11*
%TO.C,R105*%
X165283503Y-66121000D03*
X165283503Y-67946000D03*
%TD*%
D32*
%TO.C,C2005*%
X109230501Y-65530998D03*
X109230501Y-67256000D03*
%TD*%
D48*
%TO.C,C317*%
X153300000Y-84775001D03*
X153300000Y-81650001D03*
%TD*%
D12*
%TO.C,R1501*%
X178934752Y-55921000D03*
X178934752Y-54096000D03*
%TD*%
D33*
%TO.C,C1308*%
X187439999Y-107272500D03*
X189165001Y-107272500D03*
%TD*%
D11*
%TO.C,R1309*%
X177150000Y-128437500D03*
X177150000Y-130262500D03*
%TD*%
D33*
%TO.C,C1505*%
X188272251Y-57121000D03*
X189997253Y-57121000D03*
%TD*%
%TO.C,C1225*%
X139125000Y-132350000D03*
X140850000Y-132350000D03*
%TD*%
D31*
%TO.C,C903*%
X70200001Y-129850002D03*
X68474999Y-129850002D03*
%TD*%
D33*
%TO.C,C2011*%
X102124999Y-146988001D03*
X103850001Y-146988001D03*
%TD*%
D59*
%TO.C,U901*%
X69612500Y-140212501D03*
X70262500Y-140212501D03*
X70912500Y-140212501D03*
X71562500Y-140212501D03*
X72212500Y-140212501D03*
X72862500Y-140212501D03*
X73512500Y-140212501D03*
X74162500Y-140212501D03*
X74812500Y-140212501D03*
X75462500Y-140212501D03*
X75462500Y-134487501D03*
X74812500Y-134487501D03*
X74162500Y-134487501D03*
X73512500Y-134487501D03*
X72862500Y-134487501D03*
X72212500Y-134487501D03*
X71562500Y-134487501D03*
X70912500Y-134487501D03*
X70262500Y-134487501D03*
X69612500Y-134487501D03*
%TD*%
D31*
%TO.C,C1101*%
X114043002Y-74293499D03*
X112318000Y-74293499D03*
%TD*%
%TO.C,C1320*%
X170562501Y-126400000D03*
X168837499Y-126400000D03*
%TD*%
D32*
%TO.C,C1210*%
X137561250Y-69300001D03*
X137561250Y-71025003D03*
%TD*%
D13*
%TO.C,R308*%
X133806250Y-99600000D03*
X135631250Y-99600000D03*
%TD*%
D32*
%TO.C,C2006*%
X109320798Y-79489414D03*
X109320798Y-81214416D03*
%TD*%
%TO.C,C1107*%
X116148001Y-83910998D03*
X116148001Y-85636000D03*
%TD*%
D33*
%TO.C,C1303*%
X167324998Y-119050000D03*
X169050000Y-119050000D03*
%TD*%
D10*
%TO.C,R1210*%
X181462500Y-117350000D03*
X179637500Y-117350000D03*
%TD*%
D32*
%TO.C,C1503*%
X178100000Y-59195998D03*
X178100000Y-60921000D03*
%TD*%
D39*
%TO.C,C1601*%
X59700000Y-47562501D03*
X59700000Y-45837499D03*
%TD*%
D36*
%TO.C,IC1902*%
X107200000Y-112588501D03*
X107700000Y-112588501D03*
X108200000Y-112588501D03*
X108700000Y-112588501D03*
X109200000Y-112588501D03*
X109700000Y-112588501D03*
D35*
X110362000Y-111925501D03*
X110362000Y-111425501D03*
X110362000Y-110925501D03*
X110362000Y-110425501D03*
X110362000Y-109925501D03*
X110362000Y-109425501D03*
D36*
X109700000Y-108762501D03*
X109200000Y-108762501D03*
X108700000Y-108762501D03*
X108200000Y-108762501D03*
X107700000Y-108762501D03*
X107200000Y-108762501D03*
D35*
X106538000Y-109425501D03*
X106538000Y-109925501D03*
X106538000Y-110425501D03*
X106538000Y-110925501D03*
X106538000Y-111425501D03*
X106538000Y-111925501D03*
D41*
X107825000Y-110675501D03*
D42*
X109375000Y-110675501D03*
%TD*%
D31*
%TO.C,C1801*%
X86568002Y-64475000D03*
X84843000Y-64475000D03*
%TD*%
D39*
%TO.C,C103*%
X188210000Y-93612501D03*
X188210000Y-91887499D03*
%TD*%
D32*
%TO.C,C1105*%
X110448002Y-83910998D03*
X110448002Y-85636000D03*
%TD*%
D35*
%TO.C,IC2001*%
X102830501Y-65256000D03*
X102830501Y-65756000D03*
X102830501Y-66256000D03*
X102830501Y-66756000D03*
X102830501Y-67256000D03*
X102830501Y-67756000D03*
D36*
X103493501Y-68418000D03*
X103993501Y-68418000D03*
X104493501Y-68418000D03*
X104993501Y-68418000D03*
X105493501Y-68418000D03*
X105993501Y-68418000D03*
D35*
X106656501Y-67756000D03*
X106656501Y-67256000D03*
X106656501Y-66756000D03*
X106656501Y-66256000D03*
X106656501Y-65756000D03*
X106656501Y-65256000D03*
D36*
X105993501Y-64594000D03*
X105493501Y-64594000D03*
X104993501Y-64594000D03*
X104493501Y-64594000D03*
X103993501Y-64594000D03*
X103493501Y-64594000D03*
D37*
X104743501Y-65881000D03*
D38*
X104743501Y-67431000D03*
%TD*%
D12*
%TO.C,R1314*%
X150300000Y-145262500D03*
X150300000Y-143437500D03*
%TD*%
D32*
%TO.C,C309*%
X137818750Y-90537499D03*
X137818750Y-92262501D03*
%TD*%
D11*
%TO.C,R1516*%
X188234752Y-53408500D03*
X188234752Y-55233500D03*
%TD*%
D10*
%TO.C,R1911*%
X94475001Y-117500251D03*
X92650001Y-117500251D03*
%TD*%
D31*
%TO.C,C904*%
X66637500Y-129850001D03*
X64912498Y-129850001D03*
%TD*%
%TO.C,C401*%
X198012501Y-121450000D03*
X196287499Y-121450000D03*
%TD*%
D11*
%TO.C,R212*%
X115200000Y-52399998D03*
X115200000Y-54224998D03*
%TD*%
D32*
%TO.C,C1209*%
X137601249Y-55937499D03*
X137601249Y-57662501D03*
%TD*%
D51*
%TO.C,R1515*%
X190784752Y-48621000D03*
X193884752Y-48621000D03*
%TD*%
D39*
%TO.C,C1207*%
X137601249Y-54162501D03*
X137601249Y-52437499D03*
%TD*%
D10*
%TO.C,R1810*%
X64855500Y-73075000D03*
X63030500Y-73075000D03*
%TD*%
D11*
%TO.C,R301*%
X154568750Y-94187500D03*
X154568750Y-96012500D03*
%TD*%
D32*
%TO.C,C1603*%
X59700000Y-42324998D03*
X59700000Y-44050000D03*
%TD*%
D13*
%TO.C,R906*%
X63225000Y-128250001D03*
X65050000Y-128250001D03*
%TD*%
D52*
%TO.C,C1323*%
X204870917Y-137053128D03*
X201745917Y-137053128D03*
%TD*%
D13*
%TO.C,R1321*%
X200702500Y-145269455D03*
X202527500Y-145269455D03*
%TD*%
D34*
%TO.C,U304*%
X159050001Y-107537500D03*
X160000000Y-107537500D03*
X160949999Y-107537500D03*
X160949999Y-105262500D03*
X160000000Y-105262500D03*
X159050001Y-105262500D03*
%TD*%
D31*
%TO.C,C1706*%
X80462501Y-81600000D03*
X78737499Y-81600000D03*
%TD*%
D11*
%TO.C,R1502*%
X186984752Y-59108500D03*
X186984752Y-60933500D03*
%TD*%
%TO.C,R201*%
X77000000Y-49299998D03*
X77000000Y-51124998D03*
%TD*%
D32*
%TO.C,C1807*%
X88250000Y-69187499D03*
X88250000Y-70912501D03*
%TD*%
D10*
%TO.C,R1807*%
X78318001Y-66175000D03*
X76493001Y-66175000D03*
%TD*%
D13*
%TO.C,R1811*%
X70430500Y-62575000D03*
X72255500Y-62575000D03*
%TD*%
D32*
%TO.C,C102*%
X182110000Y-91887499D03*
X182110000Y-93612501D03*
%TD*%
D13*
%TO.C,R306*%
X134406250Y-86500000D03*
X136231250Y-86500000D03*
%TD*%
D33*
%TO.C,C1228*%
X162287500Y-132150000D03*
X164012500Y-132150000D03*
%TD*%
%TO.C,C1506*%
X188472251Y-69821000D03*
X190197253Y-69821000D03*
%TD*%
D13*
%TO.C,R1701*%
X66787500Y-62650000D03*
X68612500Y-62650000D03*
%TD*%
D31*
%TO.C,C908*%
X67400001Y-132250001D03*
X65674999Y-132250001D03*
%TD*%
D39*
%TO.C,C1311*%
X184355000Y-142197501D03*
X184355000Y-140472499D03*
%TD*%
D33*
%TO.C,C2014*%
X109074999Y-137375001D03*
X110800001Y-137375001D03*
%TD*%
D49*
%TO.C,U602*%
X115217000Y-134375000D03*
X115217000Y-133425001D03*
X115217000Y-132475002D03*
X112942000Y-132475002D03*
X112942000Y-133425001D03*
X112942000Y-134375000D03*
%TD*%
D12*
%TO.C,R913*%
X62137499Y-146862501D03*
X62137499Y-145037501D03*
%TD*%
D39*
%TO.C,C1208*%
X137561250Y-67425003D03*
X137561250Y-65700001D03*
%TD*%
D11*
%TO.C,R1301*%
X143600000Y-124487500D03*
X143600000Y-126312500D03*
%TD*%
%TO.C,R1509*%
X183434752Y-59108500D03*
X183434752Y-60933500D03*
%TD*%
D13*
%TO.C,R1904*%
X112687500Y-108762501D03*
X114512500Y-108762501D03*
%TD*%
D33*
%TO.C,C1905*%
X94337499Y-106462502D03*
X96062501Y-106462502D03*
%TD*%
D10*
%TO.C,R1319*%
X198027500Y-144430000D03*
X196202500Y-144430000D03*
%TD*%
%TO.C,R802*%
X101912500Y-117262501D03*
X100087500Y-117262501D03*
%TD*%
D31*
%TO.C,C1317*%
X170562501Y-128200000D03*
X168837499Y-128200000D03*
%TD*%
D11*
%TO.C,R1315*%
X163000000Y-138337500D03*
X163000000Y-140162500D03*
%TD*%
D33*
%TO.C,C2010*%
X107074999Y-147075001D03*
X108800001Y-147075001D03*
%TD*%
%TO.C,C208*%
X83637500Y-46600000D03*
X85362500Y-46600000D03*
%TD*%
%TO.C,C1325*%
X198152500Y-135530000D03*
X199877500Y-135530000D03*
%TD*%
D10*
%TO.C,R309*%
X135631250Y-97800000D03*
X133806250Y-97800000D03*
%TD*%
D13*
%TO.C,R206*%
X78987500Y-45612498D03*
X80812500Y-45612498D03*
%TD*%
D40*
%TO.C,C1204*%
X128500000Y-53637500D03*
X128500000Y-56762500D03*
%TD*%
D13*
%TO.C,R909*%
X65625001Y-133950001D03*
X67450001Y-133950001D03*
%TD*%
D32*
%TO.C,C2002*%
X99530501Y-78037499D03*
X99530501Y-79762501D03*
%TD*%
D10*
%TO.C,R1207*%
X135913749Y-51487500D03*
X134088749Y-51487500D03*
%TD*%
D34*
%TO.C,U1101*%
X112230502Y-71930999D03*
X113180501Y-71930999D03*
X114130500Y-71930999D03*
X114130500Y-69655999D03*
X113180501Y-69655999D03*
X112230502Y-69655999D03*
%TD*%
D11*
%TO.C,R2002*%
X99530501Y-81487500D03*
X99530501Y-83312500D03*
%TD*%
D32*
%TO.C,C1106*%
X116080501Y-69930998D03*
X116080501Y-71656000D03*
%TD*%
D39*
%TO.C,C307*%
X137818750Y-88762501D03*
X137818750Y-87037499D03*
%TD*%
D11*
%TO.C,R203*%
X80800000Y-47399998D03*
X80800000Y-49224998D03*
%TD*%
D48*
%TO.C,C1217*%
X153200000Y-50562500D03*
X153200000Y-47437500D03*
%TD*%
D36*
%TO.C,IC1901*%
X94062000Y-112625500D03*
X94562000Y-112625500D03*
X95062000Y-112625500D03*
X95562000Y-112625500D03*
X96062000Y-112625500D03*
X96562000Y-112625500D03*
D35*
X97224000Y-111962500D03*
X97224000Y-111462500D03*
X97224000Y-110962500D03*
X97224000Y-110462500D03*
X97224000Y-109962500D03*
X97224000Y-109462500D03*
D36*
X96562000Y-108799500D03*
X96062000Y-108799500D03*
X95562000Y-108799500D03*
X95062000Y-108799500D03*
X94562000Y-108799500D03*
X94062000Y-108799500D03*
D35*
X93400000Y-109462500D03*
X93400000Y-109962500D03*
X93400000Y-110462500D03*
X93400000Y-110962500D03*
X93400000Y-111462500D03*
X93400000Y-111962500D03*
D41*
X94687000Y-110712500D03*
D42*
X96237000Y-110712500D03*
%TD*%
D35*
%TO.C,IC2002*%
X102817501Y-79206000D03*
X102817501Y-79706000D03*
X102817501Y-80206000D03*
X102817501Y-80706000D03*
X102817501Y-81206000D03*
X102817501Y-81706000D03*
D36*
X103480501Y-82368000D03*
X103980501Y-82368000D03*
X104480501Y-82368000D03*
X104980501Y-82368000D03*
X105480501Y-82368000D03*
X105980501Y-82368000D03*
D35*
X106643501Y-81706000D03*
X106643501Y-81206000D03*
X106643501Y-80706000D03*
X106643501Y-80206000D03*
X106643501Y-79706000D03*
X106643501Y-79206000D03*
D36*
X105980501Y-78544000D03*
X105480501Y-78544000D03*
X104980501Y-78544000D03*
X104480501Y-78544000D03*
X103980501Y-78544000D03*
X103480501Y-78544000D03*
D37*
X104730501Y-79831000D03*
D38*
X104730501Y-81381000D03*
%TD*%
D60*
%TO.C,R911*%
X63037499Y-134100000D03*
X63037499Y-137200002D03*
%TD*%
D31*
%TO.C,C1802*%
X72205501Y-64375000D03*
X70480499Y-64375000D03*
%TD*%
D13*
%TO.C,R1202*%
X128548750Y-65162502D03*
X130373750Y-65162502D03*
%TD*%
D12*
%TO.C,R1514*%
X181903679Y-73858500D03*
X181903679Y-72033500D03*
%TD*%
%TO.C,R210*%
X82610000Y-58112498D03*
X82610000Y-56287498D03*
%TD*%
D11*
%TO.C,R910*%
X77150000Y-138437500D03*
X77150000Y-140262500D03*
%TD*%
D13*
%TO.C,R2017*%
X102075000Y-141688001D03*
X103900000Y-141688001D03*
%TD*%
%TO.C,R2016*%
X114825000Y-140075001D03*
X116650000Y-140075001D03*
%TD*%
D10*
%TO.C,R905*%
X68550000Y-128250001D03*
X66725000Y-128250001D03*
%TD*%
D32*
%TO.C,C321*%
X157268750Y-92137499D03*
X157268750Y-93862501D03*
%TD*%
D13*
%TO.C,R1905*%
X100087500Y-110262501D03*
X101912500Y-110262501D03*
%TD*%
D48*
%TO.C,C1219*%
X155700000Y-50562500D03*
X155700000Y-47437500D03*
%TD*%
D61*
%TO.C,U101*%
X183870000Y-91775000D03*
X183870000Y-92725000D03*
X183870000Y-93675000D03*
X186550000Y-93675000D03*
X186550000Y-92725000D03*
X186550000Y-91775000D03*
D62*
X184810000Y-92200000D03*
X184810000Y-93250000D03*
X185610000Y-92200000D03*
X185610000Y-93250000D03*
%TD*%
D31*
%TO.C,C1707*%
X66768002Y-81275000D03*
X65043000Y-81275000D03*
%TD*%
%TO.C,C902*%
X73700001Y-129850001D03*
X71974999Y-129850001D03*
%TD*%
D51*
%TO.C,R1517*%
X190850000Y-60421000D03*
X193950000Y-60421000D03*
%TD*%
D33*
%TO.C,C1226*%
X139125000Y-130400000D03*
X140850000Y-130400000D03*
%TD*%
%TO.C,C202*%
X89737500Y-56312498D03*
X91462500Y-56312498D03*
%TD*%
D10*
%TO.C,R1812*%
X107462500Y-117500000D03*
X105637500Y-117500000D03*
%TD*%
%TO.C,R1805*%
X78318001Y-69775000D03*
X76493001Y-69775000D03*
%TD*%
D40*
%TO.C,C1215*%
X153200000Y-52637500D03*
X153200000Y-55762500D03*
%TD*%
D33*
%TO.C,C2008*%
X103937499Y-75850000D03*
X105662501Y-75850000D03*
%TD*%
D10*
%TO.C,R2023*%
X108850000Y-148875001D03*
X107025000Y-148875001D03*
%TD*%
D11*
%TO.C,R207*%
X79000000Y-47399998D03*
X79000000Y-49224998D03*
%TD*%
%TO.C,R1505*%
X187284752Y-71983500D03*
X187284752Y-73808500D03*
%TD*%
D31*
%TO.C,C909*%
X67400001Y-139050001D03*
X65674999Y-139050001D03*
%TD*%
D32*
%TO.C,C1222*%
X157916497Y-70587499D03*
X157916497Y-72312501D03*
%TD*%
%TO.C,C602*%
X117279500Y-132562500D03*
X117279500Y-134287502D03*
%TD*%
D31*
%TO.C,C1321*%
X147262501Y-126250000D03*
X145537499Y-126250000D03*
%TD*%
D33*
%TO.C,C1318*%
X149137499Y-128250000D03*
X150862501Y-128250000D03*
%TD*%
D39*
%TO.C,C201*%
X77000000Y-47374999D03*
X77000000Y-45649997D03*
%TD*%
D31*
%TO.C,C207*%
X89462501Y-47012498D03*
X87737499Y-47012498D03*
%TD*%
D32*
%TO.C,C1301*%
X180262500Y-106332500D03*
X180262500Y-108057502D03*
%TD*%
D63*
%TO.C,D202*%
X94850000Y-45450000D03*
X94850000Y-43759999D03*
X94850000Y-42100000D03*
X93150000Y-45449999D03*
X93150000Y-43760000D03*
X93150000Y-42100000D03*
X91450000Y-45450000D03*
X91450000Y-43759999D03*
X91450000Y-42100000D03*
D64*
X94190000Y-47565000D03*
X92110000Y-47565000D03*
%TD*%
D11*
%TO.C,R1201*%
X154247252Y-59208500D03*
X154247252Y-61033500D03*
%TD*%
D39*
%TO.C,C1310*%
X163000000Y-144612501D03*
X163000000Y-142887499D03*
%TD*%
D65*
%TO.C,U1301*%
X172700000Y-121630000D03*
X173730000Y-121630000D03*
X174760000Y-121630000D03*
X172700000Y-120600000D03*
X173730000Y-120600000D03*
X174760000Y-120600000D03*
X172700000Y-119570000D03*
X173730000Y-119570000D03*
X174760000Y-119570000D03*
D66*
X171980000Y-123037500D03*
X172480000Y-123037500D03*
X172980000Y-123037500D03*
X173480000Y-123037500D03*
X173980000Y-123037500D03*
X174480000Y-123037500D03*
X174980000Y-123037500D03*
X175480000Y-123037500D03*
D67*
X176167500Y-122350000D03*
X176167500Y-121850000D03*
X176167500Y-121350000D03*
X176167500Y-120850000D03*
X176167500Y-120350000D03*
X176167500Y-119850000D03*
X176167500Y-119350000D03*
X176167500Y-118850000D03*
D66*
X175480000Y-118162500D03*
X174980000Y-118162500D03*
X174480000Y-118162500D03*
X173980000Y-118162500D03*
X173480000Y-118162500D03*
X172980000Y-118162500D03*
X172480000Y-118162500D03*
X171980000Y-118162500D03*
D67*
X171292500Y-118850000D03*
X171292500Y-119350000D03*
X171292500Y-119850000D03*
X171292500Y-120350000D03*
X171292500Y-120850000D03*
X171292500Y-121350000D03*
X171292500Y-121850000D03*
X171292500Y-122350000D03*
%TD*%
D50*
%TO.C,U301*%
X133378750Y-88850000D03*
X133378750Y-89350000D03*
X133378750Y-89850000D03*
X133378750Y-90350000D03*
X134858750Y-90350000D03*
X134858750Y-89850000D03*
X134858750Y-89350000D03*
X134858750Y-88850000D03*
%TD*%
D60*
%TO.C,R915*%
X70637500Y-144600000D03*
X70637500Y-147700002D03*
%TD*%
D33*
%TO.C,C2007*%
X104037499Y-62050000D03*
X105762501Y-62050000D03*
%TD*%
D11*
%TO.C,R1508*%
X185503679Y-72033500D03*
X185503679Y-73858500D03*
%TD*%
D10*
%TO.C,R1203*%
X147859752Y-61121000D03*
X146034752Y-61121000D03*
%TD*%
D11*
%TO.C,R2009*%
X108550000Y-71087500D03*
X108550000Y-72912500D03*
%TD*%
D32*
%TO.C,C1103*%
X110380501Y-69930998D03*
X110380501Y-71656000D03*
%TD*%
D11*
%TO.C,R2004*%
X106730501Y-85743500D03*
X106730501Y-87568500D03*
%TD*%
%TO.C,R1316*%
X184355000Y-135222500D03*
X184355000Y-137047500D03*
%TD*%
D31*
%TO.C,C104*%
X186072501Y-97450000D03*
X184347499Y-97450000D03*
%TD*%
D32*
%TO.C,C310*%
X137250000Y-103837499D03*
X137250000Y-105562501D03*
%TD*%
D12*
%TO.C,R1503*%
X188784752Y-60908500D03*
X188784752Y-59083500D03*
%TD*%
D32*
%TO.C,C2001*%
X99530501Y-63587499D03*
X99530501Y-65312501D03*
%TD*%
D31*
%TO.C,C1508*%
X193812253Y-69846000D03*
X192087251Y-69846000D03*
%TD*%
D11*
%TO.C,R1512*%
X180088679Y-72033500D03*
X180088679Y-73858500D03*
%TD*%
D44*
%TO.C,U501*%
X83497500Y-142000001D03*
X84767500Y-142000001D03*
X86037500Y-142000001D03*
X87307500Y-142000001D03*
X87307500Y-137050001D03*
X86037500Y-137050001D03*
X84767500Y-137050001D03*
X83497500Y-137050001D03*
%TD*%
D31*
%TO.C,C1803*%
X78268002Y-64475000D03*
X76543000Y-64475000D03*
%TD*%
D32*
%TO.C,C1808*%
X74300000Y-68987499D03*
X74300000Y-70712501D03*
%TD*%
D13*
%TO.C,R2014*%
X110625000Y-147075001D03*
X112450000Y-147075001D03*
%TD*%
D33*
%TO.C,C907*%
X77487499Y-135000000D03*
X79212501Y-135000000D03*
%TD*%
D34*
%TO.C,U303*%
X159018751Y-94137500D03*
X159968750Y-94137500D03*
X160918749Y-94137500D03*
X160918749Y-91862500D03*
X159968750Y-91862500D03*
X159018751Y-91862500D03*
%TD*%
%TO.C,U1203*%
X159784753Y-58250500D03*
X160734752Y-58250500D03*
X161684751Y-58250500D03*
X161684751Y-55975500D03*
X160734752Y-55975500D03*
X159784753Y-55975500D03*
%TD*%
D40*
%TO.C,C303*%
X128750000Y-88437500D03*
X128750000Y-91562500D03*
%TD*%
D68*
%TO.C,U201*%
X88365000Y-51177498D03*
X88365000Y-52247498D03*
X89435000Y-51177498D03*
X89435000Y-52247498D03*
D69*
X87202500Y-50962498D03*
X87202500Y-51462498D03*
X87202500Y-51962498D03*
X87202500Y-52462498D03*
D70*
X88150000Y-53409998D03*
X88650000Y-53409998D03*
X89150000Y-53409998D03*
X89650000Y-53409998D03*
D69*
X90597500Y-52462498D03*
X90597500Y-51962498D03*
X90597500Y-51462498D03*
X90597500Y-50962498D03*
D70*
X89650000Y-50014998D03*
X89150000Y-50014998D03*
X88650000Y-50014998D03*
X88150000Y-50014998D03*
%TD*%
D32*
%TO.C,C322*%
X157400000Y-105537499D03*
X157400000Y-107262501D03*
%TD*%
D13*
%TO.C,R2020*%
X114825000Y-145375001D03*
X116650000Y-145375001D03*
%TD*%
D32*
%TO.C,C101*%
X180410000Y-91887499D03*
X180410000Y-93612501D03*
%TD*%
D11*
%TO.C,R2010*%
X108530501Y-85743500D03*
X108530501Y-87568500D03*
%TD*%
%TO.C,R2007*%
X101350000Y-71087500D03*
X101350000Y-72912500D03*
%TD*%
D32*
%TO.C,C1224*%
X163350000Y-70587499D03*
X163350000Y-72312501D03*
%TD*%
D60*
%TO.C,R101*%
X90050000Y-97999999D03*
X90050000Y-101100001D03*
%TD*%
D13*
%TO.C,R2021*%
X102062500Y-138288001D03*
X103887500Y-138288001D03*
%TD*%
D39*
%TO.C,C1907*%
X90998000Y-112100000D03*
X90998000Y-110374998D03*
%TD*%
D61*
%TO.C,U1303*%
X182550000Y-106250000D03*
X182550000Y-107200000D03*
X182550000Y-108150000D03*
X185230000Y-108150000D03*
X185230000Y-107200000D03*
X185230000Y-106250000D03*
D62*
X183490000Y-106675000D03*
X183490000Y-107725000D03*
X184290000Y-106675000D03*
X184290000Y-107725000D03*
%TD*%
D11*
%TO.C,R_MOSI_1301*%
X152300000Y-143437500D03*
X152300000Y-145262500D03*
%TD*%
%TO.C,R901*%
X89250000Y-136687500D03*
X89250000Y-138512500D03*
%TD*%
D32*
%TO.C,C1201*%
X130701249Y-53537499D03*
X130701249Y-55262501D03*
%TD*%
D36*
%TO.C,IC1801*%
X84730501Y-68062000D03*
X84230501Y-68062000D03*
X83730501Y-68062000D03*
X83230501Y-68062000D03*
X82730501Y-68062000D03*
X82230501Y-68062000D03*
D35*
X81568501Y-68725000D03*
X81568501Y-69225000D03*
X81568501Y-69725000D03*
X81568501Y-70225000D03*
X81568501Y-70725000D03*
X81568501Y-71225000D03*
D36*
X82230501Y-71888000D03*
X82730501Y-71888000D03*
X83230501Y-71888000D03*
X83730501Y-71888000D03*
X84230501Y-71888000D03*
X84730501Y-71888000D03*
D35*
X85392501Y-71225000D03*
X85392501Y-70725000D03*
X85392501Y-70225000D03*
X85392501Y-69725000D03*
X85392501Y-69225000D03*
X85392501Y-68725000D03*
D41*
X84105501Y-69975000D03*
D42*
X82555501Y-69975000D03*
%TD*%
D12*
%TO.C,R1513*%
X181634752Y-60933500D03*
X181634752Y-59108500D03*
%TD*%
D36*
%TO.C,IC2003*%
X96437500Y-143801001D03*
X96937500Y-143801001D03*
X97437500Y-143801001D03*
X97937500Y-143801001D03*
X98437500Y-143801001D03*
X98937500Y-143801001D03*
D35*
X99599500Y-143138001D03*
X99599500Y-142638001D03*
X99599500Y-142138001D03*
X99599500Y-141638001D03*
X99599500Y-141138001D03*
X99599500Y-140638001D03*
D36*
X98937500Y-139975001D03*
X98437500Y-139975001D03*
X97937500Y-139975001D03*
X97437500Y-139975001D03*
X96937500Y-139975001D03*
X96437500Y-139975001D03*
D35*
X95775500Y-140638001D03*
X95775500Y-141138001D03*
X95775500Y-141638001D03*
X95775500Y-142138001D03*
X95775500Y-142638001D03*
X95775500Y-143138001D03*
D41*
X97062500Y-141888001D03*
D42*
X98612500Y-141888001D03*
%TD*%
D39*
%TO.C,C501*%
X89250000Y-142462501D03*
X89250000Y-140737499D03*
%TD*%
D11*
%TO.C,R2006*%
X104930501Y-85743500D03*
X104930501Y-87568500D03*
%TD*%
D31*
%TO.C,C1322*%
X202477501Y-141669455D03*
X200752499Y-141669455D03*
%TD*%
D11*
%TO.C,R208*%
X83600000Y-48487500D03*
X83600000Y-50312500D03*
%TD*%
D13*
%TO.C,R1910*%
X112687500Y-107062501D03*
X114512500Y-107062501D03*
%TD*%
D33*
%TO.C,C1309*%
X187439999Y-109782500D03*
X189165001Y-109782500D03*
%TD*%
D10*
%TO.C,R303*%
X148181250Y-95900000D03*
X146356250Y-95900000D03*
%TD*%
D40*
%TO.C,C1203*%
X128900000Y-67537500D03*
X128900000Y-70662500D03*
%TD*%
D33*
%TO.C,C1312*%
X172675000Y-128200000D03*
X174400000Y-128200000D03*
%TD*%
%TO.C,C1314*%
X149137500Y-130150000D03*
X150862500Y-130150000D03*
%TD*%
D32*
%TO.C,C1327*%
X204315000Y-143506954D03*
X204315000Y-145231956D03*
%TD*%
D13*
%TO.C,R1902*%
X109137500Y-115750000D03*
X110962500Y-115750000D03*
%TD*%
D11*
%TO.C,R305*%
X132118750Y-97787500D03*
X132118750Y-99612500D03*
%TD*%
D31*
%TO.C,C1507*%
X193697253Y-57121000D03*
X191972251Y-57121000D03*
%TD*%
D11*
%TO.C,R2003*%
X106750000Y-71087500D03*
X106750000Y-72912500D03*
%TD*%
%TO.C,R1205*%
X132261250Y-63250002D03*
X132261250Y-65075002D03*
%TD*%
D13*
%TO.C,R1206*%
X134088749Y-49787500D03*
X135913749Y-49787500D03*
%TD*%
D32*
%TO.C,C1202*%
X130961250Y-67400001D03*
X130961250Y-69125003D03*
%TD*%
D40*
%TO.C,C320*%
X152750000Y-103887500D03*
X152750000Y-107012500D03*
%TD*%
D31*
%TO.C,C1319*%
X147262501Y-128250000D03*
X145537499Y-128250000D03*
%TD*%
D43*
%TO.C,L302*%
X144800000Y-108850000D03*
X144800000Y-99150000D03*
%TD*%
D52*
%TO.C,C209*%
X117062500Y-58250000D03*
X113937500Y-58250000D03*
%TD*%
D48*
%TO.C,C1214*%
X153150000Y-67712500D03*
X153150000Y-64587500D03*
%TD*%
D39*
%TO.C,C305*%
X131000000Y-86562501D03*
X131000000Y-84837499D03*
%TD*%
D10*
%TO.C,R916*%
X75850000Y-149850001D03*
X74025000Y-149850001D03*
%TD*%
D32*
%TO.C,C601*%
X104829500Y-132625500D03*
X104829500Y-134350502D03*
%TD*%
D71*
%TO.C,R211*%
X118350001Y-49000000D03*
X115249999Y-49000000D03*
%TD*%
D33*
%TO.C,C906*%
X77474999Y-141950001D03*
X79200001Y-141950001D03*
%TD*%
D13*
%TO.C,R2018*%
X114825000Y-141775001D03*
X116650000Y-141775001D03*
%TD*%
D58*
%TO.C,Y1202*%
X166200000Y-132125000D03*
X166200000Y-130275000D03*
%TD*%
D32*
%TO.C,C1302*%
X177752500Y-106332500D03*
X177752500Y-108057502D03*
%TD*%
D10*
%TO.C,R204*%
X88012500Y-56312498D03*
X86187500Y-56312498D03*
%TD*%
D32*
%TO.C,C2004*%
X99530501Y-85793499D03*
X99530501Y-87518501D03*
%TD*%
D13*
%TO.C,R1903*%
X100087500Y-108562501D03*
X101912500Y-108562501D03*
%TD*%
D39*
%TO.C,C2015*%
X93450000Y-143312501D03*
X93450000Y-141587499D03*
%TD*%
D10*
%TO.C,R801*%
X114512500Y-117462501D03*
X112687500Y-117462501D03*
%TD*%
D31*
%TO.C,C105*%
X186072501Y-95750000D03*
X184347499Y-95750000D03*
%TD*%
%TO.C,C1212*%
X135023751Y-71262502D03*
X133298749Y-71262502D03*
%TD*%
D53*
%TO.C,L301*%
X140600000Y-86550000D03*
X150300000Y-86550000D03*
%TD*%
D39*
%TO.C,C1908*%
X104099000Y-112000000D03*
X104099000Y-110274998D03*
%TD*%
D32*
%TO.C,C323*%
X162668750Y-92137499D03*
X162668750Y-93862501D03*
%TD*%
D10*
%TO.C,R1803*%
X78318001Y-71475000D03*
X76493001Y-71475000D03*
%TD*%
D40*
%TO.C,C313*%
X155850000Y-86837500D03*
X155850000Y-89962500D03*
%TD*%
M02*
