%TF.GenerationSoftware,KiCad,Pcbnew,9.0.4*%
%TF.CreationDate,2026-02-17T14:13:00+01:00*%
%TF.ProjectId,TEST_PCB,54455354-5f50-4434-922e-6b696361645f,rev?*%
%TF.SameCoordinates,Original*%
%TF.FileFunction,Soldermask,Bot*%
%TF.FilePolarity,Negative*%
%FSLAX46Y46*%
G04 Gerber Fmt 4.6, Leading zero omitted, Abs format (unit mm)*
G04 Created by KiCad (PCBNEW 9.0.4) date 2026-02-17 14:13:00*
%MOMM*%
%LPD*%
G01*
G04 APERTURE LIST*
%ADD10C,1.700000*%
%ADD11R,1.700000X1.700000*%
G04 APERTURE END LIST*
D10*
%TO.C,J119*%
X95700000Y-71365000D03*
D11*
X95700000Y-68825000D03*
%TD*%
%TO.C,J118*%
X192200000Y-95300000D03*
D10*
X192200000Y-92760000D03*
%TD*%
D11*
%TO.C,J132*%
X204775000Y-129875002D03*
D10*
X204775000Y-127335002D03*
X204775000Y-124795003D03*
X204775000Y-122255002D03*
%TD*%
D11*
%TO.C,J124*%
X119918501Y-79305500D03*
D10*
X119918501Y-81845500D03*
%TD*%
D11*
%TO.C,J112*%
X81000000Y-85350000D03*
D10*
X81000000Y-87890000D03*
%TD*%
D11*
%TO.C,BT903*%
X69750000Y-124575000D03*
D10*
X67210000Y-124575000D03*
%TD*%
D11*
%TO.C,J105*%
X113550000Y-151050000D03*
D10*
X116090000Y-151050000D03*
%TD*%
D11*
%TO.C,J135*%
X200750000Y-73725000D03*
D10*
X203290000Y-73725000D03*
%TD*%
D11*
%TO.C,J137*%
X203284752Y-66671000D03*
D10*
X200744752Y-66671000D03*
%TD*%
D11*
%TO.C,J122*%
X119975000Y-72600000D03*
D10*
X119975000Y-75140000D03*
%TD*%
D11*
%TO.C,J125*%
X122925000Y-65050000D03*
D10*
X120385000Y-65050000D03*
%TD*%
D11*
%TO.C,J131*%
X189725000Y-137720001D03*
D10*
X189725000Y-140260001D03*
X189725000Y-142800000D03*
X189725000Y-145340001D03*
%TD*%
D11*
%TO.C,J1302*%
X180562500Y-134900000D03*
D10*
X180562500Y-137440000D03*
X180562500Y-139980000D03*
X180562500Y-142520000D03*
%TD*%
D11*
%TO.C,J140*%
X145750000Y-146125000D03*
D10*
X143210000Y-146125000D03*
%TD*%
D11*
%TO.C,J901*%
X84650000Y-132750000D03*
D10*
X87190000Y-132750000D03*
%TD*%
D11*
%TO.C,J1301*%
X181400000Y-112300000D03*
D10*
X183940000Y-112300000D03*
%TD*%
D11*
%TO.C,J114*%
X72977500Y-40800000D03*
D10*
X72977500Y-43340000D03*
%TD*%
D11*
%TO.C,J120*%
X107050000Y-121050000D03*
D10*
X109590000Y-121050000D03*
X112129999Y-121050000D03*
%TD*%
D11*
%TO.C,J111*%
X87150000Y-129000000D03*
D10*
X84610000Y-129000000D03*
%TD*%
D11*
%TO.C,J148*%
X200725000Y-69850000D03*
D10*
X203265000Y-69850000D03*
%TD*%
D11*
%TO.C,J141*%
X197000000Y-148800000D03*
D10*
X194460000Y-148800000D03*
%TD*%
D11*
%TO.C,J136*%
X175100000Y-70200000D03*
D10*
X175100000Y-67660000D03*
%TD*%
D11*
%TO.C,J123*%
X94750000Y-100750000D03*
D10*
X94750000Y-98210000D03*
%TD*%
D11*
%TO.C,J130*%
X175234752Y-52000000D03*
D10*
X175234752Y-54540000D03*
X175234752Y-57080000D03*
%TD*%
D11*
%TO.C,BT904*%
X64360000Y-124575000D03*
D10*
X61820000Y-124575000D03*
%TD*%
D11*
%TO.C,J103*%
X53193001Y-56001002D03*
D10*
X53193001Y-53461002D03*
X53193001Y-50921003D03*
X53193001Y-48381002D03*
X53193001Y-45841002D03*
%TD*%
D11*
%TO.C,J145*%
X94150000Y-82675000D03*
D10*
X94150000Y-80135000D03*
%TD*%
D11*
%TO.C,J1303*%
X159627500Y-137105000D03*
D10*
X159627500Y-139645000D03*
X159627500Y-142185000D03*
X159627500Y-144725000D03*
%TD*%
D11*
%TO.C,BT902*%
X75150000Y-124550000D03*
D10*
X72610000Y-124550000D03*
%TD*%
D11*
%TO.C,J146*%
X120375000Y-68300000D03*
D10*
X122915000Y-68300000D03*
%TD*%
D11*
%TO.C,J113*%
X70277500Y-40800000D03*
D10*
X70277500Y-43340000D03*
%TD*%
D11*
%TO.C,J121*%
X91225000Y-65350000D03*
D10*
X91225000Y-62810000D03*
%TD*%
D11*
%TO.C,J102*%
X55893001Y-56001002D03*
D10*
X55893001Y-53461002D03*
X55893001Y-50921003D03*
X55893001Y-48381002D03*
X55893001Y-45841002D03*
%TD*%
D11*
%TO.C,J109*%
X70500000Y-55300000D03*
D10*
X70500000Y-52760000D03*
X70500000Y-50220001D03*
%TD*%
D11*
%TO.C,J138*%
X192900000Y-73800000D03*
D10*
X195440000Y-73800000D03*
%TD*%
D11*
%TO.C,J116*%
X108800000Y-100800000D03*
D10*
X108800000Y-98260000D03*
%TD*%
D11*
%TO.C,J104*%
X85400000Y-100500000D03*
D10*
X85400000Y-97960000D03*
%TD*%
D11*
%TO.C,J115*%
X77300000Y-85325000D03*
D10*
X77300000Y-87865000D03*
%TD*%
D11*
%TO.C,J133*%
X170734752Y-56221000D03*
D10*
X168194752Y-56221000D03*
%TD*%
D11*
%TO.C,J129*%
X162600000Y-45625000D03*
D10*
X160060000Y-45625000D03*
%TD*%
D11*
%TO.C,J101*%
X81350000Y-149675000D03*
D10*
X83890000Y-149675000D03*
%TD*%
D11*
%TO.C,J142*%
X207084752Y-66671000D03*
D10*
X209624752Y-66671000D03*
%TD*%
D11*
%TO.C,J134*%
X175000000Y-61421000D03*
D10*
X175000000Y-63961000D03*
%TD*%
D11*
%TO.C,BT901*%
X80550000Y-124550000D03*
D10*
X78010000Y-124550000D03*
%TD*%
D11*
%TO.C,J147*%
X168175000Y-59250000D03*
D10*
X170715000Y-59250000D03*
%TD*%
D11*
%TO.C,J126*%
X128450000Y-49550000D03*
D10*
X125910000Y-49550000D03*
%TD*%
D11*
%TO.C,J106*%
X97700000Y-127925000D03*
D10*
X95160000Y-127925000D03*
%TD*%
D11*
%TO.C,J110*%
X87150000Y-125200000D03*
D10*
X84610000Y-125200000D03*
%TD*%
D11*
%TO.C,J139*%
X207050000Y-70525000D03*
D10*
X209590000Y-70525000D03*
%TD*%
D11*
%TO.C,J117*%
X91050000Y-80125000D03*
D10*
X91050000Y-82665000D03*
%TD*%
D11*
%TO.C,J143*%
X203650000Y-52000000D03*
D10*
X206190000Y-52000000D03*
%TD*%
D11*
%TO.C,J127*%
X168250000Y-63600000D03*
D10*
X170790000Y-63600000D03*
%TD*%
D11*
%TO.C,J107*%
X180400000Y-87900000D03*
D10*
X182940000Y-87900000D03*
%TD*%
D11*
%TO.C,J108*%
X186600000Y-87900000D03*
D10*
X189140000Y-87900000D03*
%TD*%
D11*
%TO.C,J128*%
X126450000Y-95750000D03*
D10*
X128990000Y-95750000D03*
%TD*%
D11*
%TO.C,J144*%
X73700000Y-87900000D03*
D10*
X73700000Y-85360000D03*
%TD*%
M02*
